<svg width="24" height="24" viewBox="0 0 24 24" fill="none" xmlns="http://www.w3.org/2000/svg">
<path d="M16 12.4141L13 9.41411L13 17.9999H11L11 9.41411L7.99998 12.4141L6.58578 10.9999L12 5.58569L17.4142 10.9999L16 12.4141Z" fill="#0A57FF"/>
<path d="M12 1C18.0751 1 23 5.92487 23 12C23 18.0751 18.0751 23 12 23C5.9249 23 1 18.0751 1 12C1 5.92487 5.9249 1 12 1ZM21 12C21 7.02944 16.9706 3 12 3C7.0294 3 3 7.02944 3 12C3 16.9706 7.0294 21 12 21C16.9706 21 21 16.9706 21 12Z" fill="#0A57FF"/>
<path d="M12 1C18.0751 1 23 5.92487 23 12C23 18.0751 18.0751 23 12 23C5.9249 23 1 18.0751 1 12C1 5.92487 5.9249 1 12 1ZM21 12C21 7.02944 16.9706 3 12 3C7.0294 3 3 7.02944 3 12C3 16.9706 7.0294 21 12 21C16.9706 21 21 16.9706 21 12Z" stroke="#0A57FF"/>
</svg>
