<?xml version="1.0" encoding="utf-8"?>
<!-- Generator: Adobe Illustrator 23.1.1, SVG Export Plug-In . SVG Version: 6.00 Build 0)  -->
<svg version="1.1" id="Layer_1" xmlns="http://www.w3.org/2000/svg" xmlns:xlink="http://www.w3.org/1999/xlink" x="0px" y="0px"
	 viewBox="0 0 1208.8 432.1" style="enable-background:new 0 0 1208.8 432.1;" xml:space="preserve">
<style type="text/css">
	.st0{fill:#A4C1FF;}
	.st1{fill:#FFFFFF;}
	.st2{fill:none;stroke:#FFFFFF;stroke-width:1.0275;stroke-miterlimit:10;}
</style>
<g>
	<path class="st0" d="M1160.5,416H48.4c-18.5,0-33.4-15-33.4-33.4V49.5C14.9,31,29.9,16,48.4,16h1112.1c18.5,0,33.4,15,33.4,33.4
		v333.1C1193.9,401.1,1178.9,416,1160.5,416z"/>
	<g>
		<path class="st1" d="M47.8,49.3h-0.5c0-0.4-0.1-0.7-0.4-0.9S46.3,48,46,48c-0.3,0-0.6,0.1-0.9,0.4c-0.2,0.2-0.4,0.5-0.4,0.9
			c0,0.1,0,0.2,0,0.3c0,0.1,0.1,0.2,0.1,0.3c0.1,0.1,0.1,0.2,0.2,0.2c0,0.1,0.1,0.1,0.3,0.2c0.1,0.1,0.2,0.2,0.3,0.2
			c0,0,0.2,0.1,0.3,0.2c0.2,0.1,0.3,0.2,0.3,0.2c0.2,0.1,0.5,0.3,0.8,0.5c0.5,0.4,0.8,0.9,0.8,1.6c0,0.5-0.2,0.9-0.5,1.3
			c-0.4,0.3-0.8,0.5-1.3,0.5c-0.5,0-1-0.2-1.4-0.5c-0.4-0.3-0.5-0.8-0.5-1.3v-0.2h0.5v0.2c0,0.4,0.1,0.7,0.4,0.9
			c0.3,0.3,0.6,0.4,1,0.4c0.4,0,0.7-0.1,1-0.4s0.4-0.5,0.4-0.9c0-0.4-0.1-0.7-0.3-0.9s-0.5-0.5-0.8-0.7c0,0-0.2-0.1-0.3-0.2
			c-0.2-0.1-0.3-0.2-0.4-0.2c-0.1,0-0.2-0.1-0.3-0.2c-0.2-0.1-0.3-0.2-0.3-0.2c-0.1-0.1-0.2-0.1-0.3-0.3c-0.1-0.1-0.2-0.2-0.2-0.3
			c0-0.1-0.1-0.2-0.1-0.4c0-0.1-0.1-0.3-0.1-0.5c0-0.5,0.2-0.9,0.5-1.3c0.4-0.3,0.8-0.5,1.3-0.5c0.5,0,0.9,0.2,1.3,0.5
			C47.6,48.3,47.8,48.8,47.8,49.3z"/>
		<path class="st1" d="M50.8,51.2v2c0,0.3,0.1,0.6,0.4,0.9s0.6,0.3,0.9,0.3c0.4,0,0.7-0.1,0.9-0.3c0.2-0.2,0.4-0.5,0.4-0.8h0.5
			c0,0.5-0.2,0.8-0.5,1.2c-0.3,0.3-0.7,0.5-1.2,0.5c-0.5,0-1-0.2-1.3-0.5c-0.3-0.3-0.5-0.7-0.5-1.2v-2c0-0.5,0.2-0.9,0.5-1.2
			c0.3-0.3,0.8-0.5,1.3-0.5c0.5,0,0.9,0.2,1.2,0.5c0.3,0.3,0.5,0.7,0.5,1.1h-0.5c0-0.3-0.1-0.6-0.4-0.8S52.5,50,52.2,50
			c-0.4,0-0.7,0.1-0.9,0.3C51,50.6,50.8,50.9,50.8,51.2z"/>
		<path class="st1" d="M65.3,53.2h-2.8v-0.6l2.3-4.9h0.6l-2.4,5.1h2.2v-2h0.6v2h0.6v0.5h-0.6v1.6h-0.6V53.2z"/>
		<path class="st1" d="M47.8,61.6h-0.5c0-0.4-0.1-0.7-0.4-0.9s-0.5-0.4-0.9-0.4c-0.3,0-0.6,0.1-0.9,0.4c-0.2,0.2-0.4,0.5-0.4,0.9
			c0,0.1,0,0.2,0,0.3c0,0.1,0.1,0.2,0.1,0.3c0.1,0.1,0.1,0.2,0.2,0.2c0,0.1,0.1,0.1,0.3,0.2c0.1,0.1,0.2,0.2,0.3,0.2
			c0,0,0.2,0.1,0.3,0.2c0.2,0.1,0.3,0.2,0.3,0.2c0.2,0.1,0.5,0.3,0.8,0.5c0.5,0.4,0.8,0.9,0.8,1.6c0,0.5-0.2,0.9-0.5,1.3
			c-0.4,0.3-0.8,0.5-1.3,0.5c-0.5,0-1-0.2-1.4-0.5c-0.4-0.3-0.5-0.8-0.5-1.3v-0.2h0.5v0.2c0,0.4,0.1,0.7,0.4,0.9
			c0.3,0.3,0.6,0.4,1,0.4c0.4,0,0.7-0.1,1-0.4s0.4-0.5,0.4-0.9c0-0.4-0.1-0.7-0.3-0.9s-0.5-0.5-0.8-0.7c0,0-0.2-0.1-0.3-0.2
			c-0.2-0.1-0.3-0.2-0.4-0.2c-0.1,0-0.2-0.1-0.3-0.2c-0.2-0.1-0.3-0.2-0.3-0.2c-0.1-0.1-0.2-0.1-0.3-0.3c-0.1-0.1-0.2-0.2-0.2-0.3
			c0-0.1-0.1-0.2-0.1-0.4c0-0.1-0.1-0.3-0.1-0.5c0-0.5,0.2-0.9,0.5-1.3c0.4-0.3,0.8-0.5,1.3-0.5c0.5,0,0.9,0.2,1.3,0.5
			C47.6,60.7,47.8,61.1,47.8,61.6z"/>
		<path class="st1" d="M53.4,65.6h0.5c0,0.5-0.2,0.9-0.5,1.2s-0.7,0.4-1.3,0.4c-0.5,0-1-0.2-1.3-0.5c-0.3-0.3-0.5-0.7-0.5-1.1v-2.2
			c0-0.5,0.2-0.8,0.5-1.1c0.3-0.3,0.8-0.5,1.3-0.5c0.5,0,1,0.2,1.3,0.5c0.3,0.3,0.5,0.7,0.5,1.1v1.2h-3.1v0.9c0,0.4,0.1,0.7,0.4,0.9
			s0.6,0.3,0.9,0.3c0.4,0,0.7-0.1,0.9-0.3C53.3,66.3,53.4,66,53.4,65.6z M50.8,63.6v0.7h2.6v-0.7c0-0.4-0.1-0.7-0.4-0.9
			c-0.2-0.2-0.6-0.3-0.9-0.3c-0.4,0-0.7,0.1-0.9,0.3S50.8,63.2,50.8,63.6z"/>
		<path class="st1" d="M56.8,69h-0.5l3.5-9.1h0.5L56.8,69z"/>
		<path class="st1" d="M64.5,63.3l1.3-3.4h0.7v7.2H66v-5.8l0-0.6l0,0l-1.3,3.1h-0.5L63,60.7l0,0l0,0.6v5.8h-0.5v-7.2h0.7L64.5,63.3z
			"/>
		<path class="st1" d="M47.8,74h-0.5c0-0.4-0.1-0.7-0.4-0.9s-0.5-0.4-0.9-0.4c-0.3,0-0.6,0.1-0.9,0.4c-0.2,0.2-0.4,0.5-0.4,0.9
			c0,0.1,0,0.2,0,0.3c0,0.1,0.1,0.2,0.1,0.3c0.1,0.1,0.1,0.2,0.2,0.2c0,0.1,0.1,0.1,0.3,0.2c0.1,0.1,0.2,0.2,0.3,0.2
			c0,0,0.2,0.1,0.3,0.2c0.2,0.1,0.3,0.2,0.3,0.2c0.2,0.1,0.5,0.3,0.8,0.5c0.5,0.4,0.8,0.9,0.8,1.6c0,0.5-0.2,0.9-0.5,1.3
			c-0.4,0.3-0.8,0.5-1.3,0.5c-0.5,0-1-0.2-1.4-0.5c-0.4-0.3-0.5-0.8-0.5-1.3v-0.2h0.5v0.2c0,0.4,0.1,0.7,0.4,0.9
			c0.3,0.3,0.6,0.4,1,0.4c0.4,0,0.7-0.1,1-0.4s0.4-0.5,0.4-0.9c0-0.4-0.1-0.7-0.3-0.9s-0.5-0.5-0.8-0.7c0,0-0.2-0.1-0.3-0.2
			c-0.2-0.1-0.3-0.2-0.4-0.2c-0.1,0-0.2-0.1-0.3-0.2c-0.2-0.1-0.3-0.2-0.3-0.2c-0.1-0.1-0.2-0.1-0.3-0.3c-0.1-0.1-0.2-0.2-0.2-0.3
			c0-0.1-0.1-0.2-0.1-0.4c0-0.1-0.1-0.3-0.1-0.5c0-0.5,0.2-0.9,0.5-1.3c0.4-0.3,0.8-0.5,1.3-0.5c0.5,0,0.9,0.2,1.3,0.5
			C47.6,73,47.8,73.4,47.8,74z"/>
		<path class="st1" d="M51.9,72.8h-1.6v-0.5H54v0.5h-1.6V79H54v0.5h-3.7V79h1.6V72.8z"/>
		<path class="st1" d="M64.5,79.5h-0.6c0-0.6,0.1-1.2,0.3-1.9s0.4-1.3,0.6-1.9c0.2-0.5,0.4-1,0.6-1.6c0.2-0.5,0.3-0.9,0.3-1.2h-2.8
			v-0.5h3.4v0.6c0,0.3-0.1,0.7-0.3,1.2c-0.2,0.6-0.4,1.2-0.6,1.7c-0.2,0.6-0.4,1.2-0.6,1.9C64.6,78.3,64.5,78.9,64.5,79.5z"/>
	</g>
	<g>
		<path class="st1" d="M47.8,347.3h-0.5c0-0.4-0.1-0.7-0.4-0.9S46.3,346,46,346c-0.3,0-0.6,0.1-0.9,0.4c-0.2,0.2-0.4,0.5-0.4,0.9
			c0,0.1,0,0.2,0,0.3s0.1,0.2,0.1,0.3s0.1,0.2,0.2,0.2c0,0.1,0.1,0.1,0.3,0.2c0.1,0.1,0.2,0.2,0.3,0.2c0,0,0.2,0.1,0.3,0.2
			c0.2,0.1,0.3,0.2,0.3,0.2c0.2,0.1,0.5,0.3,0.8,0.5c0.5,0.4,0.8,0.9,0.8,1.6c0,0.5-0.2,0.9-0.5,1.3c-0.4,0.3-0.8,0.5-1.3,0.5
			c-0.5,0-1-0.2-1.4-0.5c-0.4-0.3-0.5-0.8-0.5-1.3v-0.2h0.5v0.2c0,0.4,0.1,0.7,0.4,0.9s0.6,0.4,1,0.4c0.4,0,0.7-0.1,1-0.4
			s0.4-0.5,0.4-0.9c0-0.4-0.1-0.7-0.3-0.9c-0.2-0.3-0.5-0.5-0.8-0.7c0,0-0.2-0.1-0.3-0.2c-0.2-0.1-0.3-0.2-0.4-0.2
			c-0.1,0-0.2-0.1-0.3-0.2c-0.2-0.1-0.3-0.2-0.3-0.2c-0.1-0.1-0.2-0.1-0.3-0.3c-0.1-0.1-0.2-0.2-0.2-0.3s-0.1-0.2-0.1-0.4
			s-0.1-0.3-0.1-0.5c0-0.5,0.2-0.9,0.5-1.3c0.4-0.3,0.8-0.5,1.3-0.5c0.5,0,0.9,0.2,1.3,0.5C47.6,346.3,47.8,346.8,47.8,347.3z"/>
		<path class="st1" d="M50.8,349.2v2c0,0.3,0.1,0.6,0.4,0.9s0.6,0.3,0.9,0.3c0.4,0,0.7-0.1,0.9-0.3c0.2-0.2,0.4-0.5,0.4-0.8h0.5
			c0,0.5-0.2,0.8-0.5,1.2c-0.3,0.3-0.7,0.5-1.2,0.5c-0.5,0-1-0.2-1.3-0.5c-0.3-0.3-0.5-0.7-0.5-1.2v-2c0-0.5,0.2-0.9,0.5-1.2
			c0.3-0.3,0.8-0.5,1.3-0.5c0.5,0,0.9,0.2,1.2,0.5c0.3,0.3,0.5,0.7,0.5,1.1h-0.5c0-0.3-0.1-0.6-0.4-0.8c-0.2-0.2-0.5-0.3-0.9-0.3
			c-0.4,0-0.7,0.1-0.9,0.3C51,348.6,50.8,348.9,50.8,349.2z"/>
		<path class="st1" d="M65.3,351.2h-2.8v-0.6l2.3-4.9h0.6l-2.4,5.1h2.2v-2h0.6v2h0.6v0.5h-0.6v1.6h-0.6V351.2z"/>
		<path class="st1" d="M47.8,359.6h-0.5c0-0.4-0.1-0.7-0.4-0.9s-0.5-0.4-0.9-0.4c-0.3,0-0.6,0.1-0.9,0.4c-0.2,0.2-0.4,0.5-0.4,0.9
			c0,0.1,0,0.2,0,0.3c0,0.1,0.1,0.2,0.1,0.3c0.1,0.1,0.1,0.2,0.2,0.2c0,0.1,0.1,0.1,0.3,0.2c0.1,0.1,0.2,0.2,0.3,0.2
			s0.2,0.1,0.3,0.2s0.3,0.2,0.3,0.2c0.2,0.1,0.5,0.3,0.8,0.5c0.5,0.4,0.8,0.9,0.8,1.6c0,0.5-0.2,0.9-0.5,1.3
			c-0.4,0.3-0.8,0.5-1.3,0.5c-0.5,0-1-0.2-1.4-0.5c-0.4-0.3-0.5-0.8-0.5-1.3v-0.2h0.5v0.2c0,0.4,0.1,0.7,0.4,0.9
			c0.3,0.3,0.6,0.4,1,0.4c0.4,0,0.7-0.1,1-0.4s0.4-0.5,0.4-0.9c0-0.4-0.1-0.7-0.3-0.9c-0.2-0.3-0.5-0.5-0.8-0.7c0,0-0.2-0.1-0.3-0.2
			s-0.3-0.2-0.4-0.2c-0.1,0-0.2-0.1-0.3-0.2c-0.2-0.1-0.3-0.2-0.3-0.2c-0.1-0.1-0.2-0.1-0.3-0.3c-0.1-0.1-0.2-0.2-0.2-0.3
			c0-0.1-0.1-0.2-0.1-0.4c0-0.1-0.1-0.3-0.1-0.5c0-0.5,0.2-0.9,0.5-1.3c0.4-0.3,0.8-0.5,1.3-0.5c0.5,0,0.9,0.2,1.3,0.5
			C47.6,358.7,47.8,359.1,47.8,359.6z"/>
		<path class="st1" d="M53.4,363.6h0.5c0,0.5-0.2,0.9-0.5,1.2s-0.7,0.4-1.3,0.4c-0.5,0-1-0.2-1.3-0.5c-0.3-0.3-0.5-0.7-0.5-1.1v-2.2
			c0-0.5,0.2-0.8,0.5-1.1c0.3-0.3,0.8-0.5,1.3-0.5c0.5,0,1,0.2,1.3,0.5c0.3,0.3,0.5,0.7,0.5,1.1v1.2h-3.1v0.9c0,0.4,0.1,0.7,0.4,0.9
			s0.6,0.3,0.9,0.3c0.4,0,0.7-0.1,0.9-0.3C53.3,364.3,53.4,364,53.4,363.6z M50.8,361.6v0.7h2.6v-0.7c0-0.4-0.1-0.7-0.4-0.9
			c-0.2-0.2-0.6-0.3-0.9-0.3c-0.4,0-0.7,0.1-0.9,0.3C51,360.9,50.8,361.2,50.8,361.6z"/>
		<path class="st1" d="M56.8,367h-0.5l3.5-9.1h0.5L56.8,367z"/>
		<path class="st1" d="M64.5,361.3l1.3-3.4h0.7v7.2H66v-5.8l0-0.6l0,0l-1.3,3.1h-0.5l-1.3-3.1l0,0l0,0.6v5.8h-0.5v-7.2h0.7
			L64.5,361.3z"/>
		<path class="st1" d="M47.8,372h-0.5c0-0.4-0.1-0.7-0.4-0.9s-0.5-0.4-0.9-0.4c-0.3,0-0.6,0.1-0.9,0.4c-0.2,0.2-0.4,0.5-0.4,0.9
			c0,0.1,0,0.2,0,0.3s0.1,0.2,0.1,0.3s0.1,0.2,0.2,0.2c0,0.1,0.1,0.1,0.3,0.2c0.1,0.1,0.2,0.2,0.3,0.2c0,0,0.2,0.1,0.3,0.2
			c0.2,0.1,0.3,0.2,0.3,0.2c0.2,0.1,0.5,0.3,0.8,0.5c0.5,0.4,0.8,0.9,0.8,1.6c0,0.5-0.2,0.9-0.5,1.3c-0.4,0.3-0.8,0.5-1.3,0.5
			c-0.5,0-1-0.2-1.4-0.5c-0.4-0.3-0.5-0.8-0.5-1.3v-0.2h0.5v0.2c0,0.4,0.1,0.7,0.4,0.9s0.6,0.4,1,0.4c0.4,0,0.7-0.1,1-0.4
			s0.4-0.5,0.4-0.9c0-0.4-0.1-0.7-0.3-0.9c-0.2-0.3-0.5-0.5-0.8-0.7c0,0-0.2-0.1-0.3-0.2c-0.2-0.1-0.3-0.2-0.4-0.2
			c-0.1,0-0.2-0.1-0.3-0.2c-0.2-0.1-0.3-0.2-0.3-0.2c-0.1-0.1-0.2-0.1-0.3-0.3c-0.1-0.1-0.2-0.2-0.2-0.3s-0.1-0.2-0.1-0.4
			s-0.1-0.3-0.1-0.5c0-0.5,0.2-0.9,0.5-1.3c0.4-0.3,0.8-0.5,1.3-0.5c0.5,0,0.9,0.2,1.3,0.5C47.6,371,47.8,371.4,47.8,372z"/>
		<path class="st1" d="M51.9,370.8h-1.6v-0.5H54v0.5h-1.6v6.2H54v0.5h-3.7V377h1.6V370.8z"/>
		<path class="st1" d="M64.5,377.5h-0.6c0-0.6,0.1-1.2,0.3-1.9c0.2-0.7,0.4-1.3,0.6-1.9c0.2-0.5,0.4-1,0.6-1.6
			c0.2-0.5,0.3-0.9,0.3-1.2h-2.8v-0.5h3.4v0.6c0,0.3-0.1,0.7-0.3,1.2c-0.2,0.6-0.4,1.2-0.6,1.7c-0.2,0.6-0.4,1.2-0.6,1.9
			C64.6,376.3,64.5,376.9,64.5,377.5z"/>
	</g>
	<g>
		<path class="st1" d="M1098.8,347.3h-0.5c0-0.4-0.1-0.7-0.4-0.9s-0.5-0.4-0.9-0.4c-0.3,0-0.6,0.1-0.9,0.4c-0.2,0.2-0.4,0.5-0.4,0.9
			c0,0.1,0,0.2,0,0.3s0.1,0.2,0.1,0.3c0.1,0.1,0.1,0.2,0.2,0.2s0.1,0.1,0.3,0.2s0.2,0.2,0.3,0.2c0,0,0.2,0.1,0.3,0.2
			c0.2,0.1,0.3,0.2,0.3,0.2c0.2,0.1,0.5,0.3,0.8,0.5c0.5,0.4,0.8,0.9,0.8,1.6c0,0.5-0.2,0.9-0.5,1.3c-0.4,0.3-0.8,0.5-1.3,0.5
			c-0.5,0-1-0.2-1.4-0.5c-0.4-0.3-0.5-0.8-0.5-1.3v-0.2h0.5v0.2c0,0.4,0.1,0.7,0.4,0.9s0.6,0.4,1,0.4c0.4,0,0.7-0.1,1-0.4
			c0.3-0.2,0.4-0.5,0.4-0.9c0-0.4-0.1-0.7-0.3-0.9c-0.2-0.3-0.5-0.5-0.8-0.7c0,0-0.2-0.1-0.3-0.2c-0.2-0.1-0.3-0.2-0.4-0.2
			c-0.1,0-0.2-0.1-0.3-0.2c-0.2-0.1-0.3-0.2-0.3-0.2c-0.1-0.1-0.2-0.1-0.3-0.3c-0.1-0.1-0.2-0.2-0.2-0.3s-0.1-0.2-0.1-0.4
			s-0.1-0.3-0.1-0.5c0-0.5,0.2-0.9,0.5-1.3c0.4-0.3,0.8-0.5,1.3-0.5c0.5,0,0.9,0.2,1.3,0.5C1098.6,346.3,1098.8,346.8,1098.8,347.3z
			"/>
		<path class="st1" d="M1101.8,349.2v2c0,0.3,0.1,0.6,0.4,0.9c0.2,0.2,0.6,0.3,0.9,0.3c0.4,0,0.7-0.1,0.9-0.3
			c0.2-0.2,0.4-0.5,0.4-0.8h0.5c0,0.5-0.2,0.8-0.5,1.2c-0.3,0.3-0.7,0.5-1.2,0.5c-0.5,0-1-0.2-1.3-0.5c-0.3-0.3-0.5-0.7-0.5-1.2v-2
			c0-0.5,0.2-0.9,0.5-1.2c0.3-0.3,0.8-0.5,1.3-0.5c0.5,0,0.9,0.2,1.2,0.5c0.3,0.3,0.5,0.7,0.5,1.1h-0.5c0-0.3-0.1-0.6-0.4-0.8
			c-0.2-0.2-0.5-0.3-0.9-0.3c-0.4,0-0.7,0.1-0.9,0.3C1102,348.6,1101.8,348.9,1101.8,349.2z"/>
		<path class="st1" d="M1116.3,351.2h-2.8v-0.6l2.3-4.9h0.6l-2.4,5.1h2.2v-2h0.6v2h0.6v0.5h-0.6v1.6h-0.6V351.2z"/>
		<path class="st1" d="M1098.8,359.6h-0.5c0-0.4-0.1-0.7-0.4-0.9s-0.5-0.4-0.9-0.4c-0.3,0-0.6,0.1-0.9,0.4c-0.2,0.2-0.4,0.5-0.4,0.9
			c0,0.1,0,0.2,0,0.3c0,0.1,0.1,0.2,0.1,0.3c0.1,0.1,0.1,0.2,0.2,0.2c0,0.1,0.1,0.1,0.3,0.2c0.1,0.1,0.2,0.2,0.3,0.2
			c0,0,0.2,0.1,0.3,0.2s0.3,0.2,0.3,0.2c0.2,0.1,0.5,0.3,0.8,0.5c0.5,0.4,0.8,0.9,0.8,1.6c0,0.5-0.2,0.9-0.5,1.3
			c-0.4,0.3-0.8,0.5-1.3,0.5c-0.5,0-1-0.2-1.4-0.5c-0.4-0.3-0.5-0.8-0.5-1.3v-0.2h0.5v0.2c0,0.4,0.1,0.7,0.4,0.9
			c0.3,0.3,0.6,0.4,1,0.4c0.4,0,0.7-0.1,1-0.4c0.3-0.2,0.4-0.5,0.4-0.9c0-0.4-0.1-0.7-0.3-0.9c-0.2-0.3-0.5-0.5-0.8-0.7
			c0,0-0.2-0.1-0.3-0.2c-0.2-0.1-0.3-0.2-0.4-0.2c-0.1,0-0.2-0.1-0.3-0.2c-0.2-0.1-0.3-0.2-0.3-0.2c-0.1-0.1-0.2-0.1-0.3-0.3
			c-0.1-0.1-0.2-0.2-0.2-0.3c0-0.1-0.1-0.2-0.1-0.4c0-0.1-0.1-0.3-0.1-0.5c0-0.5,0.2-0.9,0.5-1.3c0.4-0.3,0.8-0.5,1.3-0.5
			c0.5,0,0.9,0.2,1.3,0.5C1098.6,358.7,1098.8,359.1,1098.8,359.6z"/>
		<path class="st1" d="M1104.4,363.6h0.5c0,0.5-0.2,0.9-0.5,1.2c-0.3,0.3-0.7,0.4-1.3,0.4c-0.5,0-1-0.2-1.3-0.5
			c-0.3-0.3-0.5-0.7-0.5-1.1v-2.2c0-0.5,0.2-0.8,0.5-1.1c0.3-0.3,0.8-0.5,1.3-0.5c0.5,0,1,0.2,1.3,0.5c0.3,0.3,0.5,0.7,0.5,1.1v1.2
			h-3.1v0.9c0,0.4,0.1,0.7,0.4,0.9s0.6,0.3,0.9,0.3s0.7-0.1,0.9-0.3C1104.3,364.3,1104.4,364,1104.4,363.6z M1101.8,361.6v0.7h2.6
			v-0.7c0-0.4-0.1-0.7-0.4-0.9c-0.2-0.2-0.6-0.3-0.9-0.3c-0.4,0-0.7,0.1-0.9,0.3C1102,360.9,1101.8,361.2,1101.8,361.6z"/>
		<path class="st1" d="M1107.8,367h-0.5l3.5-9.1h0.5L1107.8,367z"/>
		<path class="st1" d="M1115.5,361.3l1.3-3.4h0.7v7.2h-0.5v-5.8l0-0.6l0,0l-1.3,3.1h-0.5l-1.3-3.1l0,0l0,0.6v5.8h-0.5v-7.2h0.7
			L1115.5,361.3z"/>
		<path class="st1" d="M1098.8,372h-0.5c0-0.4-0.1-0.7-0.4-0.9s-0.5-0.4-0.9-0.4c-0.3,0-0.6,0.1-0.9,0.4c-0.2,0.2-0.4,0.5-0.4,0.9
			c0,0.1,0,0.2,0,0.3s0.1,0.2,0.1,0.3c0.1,0.1,0.1,0.2,0.2,0.2s0.1,0.1,0.3,0.2s0.2,0.2,0.3,0.2c0,0,0.2,0.1,0.3,0.2
			c0.2,0.1,0.3,0.2,0.3,0.2c0.2,0.1,0.5,0.3,0.8,0.5c0.5,0.4,0.8,0.9,0.8,1.6c0,0.5-0.2,0.9-0.5,1.3c-0.4,0.3-0.8,0.5-1.3,0.5
			c-0.5,0-1-0.2-1.4-0.5c-0.4-0.3-0.5-0.8-0.5-1.3v-0.2h0.5v0.2c0,0.4,0.1,0.7,0.4,0.9s0.6,0.4,1,0.4c0.4,0,0.7-0.1,1-0.4
			c0.3-0.2,0.4-0.5,0.4-0.9c0-0.4-0.1-0.7-0.3-0.9c-0.2-0.3-0.5-0.5-0.8-0.7c0,0-0.2-0.1-0.3-0.2c-0.2-0.1-0.3-0.2-0.4-0.2
			c-0.1,0-0.2-0.1-0.3-0.2c-0.2-0.1-0.3-0.2-0.3-0.2c-0.1-0.1-0.2-0.1-0.3-0.3c-0.1-0.1-0.2-0.2-0.2-0.3s-0.1-0.2-0.1-0.4
			s-0.1-0.3-0.1-0.5c0-0.5,0.2-0.9,0.5-1.3c0.4-0.3,0.8-0.5,1.3-0.5c0.5,0,0.9,0.2,1.3,0.5C1098.6,371,1098.8,371.4,1098.8,372z"/>
		<path class="st1" d="M1102.9,370.8h-1.6v-0.5h3.7v0.5h-1.6v6.2h1.6v0.5h-3.7V377h1.6V370.8z"/>
		<path class="st1" d="M1115.5,377.5h-0.6c0-0.6,0.1-1.2,0.3-1.9c0.2-0.7,0.4-1.3,0.6-1.9c0.2-0.5,0.4-1,0.6-1.6
			c0.2-0.5,0.3-0.9,0.3-1.2h-2.8v-0.5h3.4v0.6c0,0.3-0.1,0.7-0.3,1.2c-0.2,0.6-0.4,1.2-0.6,1.7c-0.2,0.6-0.4,1.2-0.6,1.9
			C1115.6,376.3,1115.5,376.9,1115.5,377.5z"/>
	</g>
	<g>
		<path class="st1" d="M412.6,49.3h-0.5c0-0.4-0.1-0.7-0.4-0.9s-0.5-0.4-0.9-0.4c-0.3,0-0.6,0.1-0.9,0.4c-0.2,0.2-0.4,0.5-0.4,0.9
			c0,0.1,0,0.2,0,0.3c0,0.1,0.1,0.2,0.1,0.3c0.1,0.1,0.1,0.2,0.2,0.2c0,0.1,0.1,0.1,0.3,0.2c0.1,0.1,0.2,0.2,0.3,0.2
			c0,0,0.2,0.1,0.3,0.2c0.2,0.1,0.3,0.2,0.3,0.2c0.2,0.1,0.5,0.3,0.8,0.5c0.5,0.4,0.8,0.9,0.8,1.6c0,0.5-0.2,0.9-0.5,1.3
			c-0.4,0.3-0.8,0.5-1.3,0.5c-0.5,0-1-0.2-1.4-0.5c-0.4-0.3-0.5-0.8-0.5-1.3v-0.2h0.5v0.2c0,0.4,0.1,0.7,0.4,0.9
			c0.3,0.3,0.6,0.4,1,0.4c0.4,0,0.7-0.1,1-0.4s0.4-0.5,0.4-0.9c0-0.4-0.1-0.7-0.3-0.9s-0.5-0.5-0.8-0.7c0,0-0.2-0.1-0.3-0.2
			c-0.2-0.1-0.3-0.2-0.4-0.2c-0.1,0-0.2-0.1-0.3-0.2s-0.3-0.2-0.3-0.2c-0.1-0.1-0.2-0.1-0.3-0.3c-0.1-0.1-0.2-0.2-0.2-0.3
			c0-0.1-0.1-0.2-0.1-0.4c0-0.1-0.1-0.3-0.1-0.5c0-0.5,0.2-0.9,0.5-1.3c0.4-0.3,0.8-0.5,1.3-0.5c0.5,0,0.9,0.2,1.3,0.5
			C412.4,48.3,412.6,48.8,412.6,49.3z"/>
		<path class="st1" d="M415.6,51.2v2c0,0.3,0.1,0.6,0.4,0.9s0.6,0.3,0.9,0.3c0.4,0,0.7-0.1,0.9-0.3c0.2-0.2,0.4-0.5,0.4-0.8h0.5
			c0,0.5-0.2,0.8-0.5,1.2c-0.3,0.3-0.7,0.5-1.2,0.5c-0.5,0-1-0.2-1.3-0.5c-0.3-0.3-0.5-0.7-0.5-1.2v-2c0-0.5,0.2-0.9,0.5-1.2
			c0.3-0.3,0.8-0.5,1.3-0.5c0.5,0,0.9,0.2,1.2,0.5c0.3,0.3,0.5,0.7,0.5,1.1h-0.5c0-0.3-0.1-0.6-0.4-0.8s-0.5-0.3-0.9-0.3
			c-0.4,0-0.7,0.1-0.9,0.3C415.8,50.6,415.6,50.9,415.6,51.2z"/>
		<path class="st1" d="M430.1,53.2h-2.8v-0.6l2.3-4.9h0.6l-2.4,5.1h2.2v-2h0.6v2h0.6v0.5h-0.6v1.6h-0.6V53.2z"/>
		<path class="st1" d="M412.6,61.6h-0.5c0-0.4-0.1-0.7-0.4-0.9s-0.5-0.4-0.9-0.4c-0.3,0-0.6,0.1-0.9,0.4c-0.2,0.2-0.4,0.5-0.4,0.9
			c0,0.1,0,0.2,0,0.3c0,0.1,0.1,0.2,0.1,0.3c0.1,0.1,0.1,0.2,0.2,0.2c0,0.1,0.1,0.1,0.3,0.2c0.1,0.1,0.2,0.2,0.3,0.2
			c0,0,0.2,0.1,0.3,0.2c0.2,0.1,0.3,0.2,0.3,0.2c0.2,0.1,0.5,0.3,0.8,0.5c0.5,0.4,0.8,0.9,0.8,1.6c0,0.5-0.2,0.9-0.5,1.3
			c-0.4,0.3-0.8,0.5-1.3,0.5c-0.5,0-1-0.2-1.4-0.5c-0.4-0.3-0.5-0.8-0.5-1.3v-0.2h0.5v0.2c0,0.4,0.1,0.7,0.4,0.9
			c0.3,0.3,0.6,0.4,1,0.4c0.4,0,0.7-0.1,1-0.4s0.4-0.5,0.4-0.9c0-0.4-0.1-0.7-0.3-0.9s-0.5-0.5-0.8-0.7c0,0-0.2-0.1-0.3-0.2
			c-0.2-0.1-0.3-0.2-0.4-0.2c-0.1,0-0.2-0.1-0.3-0.2s-0.3-0.2-0.3-0.2c-0.1-0.1-0.2-0.1-0.3-0.3c-0.1-0.1-0.2-0.2-0.2-0.3
			c0-0.1-0.1-0.2-0.1-0.4c0-0.1-0.1-0.3-0.1-0.5c0-0.5,0.2-0.9,0.5-1.3c0.4-0.3,0.8-0.5,1.3-0.5c0.5,0,0.9,0.2,1.3,0.5
			C412.4,60.7,412.6,61.1,412.6,61.6z"/>
		<path class="st1" d="M418.2,65.6h0.5c0,0.5-0.2,0.9-0.5,1.2s-0.7,0.4-1.3,0.4c-0.5,0-1-0.2-1.3-0.5c-0.3-0.3-0.5-0.7-0.5-1.1v-2.2
			c0-0.5,0.2-0.8,0.5-1.1c0.3-0.3,0.8-0.5,1.3-0.5c0.5,0,1,0.2,1.3,0.5c0.3,0.3,0.5,0.7,0.5,1.1v1.2h-3.1v0.9c0,0.4,0.1,0.7,0.4,0.9
			s0.6,0.3,0.9,0.3c0.4,0,0.7-0.1,0.9-0.3S418.2,66,418.2,65.6z M415.6,63.6v0.7h2.6v-0.7c0-0.4-0.1-0.7-0.4-0.9
			c-0.2-0.2-0.6-0.3-0.9-0.3c-0.4,0-0.7,0.1-0.9,0.3C415.7,62.9,415.6,63.2,415.6,63.6z"/>
		<path class="st1" d="M421.6,69h-0.5l3.5-9.1h0.5L421.6,69z"/>
		<path class="st1" d="M429.3,63.3l1.3-3.4h0.7v7.2h-0.5v-5.8l0-0.6l0,0l-1.3,3.1H429l-1.3-3.1l0,0l0,0.6v5.8h-0.5v-7.2h0.7
			L429.3,63.3z"/>
		<path class="st1" d="M412.6,74h-0.5c0-0.4-0.1-0.7-0.4-0.9s-0.5-0.4-0.9-0.4c-0.3,0-0.6,0.1-0.9,0.4c-0.2,0.2-0.4,0.5-0.4,0.9
			c0,0.1,0,0.2,0,0.3c0,0.1,0.1,0.2,0.1,0.3c0.1,0.1,0.1,0.2,0.2,0.2c0,0.1,0.1,0.1,0.3,0.2c0.1,0.1,0.2,0.2,0.3,0.2
			c0,0,0.2,0.1,0.3,0.2c0.2,0.1,0.3,0.2,0.3,0.2c0.2,0.1,0.5,0.3,0.8,0.5c0.5,0.4,0.8,0.9,0.8,1.6c0,0.5-0.2,0.9-0.5,1.3
			c-0.4,0.3-0.8,0.5-1.3,0.5c-0.5,0-1-0.2-1.4-0.5c-0.4-0.3-0.5-0.8-0.5-1.3v-0.2h0.5v0.2c0,0.4,0.1,0.7,0.4,0.9
			c0.3,0.3,0.6,0.4,1,0.4c0.4,0,0.7-0.1,1-0.4s0.4-0.5,0.4-0.9c0-0.4-0.1-0.7-0.3-0.9s-0.5-0.5-0.8-0.7c0,0-0.2-0.1-0.3-0.2
			c-0.2-0.1-0.3-0.2-0.4-0.2c-0.1,0-0.2-0.1-0.3-0.2s-0.3-0.2-0.3-0.2c-0.1-0.1-0.2-0.1-0.3-0.3c-0.1-0.1-0.2-0.2-0.2-0.3
			c0-0.1-0.1-0.2-0.1-0.4c0-0.1-0.1-0.3-0.1-0.5c0-0.5,0.2-0.9,0.5-1.3c0.4-0.3,0.8-0.5,1.3-0.5c0.5,0,0.9,0.2,1.3,0.5
			C412.4,73,412.6,73.4,412.6,74z"/>
		<path class="st1" d="M416.7,72.8h-1.6v-0.5h3.7v0.5h-1.6V79h1.6v0.5h-3.7V79h1.6V72.8z"/>
		<path class="st1" d="M429.3,79.5h-0.6c0-0.6,0.1-1.2,0.3-1.9s0.4-1.3,0.6-1.9c0.2-0.5,0.4-1,0.6-1.6c0.2-0.5,0.3-0.9,0.3-1.2h-2.8
			v-0.5h3.4v0.6c0,0.3-0.1,0.7-0.3,1.2c-0.2,0.6-0.4,1.2-0.6,1.7c-0.2,0.6-0.4,1.2-0.6,1.9C429.4,78.3,429.3,78.9,429.3,79.5z"/>
	</g>
	<g>
		<path class="st1" d="M638.4,96.1V89h0.5v6.7h3v0.5H638.4z"/>
	</g>
	<g>
		<path class="st1" d="M1033.3,315.5h-0.6l-1.1-2.7h-1.2v2.7h-0.5v-7.2h1.7c0.5,0,0.9,0.1,1.2,0.4c0.3,0.3,0.4,0.6,0.4,1.1v1.4
			c0,0.3-0.1,0.6-0.3,0.9c-0.2,0.3-0.4,0.4-0.7,0.5L1033.3,315.5z M1032.6,311.3v-1.5c0-0.3-0.1-0.5-0.3-0.7s-0.5-0.3-0.8-0.3h-1.2
			v3.4h1.3c0.3,0,0.5-0.1,0.7-0.3C1032.5,311.8,1032.6,311.6,1032.6,311.3z"/>
	</g>
	<g>
		<path class="st1" d="M495.9,315.5h-0.6l-1.1-2.7h-1.2v2.7h-0.5v-7.2h1.7c0.5,0,0.9,0.1,1.2,0.4c0.3,0.3,0.4,0.6,0.4,1.1v1.4
			c0,0.3-0.1,0.6-0.3,0.9s-0.4,0.4-0.7,0.5L495.9,315.5z M495.2,311.3v-1.5c0-0.3-0.1-0.5-0.3-0.7s-0.5-0.3-0.8-0.3h-1.2v3.4h1.3
			c0.3,0,0.5-0.1,0.7-0.3C495.1,311.8,495.2,311.6,495.2,311.3z"/>
	</g>
	<g>
		<path class="st1" d="M986.7,96.1V89h0.5v6.7h3v0.5H986.7z"/>
	</g>
	<g>
		<path class="st1" d="M181.9,96.1V89h0.5v6.7h3v0.5H181.9z"/>
	</g>
	<g>
		<path class="st1" d="M745.5,49.3H745c0-0.4-0.1-0.7-0.4-0.9s-0.5-0.4-0.9-0.4c-0.3,0-0.6,0.1-0.9,0.4c-0.2,0.2-0.4,0.5-0.4,0.9
			c0,0.1,0,0.2,0,0.3c0,0.1,0.1,0.2,0.1,0.3c0.1,0.1,0.1,0.2,0.2,0.2c0,0.1,0.1,0.1,0.3,0.2c0.1,0.1,0.2,0.2,0.3,0.2
			c0,0,0.2,0.1,0.3,0.2c0.2,0.1,0.3,0.2,0.3,0.2c0.2,0.1,0.5,0.3,0.8,0.5c0.5,0.4,0.8,0.9,0.8,1.6c0,0.5-0.2,0.9-0.5,1.3
			c-0.4,0.3-0.8,0.5-1.3,0.5c-0.5,0-1-0.2-1.4-0.5c-0.4-0.3-0.5-0.8-0.5-1.3v-0.2h0.5v0.2c0,0.4,0.1,0.7,0.4,0.9
			c0.3,0.3,0.6,0.4,1,0.4c0.4,0,0.7-0.1,1-0.4c0.3-0.2,0.4-0.5,0.4-0.9c0-0.4-0.1-0.7-0.3-0.9c-0.2-0.3-0.5-0.5-0.8-0.7
			c0,0-0.2-0.1-0.3-0.2c-0.2-0.1-0.3-0.2-0.4-0.2c-0.1,0-0.2-0.1-0.3-0.2c-0.2-0.1-0.3-0.2-0.3-0.2c-0.1-0.1-0.2-0.1-0.3-0.3
			c-0.1-0.1-0.2-0.2-0.2-0.3c0-0.1-0.1-0.2-0.1-0.4c0-0.1-0.1-0.3-0.1-0.5c0-0.5,0.2-0.9,0.5-1.3c0.4-0.3,0.8-0.5,1.3-0.5
			c0.5,0,0.9,0.2,1.3,0.5C745.3,48.3,745.5,48.8,745.5,49.3z"/>
		<path class="st1" d="M748.6,51.2v2c0,0.3,0.1,0.6,0.4,0.9s0.6,0.3,0.9,0.3c0.4,0,0.7-0.1,0.9-0.3c0.2-0.2,0.4-0.5,0.4-0.8h0.5
			c0,0.5-0.2,0.8-0.5,1.2c-0.3,0.3-0.7,0.5-1.2,0.5c-0.5,0-1-0.2-1.3-0.5c-0.3-0.3-0.5-0.7-0.5-1.2v-2c0-0.5,0.2-0.9,0.5-1.2
			c0.3-0.3,0.8-0.5,1.3-0.5c0.5,0,0.9,0.2,1.2,0.5c0.3,0.3,0.5,0.7,0.5,1.1h-0.5c0-0.3-0.1-0.6-0.4-0.8s-0.5-0.3-0.9-0.3
			c-0.4,0-0.7,0.1-0.9,0.3C748.7,50.6,748.6,50.9,748.6,51.2z"/>
		<path class="st1" d="M763,53.2h-2.8v-0.6l2.3-4.9h0.6l-2.4,5.1h2.2v-2h0.6v2h0.6v0.5h-0.6v1.6H763V53.2z"/>
		<path class="st1" d="M745.5,61.6H745c0-0.4-0.1-0.7-0.4-0.9s-0.5-0.4-0.9-0.4c-0.3,0-0.6,0.1-0.9,0.4c-0.2,0.2-0.4,0.5-0.4,0.9
			c0,0.1,0,0.2,0,0.3c0,0.1,0.1,0.2,0.1,0.3c0.1,0.1,0.1,0.2,0.2,0.2c0,0.1,0.1,0.1,0.3,0.2c0.1,0.1,0.2,0.2,0.3,0.2
			c0,0,0.2,0.1,0.3,0.2c0.2,0.1,0.3,0.2,0.3,0.2c0.2,0.1,0.5,0.3,0.8,0.5c0.5,0.4,0.8,0.9,0.8,1.6c0,0.5-0.2,0.9-0.5,1.3
			c-0.4,0.3-0.8,0.5-1.3,0.5c-0.5,0-1-0.2-1.4-0.5c-0.4-0.3-0.5-0.8-0.5-1.3v-0.2h0.5v0.2c0,0.4,0.1,0.7,0.4,0.9
			c0.3,0.3,0.6,0.4,1,0.4c0.4,0,0.7-0.1,1-0.4c0.3-0.2,0.4-0.5,0.4-0.9c0-0.4-0.1-0.7-0.3-0.9c-0.2-0.3-0.5-0.5-0.8-0.7
			c0,0-0.2-0.1-0.3-0.2c-0.2-0.1-0.3-0.2-0.4-0.2c-0.1,0-0.2-0.1-0.3-0.2c-0.2-0.1-0.3-0.2-0.3-0.2c-0.1-0.1-0.2-0.1-0.3-0.3
			c-0.1-0.1-0.2-0.2-0.2-0.3c0-0.1-0.1-0.2-0.1-0.4c0-0.1-0.1-0.3-0.1-0.5c0-0.5,0.2-0.9,0.5-1.3c0.4-0.3,0.8-0.5,1.3-0.5
			c0.5,0,0.9,0.2,1.3,0.5C745.3,60.7,745.5,61.1,745.5,61.6z"/>
		<path class="st1" d="M751.2,65.6h0.5c0,0.5-0.2,0.9-0.5,1.2s-0.7,0.4-1.3,0.4c-0.5,0-1-0.2-1.3-0.5c-0.3-0.3-0.5-0.7-0.5-1.1v-2.2
			c0-0.5,0.2-0.8,0.5-1.1c0.3-0.3,0.8-0.5,1.3-0.5c0.5,0,1,0.2,1.3,0.5c0.3,0.3,0.5,0.7,0.5,1.1v1.2h-3.1v0.9c0,0.4,0.1,0.7,0.4,0.9
			s0.6,0.3,0.9,0.3c0.4,0,0.7-0.1,0.9-0.3C751,66.3,751.1,66,751.2,65.6z M748.6,63.6v0.7h2.6v-0.7c0-0.4-0.1-0.7-0.4-0.9
			c-0.2-0.2-0.6-0.3-0.9-0.3c-0.4,0-0.7,0.1-0.9,0.3C748.7,62.9,748.6,63.2,748.6,63.6z"/>
		<path class="st1" d="M754.5,69H754l3.5-9.1h0.5L754.5,69z"/>
		<path class="st1" d="M762.2,63.3l1.3-3.4h0.7v7.2h-0.5v-5.8l0-0.6l0,0l-1.3,3.1h-0.5l-1.3-3.1l0,0l0,0.6v5.8h-0.5v-7.2h0.7
			L762.2,63.3z"/>
		<path class="st1" d="M745.5,74H745c0-0.4-0.1-0.7-0.4-0.9s-0.5-0.4-0.9-0.4c-0.3,0-0.6,0.1-0.9,0.4c-0.2,0.2-0.4,0.5-0.4,0.9
			c0,0.1,0,0.2,0,0.3c0,0.1,0.1,0.2,0.1,0.3c0.1,0.1,0.1,0.2,0.2,0.2c0,0.1,0.1,0.1,0.3,0.2c0.1,0.1,0.2,0.2,0.3,0.2
			c0,0,0.2,0.1,0.3,0.2c0.2,0.1,0.3,0.2,0.3,0.2c0.2,0.1,0.5,0.3,0.8,0.5c0.5,0.4,0.8,0.9,0.8,1.6c0,0.5-0.2,0.9-0.5,1.3
			c-0.4,0.3-0.8,0.5-1.3,0.5c-0.5,0-1-0.2-1.4-0.5c-0.4-0.3-0.5-0.8-0.5-1.3v-0.2h0.5v0.2c0,0.4,0.1,0.7,0.4,0.9
			c0.3,0.3,0.6,0.4,1,0.4c0.4,0,0.7-0.1,1-0.4c0.3-0.2,0.4-0.5,0.4-0.9c0-0.4-0.1-0.7-0.3-0.9c-0.2-0.3-0.5-0.5-0.8-0.7
			c0,0-0.2-0.1-0.3-0.2c-0.2-0.1-0.3-0.2-0.4-0.2c-0.1,0-0.2-0.1-0.3-0.2c-0.2-0.1-0.3-0.2-0.3-0.2c-0.1-0.1-0.2-0.1-0.3-0.3
			c-0.1-0.1-0.2-0.2-0.2-0.3c0-0.1-0.1-0.2-0.1-0.4c0-0.1-0.1-0.3-0.1-0.5c0-0.5,0.2-0.9,0.5-1.3c0.4-0.3,0.8-0.5,1.3-0.5
			c0.5,0,0.9,0.2,1.3,0.5C745.3,73,745.5,73.4,745.5,74z"/>
		<path class="st1" d="M749.6,72.8H748v-0.5h3.7v0.5h-1.6V79h1.6v0.5H748V79h1.6V72.8z"/>
		<path class="st1" d="M762.2,79.5h-0.6c0-0.6,0.1-1.2,0.3-1.9c0.2-0.7,0.4-1.3,0.6-1.9c0.2-0.5,0.4-1,0.6-1.6
			c0.2-0.5,0.3-0.9,0.3-1.2h-2.8v-0.5h3.4v0.6c0,0.3-0.1,0.7-0.3,1.2c-0.2,0.6-0.4,1.2-0.6,1.7c-0.2,0.6-0.4,1.2-0.6,1.9
			C762.3,78.3,762.2,78.9,762.2,79.5z"/>
	</g>
	<g>
		<path class="st1" d="M1082.5,49.3h-0.5c0-0.4-0.1-0.7-0.4-0.9s-0.5-0.4-0.9-0.4c-0.3,0-0.6,0.1-0.9,0.4c-0.2,0.2-0.4,0.5-0.4,0.9
			c0,0.1,0,0.2,0,0.3c0,0.1,0.1,0.2,0.1,0.3c0.1,0.1,0.1,0.2,0.2,0.2c0,0.1,0.1,0.1,0.3,0.2c0.1,0.1,0.2,0.2,0.3,0.2
			c0,0,0.2,0.1,0.3,0.2c0.2,0.1,0.3,0.2,0.3,0.2c0.2,0.1,0.5,0.3,0.8,0.5c0.5,0.4,0.8,0.9,0.8,1.6c0,0.5-0.2,0.9-0.5,1.3
			c-0.4,0.3-0.8,0.5-1.3,0.5c-0.5,0-1-0.2-1.4-0.5c-0.4-0.3-0.5-0.8-0.5-1.3v-0.2h0.5v0.2c0,0.4,0.1,0.7,0.4,0.9
			c0.3,0.3,0.6,0.4,1,0.4c0.4,0,0.7-0.1,1-0.4c0.3-0.2,0.4-0.5,0.4-0.9c0-0.4-0.1-0.7-0.3-0.9s-0.5-0.5-0.8-0.7c0,0-0.2-0.1-0.3-0.2
			c-0.2-0.1-0.3-0.2-0.4-0.2c-0.1,0-0.2-0.1-0.3-0.2c-0.2-0.1-0.3-0.2-0.3-0.2c-0.1-0.1-0.2-0.1-0.3-0.3c-0.1-0.1-0.2-0.2-0.2-0.3
			c0-0.1-0.1-0.2-0.1-0.4c0-0.1-0.1-0.3-0.1-0.5c0-0.5,0.2-0.9,0.5-1.3c0.4-0.3,0.8-0.5,1.3-0.5c0.5,0,0.9,0.2,1.3,0.5
			C1082.4,48.3,1082.5,48.8,1082.5,49.3z"/>
		<path class="st1" d="M1085.6,51.2v2c0,0.3,0.1,0.6,0.4,0.9c0.2,0.2,0.6,0.3,0.9,0.3c0.4,0,0.7-0.1,0.9-0.3
			c0.2-0.2,0.4-0.5,0.4-0.8h0.5c0,0.5-0.2,0.8-0.5,1.2c-0.3,0.3-0.7,0.5-1.2,0.5c-0.5,0-1-0.2-1.3-0.5c-0.3-0.3-0.5-0.7-0.5-1.2v-2
			c0-0.5,0.2-0.9,0.5-1.2c0.3-0.3,0.8-0.5,1.3-0.5c0.5,0,0.9,0.2,1.2,0.5c0.3,0.3,0.5,0.7,0.5,1.1h-0.5c0-0.3-0.1-0.6-0.4-0.8
			s-0.5-0.3-0.9-0.3c-0.4,0-0.7,0.1-0.9,0.3C1085.7,50.6,1085.6,50.9,1085.6,51.2z"/>
		<path class="st1" d="M1100,53.2h-2.8v-0.6l2.3-4.9h0.6l-2.4,5.1h2.2v-2h0.6v2h0.6v0.5h-0.6v1.6h-0.6V53.2z"/>
		<path class="st1" d="M1082.5,61.6h-0.5c0-0.4-0.1-0.7-0.4-0.9s-0.5-0.4-0.9-0.4c-0.3,0-0.6,0.1-0.9,0.4c-0.2,0.2-0.4,0.5-0.4,0.9
			c0,0.1,0,0.2,0,0.3c0,0.1,0.1,0.2,0.1,0.3c0.1,0.1,0.1,0.2,0.2,0.2c0,0.1,0.1,0.1,0.3,0.2c0.1,0.1,0.2,0.2,0.3,0.2
			c0,0,0.2,0.1,0.3,0.2c0.2,0.1,0.3,0.2,0.3,0.2c0.2,0.1,0.5,0.3,0.8,0.5c0.5,0.4,0.8,0.9,0.8,1.6c0,0.5-0.2,0.9-0.5,1.3
			c-0.4,0.3-0.8,0.5-1.3,0.5c-0.5,0-1-0.2-1.4-0.5c-0.4-0.3-0.5-0.8-0.5-1.3v-0.2h0.5v0.2c0,0.4,0.1,0.7,0.4,0.9
			c0.3,0.3,0.6,0.4,1,0.4c0.4,0,0.7-0.1,1-0.4c0.3-0.2,0.4-0.5,0.4-0.9c0-0.4-0.1-0.7-0.3-0.9s-0.5-0.5-0.8-0.7c0,0-0.2-0.1-0.3-0.2
			c-0.2-0.1-0.3-0.2-0.4-0.2c-0.1,0-0.2-0.1-0.3-0.2c-0.2-0.1-0.3-0.2-0.3-0.2c-0.1-0.1-0.2-0.1-0.3-0.3c-0.1-0.1-0.2-0.2-0.2-0.3
			c0-0.1-0.1-0.2-0.1-0.4c0-0.1-0.1-0.3-0.1-0.5c0-0.5,0.2-0.9,0.5-1.3c0.4-0.3,0.8-0.5,1.3-0.5c0.5,0,0.9,0.2,1.3,0.5
			C1082.4,60.7,1082.5,61.1,1082.5,61.6z"/>
		<path class="st1" d="M1088.2,65.6h0.5c0,0.5-0.2,0.9-0.5,1.2c-0.3,0.3-0.7,0.4-1.3,0.4c-0.5,0-1-0.2-1.3-0.5
			c-0.3-0.3-0.5-0.7-0.5-1.1v-2.2c0-0.5,0.2-0.8,0.5-1.1c0.3-0.3,0.8-0.5,1.3-0.5c0.5,0,1,0.2,1.3,0.5c0.3,0.3,0.5,0.7,0.5,1.1v1.2
			h-3.1v0.9c0,0.4,0.1,0.7,0.4,0.9s0.6,0.3,0.9,0.3s0.7-0.1,0.9-0.3C1088,66.3,1088.2,66,1088.2,65.6z M1085.6,63.6v0.7h2.6v-0.7
			c0-0.4-0.1-0.7-0.4-0.9c-0.2-0.2-0.6-0.3-0.9-0.3c-0.4,0-0.7,0.1-0.9,0.3C1085.7,62.9,1085.6,63.2,1085.6,63.6z"/>
		<path class="st1" d="M1091.6,69h-0.5l3.5-9.1h0.5L1091.6,69z"/>
		<path class="st1" d="M1099.2,63.3l1.3-3.4h0.7v7.2h-0.5v-5.8l0-0.6l0,0l-1.3,3.1h-0.5l-1.3-3.1l0,0l0,0.6v5.8h-0.5v-7.2h0.7
			L1099.2,63.3z"/>
		<path class="st1" d="M1082.5,74h-0.5c0-0.4-0.1-0.7-0.4-0.9s-0.5-0.4-0.9-0.4c-0.3,0-0.6,0.1-0.9,0.4c-0.2,0.2-0.4,0.5-0.4,0.9
			c0,0.1,0,0.2,0,0.3c0,0.1,0.1,0.2,0.1,0.3c0.1,0.1,0.1,0.2,0.2,0.2c0,0.1,0.1,0.1,0.3,0.2c0.1,0.1,0.2,0.2,0.3,0.2
			c0,0,0.2,0.1,0.3,0.2c0.2,0.1,0.3,0.2,0.3,0.2c0.2,0.1,0.5,0.3,0.8,0.5c0.5,0.4,0.8,0.9,0.8,1.6c0,0.5-0.2,0.9-0.5,1.3
			c-0.4,0.3-0.8,0.5-1.3,0.5c-0.5,0-1-0.2-1.4-0.5c-0.4-0.3-0.5-0.8-0.5-1.3v-0.2h0.5v0.2c0,0.4,0.1,0.7,0.4,0.9
			c0.3,0.3,0.6,0.4,1,0.4c0.4,0,0.7-0.1,1-0.4c0.3-0.2,0.4-0.5,0.4-0.9c0-0.4-0.1-0.7-0.3-0.9s-0.5-0.5-0.8-0.7c0,0-0.2-0.1-0.3-0.2
			c-0.2-0.1-0.3-0.2-0.4-0.2c-0.1,0-0.2-0.1-0.3-0.2c-0.2-0.1-0.3-0.2-0.3-0.2c-0.1-0.1-0.2-0.1-0.3-0.3c-0.1-0.1-0.2-0.2-0.2-0.3
			c0-0.1-0.1-0.2-0.1-0.4c0-0.1-0.1-0.3-0.1-0.5c0-0.5,0.2-0.9,0.5-1.3c0.4-0.3,0.8-0.5,1.3-0.5c0.5,0,0.9,0.2,1.3,0.5
			C1082.4,73,1082.5,73.4,1082.5,74z"/>
		<path class="st1" d="M1086.6,72.8h-1.6v-0.5h3.7v0.5h-1.6V79h1.6v0.5h-3.7V79h1.6V72.8z"/>
		<path class="st1" d="M1099.2,79.5h-0.6c0-0.6,0.1-1.2,0.3-1.9s0.4-1.3,0.6-1.9c0.2-0.5,0.4-1,0.6-1.6c0.2-0.5,0.3-0.9,0.3-1.2
			h-2.8v-0.5h3.4v0.6c0,0.3-0.1,0.7-0.3,1.2c-0.2,0.6-0.4,1.2-0.6,1.7c-0.2,0.6-0.4,1.2-0.6,1.9
			C1099.3,78.3,1099.3,78.9,1099.2,79.5z"/>
	</g>
	<g>
		<path class="st1" d="M326.1,307v-7.2h3.2v0.5h-2.7v2.7h2.6v0.5h-2.6v3.6H326.1z"/>
		<path class="st1" d="M335.6,301.5v3.8c0,0.5-0.2,0.9-0.5,1.3c-0.4,0.3-0.8,0.5-1.4,0.5c-0.5,0-1-0.2-1.4-0.5
			c-0.4-0.3-0.5-0.8-0.5-1.3v-3.8c0-0.5,0.2-0.9,0.5-1.3c0.4-0.3,0.8-0.5,1.4-0.5c0.6,0,1,0.2,1.4,0.5
			C335.4,300.6,335.6,301,335.6,301.5z M335.1,305.3v-3.8c0-0.4-0.1-0.7-0.4-0.9s-0.6-0.4-1-0.4c-0.4,0-0.7,0.1-1,0.4
			s-0.4,0.6-0.4,0.9v3.8c0,0.4,0.1,0.7,0.4,0.9c0.3,0.2,0.6,0.4,1,0.4s0.7-0.1,1-0.4S335.1,305.7,335.1,305.3z"/>
		<path class="st1" d="M338,299.8h0.5v2.9l1.1,3.8h0.4l1.1-3.8v-2.9h0.5v2.8l-1.3,4.4h-1.1l-1.3-4.4V299.8z"/>
		<path class="st1" d="M350.9,301.5h-0.5c0-0.5,0.2-1,0.5-1.3c0.4-0.3,0.8-0.5,1.3-0.5s0.9,0.2,1.3,0.5c0.3,0.3,0.5,0.8,0.5,1.3
			c0,0.3-0.1,0.7-0.2,1c0,0.1-0.1,0.2-0.1,0.2c-0.1,0.1-0.1,0.2-0.2,0.2c-0.1,0.1-0.1,0.1-0.2,0.2c0,0.1-0.1,0.1-0.2,0.2
			c-0.1,0.1-0.2,0.1-0.2,0.2c0,0-0.1,0.1-0.2,0.2s-0.2,0.2-0.2,0.2c-0.3,0.2-0.5,0.5-0.8,0.7c-0.5,0.5-0.8,1-0.8,1.7v0.2h3.2v0.5
			h-3.7v-0.6c0-0.8,0.4-1.6,1.1-2.2c0.1-0.1,0.2-0.2,0.5-0.4s0.4-0.3,0.5-0.4c0.1-0.1,0.2-0.2,0.4-0.4c0.2-0.2,0.3-0.3,0.4-0.5
			c0.1-0.1,0.2-0.3,0.2-0.5s0.1-0.4,0.1-0.5c0-0.4-0.1-0.7-0.4-0.9c-0.2-0.2-0.5-0.4-0.9-0.4c-0.4,0-0.7,0.1-0.9,0.4
			C351.1,300.8,351,301.1,350.9,301.5z"/>
		<path class="st1" d="M358.4,307.1c-0.5,0-1-0.2-1.3-0.5c-0.4-0.4-0.5-0.8-0.5-1.3v0h0.5v0.1c0,0.4,0.1,0.7,0.4,0.9
			c0.3,0.3,0.6,0.4,0.9,0.4c0.4,0,0.7-0.1,0.9-0.4c0.3-0.3,0.4-0.6,0.4-0.9v-1.4c0-0.3-0.1-0.6-0.3-0.8c-0.2-0.2-0.4-0.3-0.8-0.3
			H358v-0.6l1.4-1.9h-2.5v-0.5h3.1v0.6l-1.4,1.9c0.4,0,0.8,0.1,1.1,0.4c0.3,0.3,0.5,0.7,0.5,1.2v1.4c0,0.5-0.2,0.9-0.5,1.3
			C359.3,306.9,358.9,307.1,358.4,307.1z"/>
		<path class="st1" d="M366.3,301.5v3.8c0,0.5-0.2,0.9-0.5,1.3c-0.3,0.3-0.8,0.5-1.2,0.5c-0.5,0-0.9-0.2-1.3-0.5
			c-0.3-0.4-0.5-0.8-0.5-1.3v-3.8c0-0.5,0.2-0.9,0.5-1.3c0.3-0.4,0.8-0.5,1.3-0.5c0.5,0,0.9,0.2,1.2,0.5
			C366.1,300.6,366.3,301,366.3,301.5z M365.8,305.3v-3.8c0-0.4-0.1-0.7-0.4-0.9c-0.2-0.3-0.5-0.4-0.9-0.4c-0.4,0-0.7,0.1-0.9,0.4
			s-0.4,0.6-0.4,1v3.8c0,0.4,0.1,0.7,0.3,0.9c0.2,0.3,0.5,0.4,0.9,0.4c0.3,0,0.6-0.1,0.9-0.4C365.6,306,365.8,305.7,365.8,305.3z"/>
		<path class="st1" d="M304.7,313.8h-0.5c0-0.4-0.1-0.7-0.4-0.9s-0.5-0.4-0.9-0.4c-0.3,0-0.6,0.1-0.9,0.4c-0.2,0.2-0.4,0.5-0.4,0.9
			c0,0.1,0,0.2,0,0.3s0.1,0.2,0.1,0.3c0.1,0.1,0.1,0.2,0.2,0.2s0.1,0.1,0.3,0.2c0.1,0.1,0.2,0.2,0.3,0.2c0,0,0.2,0.1,0.3,0.2
			c0.2,0.1,0.3,0.2,0.3,0.2c0.2,0.1,0.5,0.3,0.8,0.5c0.5,0.4,0.8,0.9,0.8,1.6c0,0.5-0.2,0.9-0.5,1.3c-0.4,0.3-0.8,0.5-1.3,0.5
			c-0.5,0-1-0.2-1.4-0.5c-0.4-0.3-0.5-0.8-0.5-1.3v-0.2h0.5v0.2c0,0.4,0.1,0.7,0.4,0.9c0.3,0.2,0.6,0.4,1,0.4c0.4,0,0.7-0.1,1-0.4
			s0.4-0.5,0.4-0.9c0-0.4-0.1-0.7-0.3-0.9c-0.2-0.3-0.5-0.5-0.8-0.7c0,0-0.2-0.1-0.3-0.2c-0.2-0.1-0.3-0.2-0.4-0.2
			c-0.1,0-0.2-0.1-0.3-0.2c-0.2-0.1-0.3-0.2-0.3-0.2c-0.1-0.1-0.2-0.1-0.3-0.3c-0.1-0.1-0.2-0.2-0.2-0.3s-0.1-0.2-0.1-0.4
			s-0.1-0.3-0.1-0.5c0-0.5,0.2-0.9,0.5-1.3c0.4-0.3,0.8-0.5,1.3-0.5c0.5,0,0.9,0.2,1.3,0.5C304.5,312.9,304.7,313.3,304.7,313.8z"/>
		<path class="st1" d="M307.5,319.3v-7.2h0.5v6.7h3v0.5H307.5z"/>
		<path class="st1" d="M314.9,312.6h-1.6v-0.5h3.7v0.5h-1.6v6.2h1.6v0.5h-3.7v-0.5h1.6V312.6z"/>
		<path class="st1" d="M322.7,317.6h0.5v0c0,0.5-0.2,0.9-0.5,1.3c-0.4,0.3-0.8,0.5-1.3,0.5c-0.5,0-0.9-0.2-1.3-0.5
			c-0.4-0.4-0.5-0.8-0.5-1.3v-3.8c0-0.5,0.2-0.9,0.5-1.3c0.3-0.3,0.8-0.5,1.3-0.5c0.5,0,0.9,0.2,1.3,0.5c0.3,0.3,0.5,0.8,0.5,1.3
			h-0.5c0-0.4-0.1-0.7-0.4-0.9c-0.3-0.3-0.6-0.4-0.9-0.4c-0.4,0-0.7,0.1-0.9,0.4s-0.4,0.6-0.4,0.9v3.8c0,0.4,0.1,0.7,0.4,0.9
			c0.3,0.3,0.6,0.4,0.9,0.4c0.4,0,0.7-0.1,0.9-0.4C322.6,318.3,322.7,318,322.7,317.6L322.7,317.6z"/>
		<path class="st1" d="M326,319.3v-7.2h3.2v0.5h-2.7v2.7h2.4v0.5h-2.4v3.1h2.8v0.5H326z"/>
		<path class="st1" d="M338.4,312.8v-0.5l1.2-0.2h0.6v6.7h1.5v0.5h-3.3v-0.5h1.4v-6.2L338.4,312.8z"/>
		<path class="st1" d="M346,312c0.5,0,0.9,0.2,1.3,0.5c0.3,0.3,0.5,0.7,0.5,1.2v0.1h-0.5c0-0.1,0-0.1,0-0.1c0-0.3-0.2-0.6-0.4-0.8
			c-0.2-0.2-0.5-0.3-0.8-0.3c-0.4,0-0.7,0.1-0.9,0.4c-0.2,0.3-0.4,0.6-0.4,0.9v1.4c0.1-0.1,0.2-0.2,0.2-0.2c0.3-0.3,0.7-0.5,1.2-0.5
			c0.5,0,0.9,0.2,1.3,0.5c0.4,0.3,0.5,0.8,0.5,1.3v1.2c0,0.5-0.2,0.9-0.5,1.3c-0.4,0.4-0.8,0.5-1.3,0.5c-0.5,0-1-0.2-1.3-0.5
			c-0.4-0.4-0.5-0.8-0.5-1.3v-3.8c0-0.5,0.2-0.9,0.5-1.3C345,312.2,345.5,312,346,312z M346.1,315.1c-0.4,0-0.7,0.1-1,0.4
			s-0.4,0.6-0.4,1v1.2c0,0.4,0.1,0.7,0.4,0.9c0.2,0.3,0.6,0.4,0.9,0.4c0.4,0,0.7-0.1,0.9-0.4c0.3-0.3,0.4-0.6,0.4-0.9v-1.2
			c0-0.4-0.1-0.7-0.4-1C346.7,315.2,346.4,315.1,346.1,315.1z"/>
		<path class="st1" d="M350.7,321.2h-0.5l3.5-9.1h0.5L350.7,321.2z"/>
		<path class="st1" d="M357.1,313.9h-0.5c0-0.5,0.2-1,0.5-1.3c0.4-0.3,0.8-0.5,1.3-0.5c0.5,0,0.9,0.2,1.3,0.5
			c0.3,0.3,0.5,0.8,0.5,1.3c0,0.3-0.1,0.7-0.2,1c0,0.1-0.1,0.2-0.1,0.2c-0.1,0.1-0.1,0.2-0.2,0.2s-0.1,0.1-0.2,0.2s-0.1,0.1-0.2,0.2
			c-0.1,0.1-0.2,0.1-0.2,0.2c0,0-0.1,0.1-0.2,0.2c-0.1,0.1-0.2,0.2-0.2,0.2c-0.3,0.2-0.5,0.5-0.8,0.7c-0.5,0.5-0.8,1-0.8,1.7v0.2
			h3.2v0.5h-3.7v-0.6c0-0.8,0.4-1.6,1.1-2.2c0.1-0.1,0.2-0.2,0.5-0.4c0.2-0.2,0.4-0.3,0.5-0.4c0.1-0.1,0.2-0.2,0.4-0.4
			s0.3-0.3,0.4-0.5c0.1-0.1,0.2-0.3,0.2-0.5c0.1-0.2,0.1-0.4,0.1-0.5c0-0.4-0.1-0.7-0.4-0.9c-0.2-0.2-0.5-0.4-0.9-0.4
			c-0.4,0-0.7,0.1-0.9,0.4C357.2,313.2,357.1,313.5,357.1,313.9z"/>
		<path class="st1" d="M366.3,313.9v3.8c0,0.5-0.2,0.9-0.5,1.3c-0.3,0.3-0.8,0.5-1.2,0.5c-0.5,0-0.9-0.2-1.3-0.5
			c-0.3-0.4-0.5-0.8-0.5-1.3v-3.8c0-0.5,0.2-0.9,0.5-1.3c0.3-0.4,0.8-0.5,1.3-0.5c0.5,0,0.9,0.2,1.2,0.5
			C366.1,312.9,366.3,313.4,366.3,313.9z M365.8,317.6v-3.8c0-0.4-0.1-0.7-0.4-0.9c-0.2-0.3-0.5-0.4-0.9-0.4c-0.4,0-0.7,0.1-0.9,0.4
			s-0.4,0.6-0.4,1v3.8c0,0.4,0.1,0.7,0.3,0.9c0.2,0.3,0.5,0.4,0.9,0.4c0.3,0,0.6-0.1,0.9-0.4C365.6,318.3,365.8,318,365.8,317.6z"/>
		<path class="st1" d="M286.2,326.2h-0.5c0-0.4-0.1-0.7-0.4-0.9s-0.5-0.4-0.9-0.4c-0.3,0-0.6,0.1-0.9,0.4c-0.2,0.2-0.4,0.5-0.4,0.9
			c0,0.1,0,0.2,0,0.3c0,0.1,0.1,0.2,0.1,0.3c0.1,0.1,0.1,0.2,0.2,0.2c0,0.1,0.1,0.1,0.3,0.2c0.1,0.1,0.2,0.2,0.3,0.2
			s0.2,0.1,0.3,0.2c0.2,0.1,0.3,0.2,0.3,0.2c0.2,0.1,0.5,0.3,0.8,0.5c0.5,0.4,0.8,0.9,0.8,1.6c0,0.5-0.2,0.9-0.5,1.3
			c-0.4,0.3-0.8,0.5-1.3,0.5c-0.5,0-1-0.2-1.4-0.5c-0.4-0.3-0.5-0.8-0.5-1.3v-0.2h0.5v0.2c0,0.4,0.1,0.7,0.4,0.9
			c0.3,0.3,0.6,0.4,1,0.4c0.4,0,0.7-0.1,1-0.4s0.4-0.5,0.4-0.9c0-0.4-0.1-0.7-0.3-0.9c-0.2-0.3-0.5-0.5-0.8-0.7c0,0-0.2-0.1-0.3-0.2
			c-0.2-0.1-0.3-0.2-0.4-0.2s-0.2-0.1-0.3-0.2c-0.2-0.1-0.3-0.2-0.3-0.2c-0.1-0.1-0.2-0.1-0.3-0.3c-0.1-0.1-0.2-0.2-0.2-0.3
			c0-0.1-0.1-0.2-0.1-0.4c0-0.1-0.1-0.3-0.1-0.5c0-0.5,0.2-0.9,0.5-1.3c0.4-0.3,0.8-0.5,1.3-0.5c0.5,0,0.9,0.2,1.3,0.5
			C286,325.2,286.2,325.6,286.2,326.2z"/>
		<path class="st1" d="M290.3,325h-1.8v-0.5h4.1v0.5h-1.8v6.7h-0.5V325z"/>
		<path class="st1" d="M295.5,326.2h-0.5c0-0.5,0.2-1,0.5-1.3c0.4-0.3,0.8-0.5,1.3-0.5c0.5,0,0.9,0.2,1.3,0.5
			c0.3,0.3,0.5,0.8,0.5,1.3c0,0.3-0.1,0.7-0.2,1c0,0.1-0.1,0.2-0.1,0.2c-0.1,0.1-0.1,0.2-0.2,0.2c-0.1,0.1-0.1,0.1-0.2,0.2
			c0,0.1-0.1,0.1-0.2,0.2c-0.1,0.1-0.2,0.1-0.2,0.2c0,0-0.1,0.1-0.2,0.2c-0.1,0.1-0.2,0.2-0.2,0.2c-0.3,0.2-0.5,0.5-0.8,0.7
			c-0.5,0.5-0.8,1-0.8,1.7v0.2h3.2v0.5h-3.7V331c0-0.8,0.4-1.6,1.1-2.2c0.1-0.1,0.2-0.2,0.5-0.4s0.4-0.3,0.5-0.4
			c0.1-0.1,0.2-0.2,0.4-0.4c0.2-0.2,0.3-0.3,0.4-0.5s0.2-0.3,0.2-0.5c0.1-0.2,0.1-0.4,0.1-0.5c0-0.4-0.1-0.7-0.4-0.9
			c-0.2-0.2-0.5-0.4-0.9-0.4c-0.4,0-0.7,0.1-0.9,0.4C295.6,325.5,295.5,325.8,295.5,326.2z"/>
		<path class="st1" d="M304.1,331.2l0.3-3.9v-2.8h0.5v2.9l-0.4,4.3h-1l-0.6-3.2h-0.1l-0.6,3.2h-1l-0.4-4.3v-2.9h0.5v2.8l0.3,3.9h0.1
			l0.7-3.4h0.7l0.7,3.4H304.1z"/>
		<path class="st1" d="M306,333v-0.4h6.1v0.4H306z"/>
		<path class="st1" d="M314.9,325h-1.8v-0.5h4.1v0.5h-1.8v6.7h-0.5V325z"/>
		<path class="st1" d="M323.2,326.2h-0.5c0-0.4-0.1-0.7-0.4-0.9s-0.5-0.4-0.9-0.4c-0.3,0-0.6,0.1-0.9,0.4c-0.2,0.2-0.4,0.5-0.4,0.9
			c0,0.1,0,0.2,0,0.3c0,0.1,0.1,0.2,0.1,0.3c0.1,0.1,0.1,0.2,0.2,0.2c0,0.1,0.1,0.1,0.3,0.2c0.1,0.1,0.2,0.2,0.3,0.2
			c0,0,0.2,0.1,0.3,0.2c0.2,0.1,0.3,0.2,0.3,0.2c0.2,0.1,0.5,0.3,0.8,0.5c0.5,0.4,0.8,0.9,0.8,1.6c0,0.5-0.2,0.9-0.5,1.3
			c-0.4,0.3-0.8,0.5-1.3,0.5c-0.5,0-1-0.2-1.4-0.5c-0.4-0.3-0.5-0.8-0.5-1.3v-0.2h0.5v0.2c0,0.4,0.1,0.7,0.4,0.9
			c0.3,0.3,0.6,0.4,1,0.4c0.4,0,0.7-0.1,1-0.4c0.3-0.2,0.4-0.5,0.4-0.9c0-0.4-0.1-0.7-0.3-0.9c-0.2-0.3-0.5-0.5-0.8-0.7
			c0,0-0.2-0.1-0.3-0.2s-0.3-0.2-0.4-0.2s-0.2-0.1-0.3-0.2c-0.2-0.1-0.3-0.2-0.3-0.2c-0.1-0.1-0.2-0.1-0.3-0.3s-0.2-0.2-0.2-0.3
			c0-0.1-0.1-0.2-0.1-0.4c0-0.1-0.1-0.3-0.1-0.5c0-0.5,0.2-0.9,0.5-1.3c0.4-0.3,0.8-0.5,1.3-0.5c0.5,0,0.9,0.2,1.3,0.5
			C323,325.2,323.2,325.6,323.2,326.2z"/>
		<path class="st1" d="M326,331.7v-7.2h3.2v0.5h-2.7v2.7h2.4v0.5h-2.4v3.1h2.8v0.5H326z"/>
		<path class="st1" d="M341.7,326.2h-0.5c0-0.4-0.1-0.7-0.4-0.9s-0.5-0.4-0.9-0.4c-0.3,0-0.6,0.1-0.9,0.4c-0.2,0.2-0.4,0.5-0.4,0.9
			c0,0.1,0,0.2,0,0.3c0,0.1,0.1,0.2,0.1,0.3c0.1,0.1,0.1,0.2,0.2,0.2c0,0.1,0.1,0.1,0.3,0.2c0.1,0.1,0.2,0.2,0.3,0.2
			c0,0,0.2,0.1,0.3,0.2c0.2,0.1,0.3,0.2,0.3,0.2c0.2,0.1,0.5,0.3,0.8,0.5c0.5,0.4,0.8,0.9,0.8,1.6c0,0.5-0.2,0.9-0.5,1.3
			c-0.4,0.3-0.8,0.5-1.3,0.5c-0.5,0-1-0.2-1.4-0.5c-0.4-0.3-0.5-0.8-0.5-1.3v-0.2h0.5v0.2c0,0.4,0.1,0.7,0.4,0.9
			c0.3,0.3,0.6,0.4,1,0.4c0.4,0,0.7-0.1,1-0.4s0.4-0.5,0.4-0.9c0-0.4-0.1-0.7-0.3-0.9c-0.2-0.3-0.5-0.5-0.8-0.7c0,0-0.2-0.1-0.3-0.2
			s-0.3-0.2-0.4-0.2s-0.2-0.1-0.3-0.2c-0.2-0.1-0.3-0.2-0.3-0.2c-0.1-0.1-0.2-0.1-0.3-0.3s-0.2-0.2-0.2-0.3c0-0.1-0.1-0.2-0.1-0.4
			c0-0.1-0.1-0.3-0.1-0.5c0-0.5,0.2-0.9,0.5-1.3c0.4-0.3,0.8-0.5,1.3-0.5c0.5,0,0.9,0.2,1.3,0.5
			C341.5,325.2,341.7,325.6,341.7,326.2z"/>
		<path class="st1" d="M344.5,331.7v-7.2h3.2v0.5H345v2.7h2.4v0.5H345v3.1h2.8v0.5H344.5z"/>
		<path class="st1" d="M353.5,330.2v-5.8h0.5v7.2h-0.7l-2.3-5.8l-0.2-0.6l0,0l0,0.7v5.8h-0.5v-7.2h0.7l2.3,5.8l0.2,0.6l0,0
			L353.5,330.2z"/>
		<path class="st1" d="M360.2,326.2h-0.5c0-0.4-0.1-0.7-0.4-0.9s-0.5-0.4-0.9-0.4c-0.3,0-0.6,0.1-0.9,0.4c-0.2,0.2-0.4,0.5-0.4,0.9
			c0,0.1,0,0.2,0,0.3c0,0.1,0.1,0.2,0.1,0.3c0.1,0.1,0.1,0.2,0.2,0.2c0,0.1,0.1,0.1,0.3,0.2c0.1,0.1,0.2,0.2,0.3,0.2
			c0,0,0.2,0.1,0.3,0.2c0.2,0.1,0.3,0.2,0.3,0.2c0.2,0.1,0.5,0.3,0.8,0.5c0.5,0.4,0.8,0.9,0.8,1.6c0,0.5-0.2,0.9-0.5,1.3
			c-0.4,0.3-0.8,0.5-1.3,0.5c-0.5,0-1-0.2-1.4-0.5c-0.4-0.3-0.5-0.8-0.5-1.3v-0.2h0.5v0.2c0,0.4,0.1,0.7,0.4,0.9
			c0.3,0.3,0.6,0.4,1,0.4c0.4,0,0.7-0.1,1-0.4c0.3-0.2,0.4-0.5,0.4-0.9c0-0.4-0.1-0.7-0.3-0.9c-0.2-0.3-0.5-0.5-0.8-0.7
			c0,0-0.2-0.1-0.3-0.2s-0.3-0.2-0.4-0.2s-0.2-0.1-0.3-0.2c-0.2-0.1-0.3-0.2-0.3-0.2c-0.1-0.1-0.2-0.1-0.3-0.3s-0.2-0.2-0.2-0.3
			c0-0.1-0.1-0.2-0.1-0.4c0-0.1-0.1-0.3-0.1-0.5c0-0.5,0.2-0.9,0.5-1.3c0.4-0.3,0.8-0.5,1.3-0.5c0.5,0,0.9,0.2,1.3,0.5
			C360,325.2,360.2,325.6,360.2,326.2z"/>
		<path class="st1" d="M363,331.7v-7.2h3.2v0.5h-2.7v2.7h2.4v0.5h-2.4v3.1h2.8v0.5H363z"/>
		<path class="st1" d="M251.7,378.2l1.3-4.4h1.1l1.3,4.4v2.8h-0.5v-2.5h-2.6v2.5h-0.5V378.2z M252.3,378h2.5l-1.1-3.8h-0.4
			L252.3,378z"/>
		<path class="st1" d="M259.7,377.2l1.3-3.4h0.7v7.2h-0.5v-5.8l0-0.6l0,0l-1.3,3.1h-0.5l-1.3-3.1l0,0l0,0.6v5.8h-0.5v-7.2h0.7
			L259.7,377.2z"/>
		<path class="st1" d="M264.3,373.8h1.7c0.4,0,0.8,0.1,1.1,0.4c0.3,0.3,0.4,0.6,0.4,1.1v0.6c0,0.3-0.1,0.6-0.2,0.8
			c-0.2,0.2-0.3,0.4-0.5,0.5l-0.1,0.1c0,0,0,0,0,0c0,0,0.1,0,0.1,0.1c0,0,0.1,0.1,0.1,0.1c0.4,0.3,0.6,0.7,0.6,1.2v0.8
			c0,0.5-0.2,0.9-0.5,1.2c-0.3,0.3-0.7,0.5-1.2,0.5h-1.7V373.8z M266,374.3h-1.2v2.7h1.2c0.3,0,0.5-0.1,0.7-0.3s0.3-0.4,0.3-0.7
			v-0.6c0-0.3-0.1-0.5-0.3-0.7S266.3,374.3,266,374.3z M266,377.4h-1.2v3.1h1.2c0.3,0,0.6-0.1,0.8-0.3s0.3-0.5,0.3-0.8v-0.8
			c0-0.3-0.1-0.5-0.3-0.8C266.6,377.6,266.3,377.4,266,377.4z"/>
		<path class="st1" d="M272,381h-0.3v-0.7h0.7v0.8l-0.4,1.2h-0.4L272,381z"/>
		<path class="st1" d="M277.2,381h-0.5v-7.2h1.8c0.4,0,0.8,0.1,1.1,0.4c0.3,0.3,0.4,0.6,0.4,1.1v1.6c0,0.4-0.1,0.8-0.4,1.1
			c-0.3,0.3-0.7,0.4-1.1,0.4h-1.3V381z M279.4,376.9v-1.6c0-0.3-0.1-0.5-0.3-0.7s-0.4-0.3-0.7-0.3h-1.3v3.6h1.3
			c0.3,0,0.5-0.1,0.7-0.3S279.4,377.2,279.4,376.9z"/>
		<path class="st1" d="M286.3,375.5v3.8c0,0.5-0.2,0.9-0.5,1.3c-0.4,0.3-0.8,0.5-1.4,0.5c-0.5,0-1-0.2-1.4-0.5
			c-0.4-0.3-0.5-0.8-0.5-1.3v-3.8c0-0.5,0.2-0.9,0.5-1.3c0.4-0.3,0.8-0.5,1.4-0.5c0.6,0,1,0.2,1.4,0.5
			C286.1,374.5,286.3,375,286.3,375.5z M285.7,379.3v-3.8c0-0.4-0.1-0.7-0.4-0.9s-0.6-0.4-1-0.4c-0.4,0-0.7,0.1-1,0.4
			c-0.3,0.2-0.4,0.6-0.4,0.9v3.8c0,0.4,0.1,0.7,0.4,0.9c0.3,0.2,0.6,0.4,1,0.4c0.4,0,0.7-0.1,1-0.4S285.7,379.7,285.7,379.3z"/>
		<path class="st1" d="M289.1,381v-7.2h0.5v6.7h3v0.5H289.1z"/>
		<path class="st1" d="M294.6,373.8h0.6l1.5,3.2l1.5-3.2h0.6l-1.8,3.8v3.4h-0.5v-3.4L294.6,373.8z"/>
		<path class="st1" d="M301,378.2l1.3-4.4h1.1l1.3,4.4v2.8h-0.5v-2.5h-2.6v2.5H301V378.2z M301.6,378h2.5l-1.1-3.8h-0.4L301.6,378z"
			/>
		<path class="st1" d="M310.4,379.6v-5.8h0.5v7.2h-0.7l-2.3-5.8l-0.2-0.6l0,0l0,0.7v5.8h-0.5v-7.2h0.7l2.3,5.8l0.2,0.6l0,0
			L310.4,379.6z"/>
		<path class="st1" d="M313.6,373.8h0.5v3.3l2.5-3.3h0.6l-2.6,3.4l2.7,3.8h-0.6l-2.7-3.8v3.8h-0.5V373.8z"/>
		<path class="st1" d="M319.5,378.2l1.3-4.4h1.1l1.3,4.4v2.8h-0.5v-2.5h-2.6v2.5h-0.5V378.2z M320.1,378h2.5l-1.1-3.8h-0.4
			L320.1,378z"/>
		<path class="st1" d="M331.9,379.3L331.9,379.3l0.5,0v0.1c0,0.4,0.1,0.7,0.4,0.9c0.3,0.3,0.6,0.4,0.9,0.4c0.4,0,0.7-0.1,0.9-0.4
			c0.2-0.3,0.4-0.6,0.4-1v-1.2c0-0.4-0.1-0.7-0.4-1s-0.6-0.4-0.9-0.4c-0.2,0-0.4,0.1-0.6,0.2c-0.2,0.1-0.3,0.2-0.4,0.4l-0.5-0.2
			l0.3-3.3h2.9v0.5h-2.4l-0.2,2.3c0,0,0.1-0.1,0.1-0.1c0.1-0.1,0.2-0.1,0.4-0.2c0.2-0.1,0.4-0.1,0.6-0.1c0.5,0,0.9,0.2,1.2,0.5
			c0.3,0.3,0.5,0.8,0.5,1.3v1.2c0,0.5-0.2,1-0.5,1.3c-0.4,0.4-0.8,0.5-1.3,0.5s-1-0.2-1.3-0.5C332,380.2,331.9,379.8,331.9,379.3z"
			/>
		<path class="st1" d="M338.6,375.5h-0.5c0-0.5,0.2-1,0.5-1.3c0.4-0.3,0.8-0.5,1.3-0.5s0.9,0.2,1.3,0.5c0.3,0.3,0.5,0.8,0.5,1.3
			c0,0.3-0.1,0.7-0.2,1c0,0.1-0.1,0.2-0.1,0.2c-0.1,0.1-0.1,0.2-0.2,0.2c-0.1,0.1-0.1,0.1-0.2,0.2c0,0.1-0.1,0.1-0.2,0.2
			c-0.1,0.1-0.2,0.1-0.2,0.2c0,0-0.1,0.1-0.2,0.2c-0.1,0.1-0.2,0.2-0.2,0.2c-0.3,0.2-0.5,0.5-0.8,0.7c-0.5,0.5-0.8,1-0.8,1.7v0.2
			h3.2v0.5H338v-0.6c0-0.8,0.4-1.6,1.1-2.2c0.1-0.1,0.2-0.2,0.5-0.4c0.2-0.2,0.4-0.3,0.5-0.4c0.1-0.1,0.2-0.2,0.4-0.4
			s0.3-0.3,0.4-0.5c0.1-0.1,0.2-0.3,0.2-0.5s0.1-0.4,0.1-0.5c0-0.4-0.1-0.7-0.4-0.9c-0.2-0.2-0.5-0.4-0.9-0.4
			c-0.4,0-0.7,0.1-0.9,0.4C338.8,374.8,338.6,375.1,338.6,375.5z"/>
		<path class="st1" d="M346,373.7c0.5,0,0.9,0.2,1.3,0.5c0.3,0.3,0.5,0.7,0.5,1.2v0.1h-0.5c0-0.1,0-0.1,0-0.1c0-0.3-0.2-0.6-0.4-0.8
			c-0.2-0.2-0.5-0.3-0.8-0.3c-0.4,0-0.7,0.1-0.9,0.4c-0.2,0.3-0.4,0.6-0.4,0.9v1.4c0.1-0.1,0.2-0.2,0.2-0.2c0.3-0.3,0.7-0.5,1.2-0.5
			c0.5,0,0.9,0.2,1.3,0.5c0.4,0.3,0.5,0.8,0.5,1.3v1.2c0,0.5-0.2,0.9-0.5,1.3c-0.4,0.4-0.8,0.5-1.3,0.5c-0.5,0-1-0.2-1.3-0.5
			c-0.4-0.4-0.5-0.8-0.5-1.3v-3.8c0-0.5,0.2-0.9,0.5-1.3C345,373.9,345.5,373.7,346,373.7z M346.1,376.7c-0.4,0-0.7,0.1-1,0.4
			s-0.4,0.6-0.4,1v1.2c0,0.4,0.1,0.7,0.4,0.9c0.2,0.3,0.6,0.4,0.9,0.4c0.4,0,0.7-0.1,0.9-0.4c0.3-0.3,0.4-0.6,0.4-0.9V378
			c0-0.4-0.1-0.7-0.4-1C346.7,376.8,346.4,376.7,346.1,376.7z"/>
		<path class="st1" d="M352.2,381.1c-0.5,0-1-0.2-1.3-0.5c-0.4-0.4-0.5-0.8-0.5-1.3v0h0.5v0.1c0,0.4,0.1,0.7,0.4,0.9
			c0.3,0.3,0.6,0.4,0.9,0.4c0.4,0,0.7-0.1,0.9-0.4c0.3-0.3,0.4-0.6,0.4-0.9v-1.4c0-0.3-0.1-0.6-0.3-0.8c-0.2-0.2-0.4-0.3-0.8-0.3
			h-0.6v-0.6l1.4-1.9h-2.5v-0.5h3.1v0.6l-1.4,1.9c0.4,0,0.8,0.1,1.1,0.4c0.3,0.3,0.5,0.7,0.5,1.2v1.4c0,0.5-0.2,0.9-0.5,1.3
			C353.1,380.9,352.7,381.1,352.2,381.1z"/>
		<path class="st1" d="M359.2,379.4h-2.8v-0.6l2.3-4.9h0.6l-2.4,5.1h2.2v-2h0.6v2h0.6v0.5h-0.6v1.6h-0.6V379.4z"/>
		<path class="st1" d="M364.6,378l-1.2,1.6h-0.5l1.2-1.6l-1.2-1.6h0.5L364.6,378z M366.2,378l-1.2,1.6h-0.5l1.2-1.6l-1.2-1.6h0.5
			L366.2,378z"/>
	</g>
	<g>
		<path class="st1" d="M386.9,312.6h-1.8v-0.5h4.1v0.5h-1.8v6.7h-0.5V312.6z"/>
		<path class="st1" d="M395.2,319.3h-0.6l-1.1-2.7h-1.2v2.7h-0.5v-7.2h1.7c0.5,0,0.9,0.1,1.2,0.4c0.3,0.3,0.4,0.6,0.4,1.1v1.4
			c0,0.3-0.1,0.6-0.3,0.9s-0.4,0.4-0.7,0.5L395.2,319.3z M394.5,315.1v-1.5c0-0.3-0.1-0.5-0.3-0.7c-0.2-0.2-0.5-0.3-0.8-0.3h-1.2
			v3.4h1.3c0.3,0,0.5-0.1,0.7-0.3C394.4,315.6,394.5,315.4,394.5,315.1z"/>
		<path class="st1" d="M404.1,312.8v-0.5l1.2-0.2h0.6v6.7h1.5v0.5H404v-0.5h1.4v-6.2L404.1,312.8z"/>
		<path class="st1" d="M410.3,312.8v-0.5l1.2-0.2h0.6v6.7h1.5v0.5h-3.4v-0.5h1.4v-6.2L410.3,312.8z"/>
		<path class="st1" d="M419.7,313.9v3.8c0,0.5-0.2,0.9-0.5,1.3c-0.3,0.3-0.8,0.5-1.2,0.5c-0.5,0-0.9-0.2-1.3-0.5
			c-0.3-0.4-0.5-0.8-0.5-1.3v-3.8c0-0.5,0.2-0.9,0.5-1.3c0.3-0.4,0.8-0.5,1.3-0.5c0.5,0,0.9,0.2,1.2,0.5
			C419.5,312.9,419.7,313.4,419.7,313.9z M419.2,317.6v-3.8c0-0.4-0.1-0.7-0.4-0.9c-0.2-0.3-0.5-0.4-0.9-0.4c-0.4,0-0.7,0.1-0.9,0.4
			s-0.4,0.6-0.4,1v3.8c0,0.4,0.1,0.7,0.3,0.9c0.2,0.3,0.5,0.4,0.9,0.4c0.3,0,0.6-0.1,0.9-0.4C419.1,318.3,419.2,318,419.2,317.6z"/>
		<path class="st1" d="M425.9,313.9v3.8c0,0.5-0.2,0.9-0.5,1.3c-0.3,0.3-0.8,0.5-1.2,0.5c-0.5,0-0.9-0.2-1.3-0.5
			c-0.3-0.4-0.5-0.8-0.5-1.3v-3.8c0-0.5,0.2-0.9,0.5-1.3c0.3-0.4,0.8-0.5,1.3-0.5c0.5,0,0.9,0.2,1.2,0.5
			C425.7,312.9,425.9,313.4,425.9,313.9z M425.4,317.6v-3.8c0-0.4-0.1-0.7-0.4-0.9s-0.5-0.4-0.9-0.4c-0.4,0-0.7,0.1-0.9,0.4
			s-0.4,0.6-0.4,1v3.8c0,0.4,0.1,0.7,0.3,0.9c0.2,0.3,0.5,0.4,0.9,0.4c0.3,0,0.6-0.1,0.9-0.4C425.2,318.3,425.4,318,425.4,317.6z"/>
		<path class="st1" d="M432,313.9v3.8c0,0.5-0.2,0.9-0.5,1.3c-0.3,0.3-0.8,0.5-1.2,0.5c-0.5,0-0.9-0.2-1.3-0.5
			c-0.3-0.4-0.5-0.8-0.5-1.3v-3.8c0-0.5,0.2-0.9,0.5-1.3c0.3-0.4,0.8-0.5,1.3-0.5c0.5,0,0.9,0.2,1.2,0.5
			C431.9,312.9,432,313.4,432,313.9z M431.5,317.6v-3.8c0-0.4-0.1-0.7-0.4-0.9s-0.5-0.4-0.9-0.4c-0.4,0-0.7,0.1-0.9,0.4
			s-0.4,0.6-0.4,1v3.8c0,0.4,0.1,0.7,0.3,0.9c0.2,0.3,0.5,0.4,0.9,0.4c0.3,0,0.6-0.1,0.9-0.4C431.4,318.3,431.5,318,431.5,317.6z"/>
		<path class="st1" d="M386.9,325h-1.8v-0.5h4.1v0.5h-1.8v6.7h-0.5V325z"/>
		<path class="st1" d="M391.7,331.7v-7.2h3.2v0.5h-2.7v2.7h2.4v0.5h-2.4v3.1h2.8v0.5H391.7z"/>
		<path class="st1" d="M398,325.2v-0.5l1.2-0.2h0.6v6.7h1.5v0.5h-3.3v-0.5h1.4V325L398,325.2z"/>
		<path class="st1" d="M404.4,326.2h-0.5c0-0.5,0.2-1,0.5-1.3c0.4-0.3,0.8-0.5,1.3-0.5s0.9,0.2,1.3,0.5c0.3,0.3,0.5,0.8,0.5,1.3
			c0,0.3-0.1,0.7-0.2,1c0,0.1-0.1,0.2-0.1,0.2c-0.1,0.1-0.1,0.2-0.2,0.2c-0.1,0.1-0.1,0.1-0.2,0.2c0,0.1-0.1,0.1-0.2,0.2
			c-0.1,0.1-0.2,0.1-0.2,0.2c0,0-0.1,0.1-0.2,0.2s-0.2,0.2-0.2,0.2c-0.3,0.2-0.5,0.5-0.8,0.7c-0.5,0.5-0.8,1-0.8,1.7v0.2h3.2v0.5
			h-3.7V331c0-0.8,0.4-1.6,1.1-2.2c0.1-0.1,0.2-0.2,0.5-0.4s0.4-0.3,0.5-0.4c0.1-0.1,0.2-0.2,0.4-0.4c0.2-0.2,0.3-0.3,0.4-0.5
			c0.1-0.1,0.2-0.3,0.2-0.5s0.1-0.4,0.1-0.5c0-0.4-0.1-0.7-0.4-0.9c-0.2-0.2-0.5-0.4-0.9-0.4c-0.4,0-0.7,0.1-0.9,0.4
			C404.5,325.5,404.4,325.8,404.4,326.2z"/>
		<path class="st1" d="M409.9,329.9L409.9,329.9l0.5,0v0.1c0,0.4,0.1,0.7,0.4,0.9c0.3,0.3,0.6,0.4,0.9,0.4c0.4,0,0.7-0.1,0.9-0.4
			c0.2-0.3,0.4-0.6,0.4-1v-1.2c0-0.4-0.1-0.7-0.4-1c-0.2-0.3-0.6-0.4-0.9-0.4c-0.2,0-0.4,0.1-0.6,0.2c-0.2,0.1-0.3,0.2-0.4,0.4
			l-0.5-0.2l0.3-3.3h2.9v0.5H411l-0.2,2.3c0,0,0.1-0.1,0.1-0.1c0.1-0.1,0.2-0.1,0.4-0.2c0.2-0.1,0.4-0.1,0.6-0.1
			c0.5,0,0.9,0.2,1.2,0.5c0.3,0.3,0.5,0.8,0.5,1.3v1.2c0,0.5-0.2,1-0.5,1.3c-0.4,0.4-0.8,0.5-1.3,0.5s-1-0.2-1.3-0.5
			C410.1,330.9,409.9,330.5,409.9,329.9z"/>
		<path class="st1" d="M389,338.5h-0.5c0-0.4-0.1-0.7-0.4-0.9s-0.5-0.4-0.9-0.4c-0.3,0-0.6,0.1-0.9,0.4c-0.2,0.2-0.4,0.5-0.4,0.9
			c0,0.1,0,0.2,0,0.3s0.1,0.2,0.1,0.3s0.1,0.2,0.2,0.2c0,0.1,0.1,0.1,0.3,0.2c0.1,0.1,0.2,0.2,0.3,0.2c0,0,0.2,0.1,0.3,0.2
			c0.2,0.1,0.3,0.2,0.3,0.2c0.2,0.1,0.5,0.3,0.8,0.5c0.5,0.4,0.8,0.9,0.8,1.6c0,0.5-0.2,0.9-0.5,1.3c-0.4,0.3-0.8,0.5-1.3,0.5
			c-0.5,0-1-0.2-1.4-0.5c-0.4-0.3-0.5-0.8-0.5-1.3V342h0.5v0.2c0,0.4,0.1,0.7,0.4,0.9s0.6,0.4,1,0.4c0.4,0,0.7-0.1,1-0.4
			s0.4-0.5,0.4-0.9c0-0.4-0.1-0.7-0.3-0.9c-0.2-0.3-0.5-0.5-0.8-0.7c0,0-0.2-0.1-0.3-0.2c-0.2-0.1-0.3-0.2-0.4-0.2
			c-0.1,0-0.2-0.1-0.3-0.2c-0.2-0.1-0.3-0.2-0.3-0.2s-0.2-0.1-0.3-0.3c-0.1-0.1-0.2-0.2-0.2-0.3s-0.1-0.2-0.1-0.4s-0.1-0.3-0.1-0.5
			c0-0.5,0.2-0.9,0.5-1.3c0.4-0.3,0.8-0.5,1.3-0.5c0.5,0,0.9,0.2,1.3,0.5C388.8,337.5,388.9,338,389,338.5z"/>
		<path class="st1" d="M394.6,342.3h0.5v0c0,0.5-0.2,0.9-0.5,1.3c-0.4,0.3-0.8,0.5-1.3,0.5c-0.5,0-0.9-0.2-1.3-0.5
			c-0.4-0.4-0.5-0.8-0.5-1.3v-3.8c0-0.5,0.2-0.9,0.5-1.3c0.3-0.3,0.8-0.5,1.3-0.5c0.5,0,0.9,0.2,1.3,0.5c0.3,0.3,0.5,0.8,0.5,1.3
			h-0.5c0-0.4-0.1-0.7-0.4-0.9c-0.3-0.3-0.6-0.4-0.9-0.4c-0.4,0-0.7,0.1-0.9,0.4s-0.4,0.6-0.4,0.9v3.8c0,0.4,0.1,0.7,0.4,0.9
			c0.3,0.3,0.6,0.4,0.9,0.4c0.4,0,0.7-0.1,0.9-0.4C394.5,343,394.6,342.7,394.6,342.3L394.6,342.3z"/>
		<path class="st1" d="M403.8,342.3L403.8,342.3l0.5,0v0.1c0,0.4,0.1,0.7,0.4,0.9c0.3,0.3,0.6,0.4,0.9,0.4c0.4,0,0.7-0.1,0.9-0.4
			c0.2-0.3,0.4-0.6,0.4-1v-1.2c0-0.4-0.1-0.7-0.4-1s-0.6-0.4-0.9-0.4c-0.2,0-0.4,0.1-0.6,0.2c-0.2,0.1-0.3,0.2-0.4,0.4l-0.5-0.2
			l0.3-3.3h2.9v0.5h-2.4l-0.2,2.3c0,0,0.1-0.1,0.1-0.1c0.1-0.1,0.2-0.1,0.4-0.2s0.4-0.1,0.6-0.1c0.5,0,0.9,0.2,1.2,0.5
			c0.3,0.3,0.5,0.8,0.5,1.3v1.2c0,0.5-0.2,1-0.5,1.3c-0.4,0.4-0.8,0.5-1.3,0.5s-1-0.2-1.3-0.5C404,343.2,403.8,342.8,403.8,342.3z"
			/>
		<path class="st1" d="M386.9,349.6h-1.8v-0.5h4.1v0.5h-1.8v6.7h-0.5V349.6z"/>
		<path class="st1" d="M393,349.6h-1.6v-0.5h3.7v0.5h-1.6v6.2h1.6v0.5h-3.7v-0.5h1.6V349.6z"/>
		<path class="st1" d="M401.4,356.3h-0.6l-1.1-2.7h-1.2v2.7h-0.5v-7.2h1.7c0.5,0,0.9,0.1,1.2,0.4c0.3,0.3,0.4,0.6,0.4,1.1v1.4
			c0,0.3-0.1,0.6-0.3,0.9s-0.4,0.4-0.7,0.5L401.4,356.3z M400.7,352.1v-1.5c0-0.3-0.1-0.5-0.3-0.7s-0.5-0.3-0.8-0.3h-1.2v3.4h1.3
			c0.3,0,0.5-0.1,0.7-0.3C400.6,352.6,400.7,352.4,400.7,352.1z"/>
		<path class="st1" d="M404.1,358.2h-0.5l3.5-9.1h0.5L404.1,358.2z"/>
		<path class="st1" d="M411.8,352.5l1.3-3.4h0.7v7.2h-0.5v-5.8l0-0.6l0,0l-1.3,3.1h-0.5l-1.3-3.1l0,0l0,0.6v5.8h-0.5v-7.2h0.7
			L411.8,352.5z"/>
		<path class="st1" d="M389,363.2h-0.5c0-0.4-0.1-0.7-0.4-0.9s-0.5-0.4-0.9-0.4c-0.3,0-0.6,0.1-0.9,0.4c-0.2,0.2-0.4,0.5-0.4,0.9
			c0,0.1,0,0.2,0,0.3s0.1,0.2,0.1,0.3s0.1,0.2,0.2,0.2c0,0.1,0.1,0.1,0.3,0.2c0.1,0.1,0.2,0.2,0.3,0.2c0,0,0.2,0.1,0.3,0.2
			c0.2,0.1,0.3,0.2,0.3,0.2c0.2,0.1,0.5,0.3,0.8,0.5c0.5,0.4,0.8,0.9,0.8,1.6c0,0.5-0.2,0.9-0.5,1.3c-0.4,0.3-0.8,0.5-1.3,0.5
			c-0.5,0-1-0.2-1.4-0.5c-0.4-0.3-0.5-0.8-0.5-1.3v-0.2h0.5v0.2c0,0.4,0.1,0.7,0.4,0.9s0.6,0.4,1,0.4c0.4,0,0.7-0.1,1-0.4
			s0.4-0.5,0.4-0.9c0-0.4-0.1-0.7-0.3-0.9c-0.2-0.3-0.5-0.5-0.8-0.7c0,0-0.2-0.1-0.3-0.2c-0.2-0.1-0.3-0.2-0.4-0.2
			c-0.1,0-0.2-0.1-0.3-0.2c-0.2-0.1-0.3-0.2-0.3-0.2s-0.2-0.1-0.3-0.3c-0.1-0.1-0.2-0.2-0.2-0.3s-0.1-0.2-0.1-0.4s-0.1-0.3-0.1-0.5
			c0-0.5,0.2-0.9,0.5-1.3c0.4-0.3,0.8-0.5,1.3-0.5c0.5,0,0.9,0.2,1.3,0.5C388.8,362.2,388.9,362.6,389,363.2z"/>
		<path class="st1" d="M393,362h-1.6v-0.5h3.7v0.5h-1.6v6.2h1.6v0.5h-3.7v-0.5h1.6V362z"/>
		<path class="st1" d="M398,362.1v-0.5l1.2-0.2h0.6v6.7h1.5v0.5h-3.3v-0.5h1.4V362L398,362.1z"/>
		<path class="st1" d="M407.4,363.2v3.8c0,0.5-0.2,0.9-0.5,1.3c-0.3,0.3-0.8,0.5-1.2,0.5c-0.5,0-0.9-0.2-1.3-0.5
			c-0.3-0.4-0.5-0.8-0.5-1.3v-3.8c0-0.5,0.2-0.9,0.5-1.3c0.3-0.4,0.8-0.5,1.3-0.5c0.5,0,0.9,0.2,1.2,0.5
			C407.2,362.2,407.4,362.7,407.4,363.2z M406.9,366.9v-3.8c0-0.4-0.1-0.7-0.4-0.9s-0.5-0.4-0.9-0.4c-0.4,0-0.7,0.1-0.9,0.4
			s-0.4,0.6-0.4,1v3.8c0,0.4,0.1,0.7,0.3,0.9c0.2,0.3,0.5,0.4,0.9,0.4c0.3,0,0.6-0.1,0.9-0.4C406.7,367.6,406.9,367.3,406.9,366.9z"
			/>
	</g>
	<g>
		<path class="st1" d="M878.5,307v-7.2h3.2v0.5H879v2.7h2.6v0.5H879v3.6H878.5z"/>
		<path class="st1" d="M888,301.5v3.8c0,0.5-0.2,0.9-0.5,1.3c-0.4,0.3-0.8,0.5-1.4,0.5c-0.5,0-1-0.2-1.4-0.5
			c-0.4-0.3-0.5-0.8-0.5-1.3v-3.8c0-0.5,0.2-0.9,0.5-1.3c0.4-0.3,0.8-0.5,1.4-0.5c0.6,0,1,0.2,1.4,0.5
			C887.9,300.6,888,301,888,301.5z M887.5,305.3v-3.8c0-0.4-0.1-0.7-0.4-0.9c-0.3-0.2-0.6-0.4-1-0.4c-0.4,0-0.7,0.1-1,0.4
			c-0.3,0.2-0.4,0.6-0.4,0.9v3.8c0,0.4,0.1,0.7,0.4,0.9c0.3,0.2,0.6,0.4,1,0.4c0.4,0,0.7-0.1,1-0.4
			C887.4,306,887.5,305.7,887.5,305.3z"/>
		<path class="st1" d="M890.5,299.8h0.5v2.9l1.1,3.8h0.4l1.1-3.8v-2.9h0.5v2.8l-1.3,4.4h-1.1l-1.3-4.4V299.8z"/>
		<path class="st1" d="M903.4,301.5h-0.5c0-0.5,0.2-1,0.5-1.3c0.4-0.3,0.8-0.5,1.3-0.5s0.9,0.2,1.3,0.5c0.3,0.3,0.5,0.8,0.5,1.3
			c0,0.3-0.1,0.7-0.2,1c0,0.1-0.1,0.2-0.1,0.2c-0.1,0.1-0.1,0.2-0.2,0.2c-0.1,0.1-0.1,0.1-0.2,0.2c0,0.1-0.1,0.1-0.2,0.2
			c-0.1,0.1-0.2,0.1-0.2,0.2c0,0-0.1,0.1-0.2,0.2c-0.1,0.1-0.2,0.2-0.2,0.2c-0.3,0.2-0.5,0.5-0.8,0.7c-0.5,0.5-0.8,1-0.8,1.7v0.2
			h3.2v0.5h-3.7v-0.6c0-0.8,0.4-1.6,1.1-2.2c0.1-0.1,0.2-0.2,0.5-0.4s0.4-0.3,0.5-0.4c0.1-0.1,0.2-0.2,0.4-0.4s0.3-0.3,0.4-0.5
			s0.2-0.3,0.2-0.5s0.1-0.4,0.1-0.5c0-0.4-0.1-0.7-0.4-0.9c-0.2-0.2-0.5-0.4-0.9-0.4c-0.4,0-0.7,0.1-0.9,0.4
			C903.5,300.8,903.4,301.1,903.4,301.5z"/>
		<path class="st1" d="M910.8,307.1c-0.5,0-1-0.2-1.3-0.5c-0.4-0.4-0.5-0.8-0.5-1.3v0h0.5v0.1c0,0.4,0.1,0.7,0.4,0.9
			c0.3,0.3,0.6,0.4,0.9,0.4s0.7-0.1,0.9-0.4c0.3-0.3,0.4-0.6,0.4-0.9v-1.4c0-0.3-0.1-0.6-0.3-0.8c-0.2-0.2-0.4-0.3-0.8-0.3h-0.6
			v-0.6l1.4-1.9h-2.5v-0.5h3.1v0.6l-1.4,1.9c0.4,0,0.8,0.1,1.1,0.4c0.3,0.3,0.5,0.7,0.5,1.2v1.4c0,0.5-0.2,0.9-0.5,1.3
			C911.8,306.9,911.3,307.1,910.8,307.1z"/>
		<path class="st1" d="M918.7,301.5v3.8c0,0.5-0.2,0.9-0.5,1.3c-0.3,0.3-0.8,0.5-1.2,0.5c-0.5,0-0.9-0.2-1.3-0.5
			c-0.3-0.4-0.5-0.8-0.5-1.3v-3.8c0-0.5,0.2-0.9,0.5-1.3c0.3-0.4,0.8-0.5,1.3-0.5c0.5,0,0.9,0.2,1.2,0.5
			C918.6,300.6,918.7,301,918.7,301.5z M918.2,305.3v-3.8c0-0.4-0.1-0.7-0.4-0.9c-0.2-0.3-0.5-0.4-0.9-0.4c-0.4,0-0.7,0.1-0.9,0.4
			s-0.4,0.6-0.4,1v3.8c0,0.4,0.1,0.7,0.3,0.9c0.2,0.3,0.5,0.4,0.9,0.4c0.3,0,0.6-0.1,0.9-0.4C918.1,306,918.2,305.7,918.2,305.3z"/>
		<path class="st1" d="M857.1,313.8h-0.5c0-0.4-0.1-0.7-0.4-0.9s-0.5-0.4-0.9-0.4c-0.3,0-0.6,0.1-0.9,0.4c-0.2,0.2-0.4,0.5-0.4,0.9
			c0,0.1,0,0.2,0,0.3s0.1,0.2,0.1,0.3c0.1,0.1,0.1,0.2,0.2,0.2s0.1,0.1,0.3,0.2s0.2,0.2,0.3,0.2c0,0,0.2,0.1,0.3,0.2
			c0.2,0.1,0.3,0.2,0.3,0.2c0.2,0.1,0.5,0.3,0.8,0.5c0.5,0.4,0.8,0.9,0.8,1.6c0,0.5-0.2,0.9-0.5,1.3c-0.4,0.3-0.8,0.5-1.3,0.5
			c-0.5,0-1-0.2-1.4-0.5c-0.4-0.3-0.5-0.8-0.5-1.3v-0.2h0.5v0.2c0,0.4,0.1,0.7,0.4,0.9c0.3,0.2,0.6,0.4,1,0.4c0.4,0,0.7-0.1,1-0.4
			c0.3-0.2,0.4-0.5,0.4-0.9c0-0.4-0.1-0.7-0.3-0.9c-0.2-0.3-0.5-0.5-0.8-0.7c0,0-0.2-0.1-0.3-0.2c-0.2-0.1-0.3-0.2-0.4-0.2
			c-0.1,0-0.2-0.1-0.3-0.2c-0.2-0.1-0.3-0.2-0.3-0.2c-0.1-0.1-0.2-0.1-0.3-0.3c-0.1-0.1-0.2-0.2-0.2-0.3s-0.1-0.2-0.1-0.4
			c0-0.1-0.1-0.3-0.1-0.5c0-0.5,0.2-0.9,0.5-1.3c0.4-0.3,0.8-0.5,1.3-0.5c0.5,0,0.9,0.2,1.3,0.5
			C856.9,312.9,857.1,313.3,857.1,313.8z"/>
		<path class="st1" d="M860,319.3v-7.2h0.5v6.7h3v0.5H860z"/>
		<path class="st1" d="M867.4,312.6h-1.6v-0.5h3.7v0.5h-1.6v6.2h1.6v0.5h-3.7v-0.5h1.6V312.6z"/>
		<path class="st1" d="M875.2,317.6h0.5v0c0,0.5-0.2,0.9-0.5,1.3c-0.4,0.3-0.8,0.5-1.3,0.5c-0.5,0-0.9-0.2-1.3-0.5
			c-0.4-0.4-0.5-0.8-0.5-1.3v-3.8c0-0.5,0.2-0.9,0.5-1.3c0.3-0.3,0.8-0.5,1.3-0.5c0.5,0,0.9,0.2,1.3,0.5c0.3,0.3,0.5,0.8,0.5,1.3
			h-0.5c0-0.4-0.1-0.7-0.4-0.9c-0.3-0.3-0.6-0.4-0.9-0.4c-0.4,0-0.7,0.1-0.9,0.4c-0.2,0.3-0.4,0.6-0.4,0.9v3.8
			c0,0.4,0.1,0.7,0.4,0.9c0.3,0.3,0.6,0.4,0.9,0.4c0.4,0,0.7-0.1,0.9-0.4C875,318.3,875.2,318,875.2,317.6L875.2,317.6z"/>
		<path class="st1" d="M878.4,319.3v-7.2h3.2v0.5h-2.7v2.7h2.4v0.5h-2.4v3.1h2.8v0.5H878.4z"/>
		<path class="st1" d="M890.8,312.8v-0.5l1.2-0.2h0.6v6.7h1.5v0.5h-3.3v-0.5h1.4v-6.2L890.8,312.8z"/>
		<path class="st1" d="M898.5,312c0.5,0,0.9,0.2,1.3,0.5c0.3,0.3,0.5,0.7,0.5,1.2v0.1h-0.5c0-0.1,0-0.1,0-0.1c0-0.3-0.2-0.6-0.4-0.8
			c-0.2-0.2-0.5-0.3-0.8-0.3c-0.4,0-0.7,0.1-0.9,0.4c-0.2,0.3-0.4,0.6-0.4,0.9v1.4c0.1-0.1,0.2-0.2,0.2-0.2c0.3-0.3,0.7-0.5,1.2-0.5
			c0.5,0,0.9,0.2,1.3,0.5c0.4,0.3,0.5,0.8,0.5,1.3v1.2c0,0.5-0.2,0.9-0.5,1.3c-0.4,0.4-0.8,0.5-1.3,0.5c-0.5,0-1-0.2-1.3-0.5
			c-0.4-0.4-0.5-0.8-0.5-1.3v-3.8c0-0.5,0.2-0.9,0.5-1.3C897.5,312.2,897.9,312,898.5,312z M898.5,315.1c-0.4,0-0.7,0.1-1,0.4
			s-0.4,0.6-0.4,1v1.2c0,0.4,0.1,0.7,0.4,0.9c0.2,0.3,0.6,0.4,0.9,0.4c0.4,0,0.7-0.1,0.9-0.4c0.3-0.3,0.4-0.6,0.4-0.9v-1.2
			c0-0.4-0.1-0.7-0.4-1S898.9,315.1,898.5,315.1z"/>
		<path class="st1" d="M903.2,321.2h-0.5l3.5-9.1h0.5L903.2,321.2z"/>
		<path class="st1" d="M909.5,313.9H909c0-0.5,0.2-1,0.5-1.3c0.4-0.3,0.8-0.5,1.3-0.5s0.9,0.2,1.3,0.5c0.3,0.3,0.5,0.8,0.5,1.3
			c0,0.3-0.1,0.7-0.2,1c0,0.1-0.1,0.2-0.1,0.2c-0.1,0.1-0.1,0.2-0.2,0.2s-0.1,0.1-0.2,0.2c0,0.1-0.1,0.1-0.2,0.2s-0.2,0.1-0.2,0.2
			c0,0-0.1,0.1-0.2,0.2c-0.1,0.1-0.2,0.2-0.2,0.2c-0.3,0.2-0.5,0.5-0.8,0.7c-0.5,0.5-0.8,1-0.8,1.7v0.2h3.2v0.5h-3.7v-0.6
			c0-0.8,0.4-1.6,1.1-2.2c0.1-0.1,0.2-0.2,0.5-0.4c0.2-0.2,0.4-0.3,0.5-0.4s0.2-0.2,0.4-0.4s0.3-0.3,0.4-0.5
			c0.1-0.1,0.2-0.3,0.2-0.5c0.1-0.2,0.1-0.4,0.1-0.5c0-0.4-0.1-0.7-0.4-0.9c-0.2-0.2-0.5-0.4-0.9-0.4c-0.4,0-0.7,0.1-0.9,0.4
			C909.7,313.2,909.6,313.5,909.5,313.9z"/>
		<path class="st1" d="M918.7,313.9v3.8c0,0.5-0.2,0.9-0.5,1.3c-0.3,0.3-0.8,0.5-1.2,0.5c-0.5,0-0.9-0.2-1.3-0.5
			c-0.3-0.4-0.5-0.8-0.5-1.3v-3.8c0-0.5,0.2-0.9,0.5-1.3c0.3-0.4,0.8-0.5,1.3-0.5c0.5,0,0.9,0.2,1.2,0.5
			C918.6,312.9,918.7,313.4,918.7,313.9z M918.2,317.6v-3.8c0-0.4-0.1-0.7-0.4-0.9c-0.2-0.3-0.5-0.4-0.9-0.4c-0.4,0-0.7,0.1-0.9,0.4
			s-0.4,0.6-0.4,1v3.8c0,0.4,0.1,0.7,0.3,0.9c0.2,0.3,0.5,0.4,0.9,0.4c0.3,0,0.6-0.1,0.9-0.4C918.1,318.3,918.2,318,918.2,317.6z"/>
		<path class="st1" d="M838.7,326.2h-0.5c0-0.4-0.1-0.7-0.4-0.9c-0.2-0.2-0.5-0.4-0.9-0.4c-0.3,0-0.6,0.1-0.9,0.4
			c-0.2,0.2-0.4,0.5-0.4,0.9c0,0.1,0,0.2,0,0.3c0,0.1,0.1,0.2,0.1,0.3c0.1,0.1,0.1,0.2,0.2,0.2c0,0.1,0.1,0.1,0.3,0.2
			c0.1,0.1,0.2,0.2,0.3,0.2c0,0,0.2,0.1,0.3,0.2c0.2,0.1,0.3,0.2,0.3,0.2c0.2,0.1,0.5,0.3,0.8,0.5c0.5,0.4,0.8,0.9,0.8,1.6
			c0,0.5-0.2,0.9-0.5,1.3c-0.4,0.3-0.8,0.5-1.3,0.5c-0.5,0-1-0.2-1.4-0.5c-0.4-0.3-0.5-0.8-0.5-1.3v-0.2h0.5v0.2
			c0,0.4,0.1,0.7,0.4,0.9c0.3,0.3,0.6,0.4,1,0.4c0.4,0,0.7-0.1,1-0.4c0.3-0.2,0.4-0.5,0.4-0.9c0-0.4-0.1-0.7-0.3-0.9
			c-0.2-0.3-0.5-0.5-0.8-0.7c0,0-0.2-0.1-0.3-0.2s-0.3-0.2-0.4-0.2c-0.1,0-0.2-0.1-0.3-0.2c-0.2-0.1-0.3-0.2-0.3-0.2
			c-0.1-0.1-0.2-0.1-0.3-0.3s-0.2-0.2-0.2-0.3c0-0.1-0.1-0.2-0.1-0.4c0-0.1-0.1-0.3-0.1-0.5c0-0.5,0.2-0.9,0.5-1.3
			c0.4-0.3,0.8-0.5,1.3-0.5c0.5,0,0.9,0.2,1.3,0.5C838.5,325.2,838.6,325.6,838.7,326.2z"/>
		<path class="st1" d="M842.7,325H841v-0.5h4.1v0.5h-1.8v6.7h-0.5V325z"/>
		<path class="st1" d="M847.9,326.2h-0.5c0-0.5,0.2-1,0.5-1.3c0.4-0.3,0.8-0.5,1.3-0.5s0.9,0.2,1.3,0.5c0.3,0.3,0.5,0.8,0.5,1.3
			c0,0.3-0.1,0.7-0.2,1c0,0.1-0.1,0.2-0.1,0.2c-0.1,0.1-0.1,0.2-0.2,0.2c-0.1,0.1-0.1,0.1-0.2,0.2c0,0.1-0.1,0.1-0.2,0.2
			c-0.1,0.1-0.2,0.1-0.2,0.2c0,0-0.1,0.1-0.2,0.2s-0.2,0.2-0.2,0.2c-0.3,0.2-0.5,0.5-0.8,0.7c-0.5,0.5-0.8,1-0.8,1.7v0.2h3.2v0.5
			h-3.7V331c0-0.8,0.4-1.6,1.1-2.2c0.1-0.1,0.2-0.2,0.5-0.4c0.2-0.2,0.4-0.3,0.5-0.4c0.1-0.1,0.2-0.2,0.4-0.4s0.3-0.3,0.4-0.5
			c0.1-0.1,0.2-0.3,0.2-0.5s0.1-0.4,0.1-0.5c0-0.4-0.1-0.7-0.4-0.9c-0.2-0.2-0.5-0.4-0.9-0.4c-0.4,0-0.7,0.1-0.9,0.4
			C848.1,325.5,847.9,325.8,847.9,326.2z"/>
		<path class="st1" d="M856.5,331.2l0.3-3.9v-2.8h0.5v2.9l-0.4,4.3h-1l-0.6-3.2h-0.1l-0.6,3.2h-1l-0.4-4.3v-2.9h0.5v2.8l0.3,3.9h0.1
			l0.7-3.4h0.7l0.7,3.4H856.5z"/>
		<path class="st1" d="M858.4,333v-0.4h6.1v0.4H858.4z"/>
		<path class="st1" d="M867.4,325h-1.8v-0.5h4.1v0.5h-1.8v6.7h-0.5V325z"/>
		<path class="st1" d="M875.6,326.2h-0.5c0-0.4-0.1-0.7-0.4-0.9c-0.2-0.2-0.5-0.4-0.9-0.4c-0.3,0-0.6,0.1-0.9,0.4
			c-0.2,0.2-0.4,0.5-0.4,0.9c0,0.1,0,0.2,0,0.3c0,0.1,0.1,0.2,0.1,0.3c0.1,0.1,0.1,0.2,0.2,0.2c0,0.1,0.1,0.1,0.3,0.2
			c0.1,0.1,0.2,0.2,0.3,0.2c0,0,0.2,0.1,0.3,0.2c0.2,0.1,0.3,0.2,0.3,0.2c0.2,0.1,0.5,0.3,0.8,0.5c0.5,0.4,0.8,0.9,0.8,1.6
			c0,0.5-0.2,0.9-0.5,1.3c-0.4,0.3-0.8,0.5-1.3,0.5c-0.5,0-1-0.2-1.4-0.5c-0.4-0.3-0.5-0.8-0.5-1.3v-0.2h0.5v0.2
			c0,0.4,0.1,0.7,0.4,0.9c0.3,0.3,0.6,0.4,1,0.4c0.4,0,0.7-0.1,1-0.4c0.3-0.2,0.4-0.5,0.4-0.9c0-0.4-0.1-0.7-0.3-0.9
			c-0.2-0.3-0.5-0.5-0.8-0.7c0,0-0.2-0.1-0.3-0.2s-0.3-0.2-0.4-0.2c-0.1,0-0.2-0.1-0.3-0.2c-0.2-0.1-0.3-0.2-0.3-0.2
			c-0.1-0.1-0.2-0.1-0.3-0.3s-0.2-0.2-0.2-0.3c0-0.1-0.1-0.2-0.1-0.4c0-0.1-0.1-0.3-0.1-0.5c0-0.5,0.2-0.9,0.5-1.3
			c0.4-0.3,0.8-0.5,1.3-0.5c0.5,0,0.9,0.2,1.3,0.5C875.4,325.2,875.6,325.6,875.6,326.2z"/>
		<path class="st1" d="M878.4,331.7v-7.2h3.2v0.5h-2.7v2.7h2.4v0.5h-2.4v3.1h2.8v0.5H878.4z"/>
		<path class="st1" d="M894.1,326.2h-0.5c0-0.4-0.1-0.7-0.4-0.9s-0.5-0.4-0.9-0.4c-0.3,0-0.6,0.1-0.9,0.4c-0.2,0.2-0.4,0.5-0.4,0.9
			c0,0.1,0,0.2,0,0.3c0,0.1,0.1,0.2,0.1,0.3c0.1,0.1,0.1,0.2,0.2,0.2c0,0.1,0.1,0.1,0.3,0.2c0.1,0.1,0.2,0.2,0.3,0.2
			c0,0,0.2,0.1,0.3,0.2c0.2,0.1,0.3,0.2,0.3,0.2c0.2,0.1,0.5,0.3,0.8,0.5c0.5,0.4,0.8,0.9,0.8,1.6c0,0.5-0.2,0.9-0.5,1.3
			c-0.4,0.3-0.8,0.5-1.3,0.5c-0.5,0-1-0.2-1.4-0.5c-0.4-0.3-0.5-0.8-0.5-1.3v-0.2h0.5v0.2c0,0.4,0.1,0.7,0.4,0.9
			c0.3,0.3,0.6,0.4,1,0.4c0.4,0,0.7-0.1,1-0.4c0.3-0.2,0.4-0.5,0.4-0.9c0-0.4-0.1-0.7-0.3-0.9c-0.2-0.3-0.5-0.5-0.8-0.7
			c0,0-0.2-0.1-0.3-0.2c-0.2-0.1-0.3-0.2-0.4-0.2c-0.1,0-0.2-0.1-0.3-0.2c-0.2-0.1-0.3-0.2-0.3-0.2c-0.1-0.1-0.2-0.1-0.3-0.3
			c-0.1-0.1-0.2-0.2-0.2-0.3c0-0.1-0.1-0.2-0.1-0.4c0-0.1-0.1-0.3-0.1-0.5c0-0.5,0.2-0.9,0.5-1.3c0.4-0.3,0.8-0.5,1.3-0.5
			c0.5,0,0.9,0.2,1.3,0.5C893.9,325.2,894.1,325.6,894.1,326.2z"/>
		<path class="st1" d="M896.9,331.7v-7.2h3.2v0.5h-2.7v2.7h2.4v0.5h-2.4v3.1h2.8v0.5H896.9z"/>
		<path class="st1" d="M906,330.2v-5.8h0.5v7.2h-0.7l-2.3-5.8l-0.2-0.6l0,0l0,0.7v5.8h-0.5v-7.2h0.7l2.3,5.8l0.2,0.6l0,0L906,330.2z
			"/>
		<path class="st1" d="M912.6,326.2h-0.5c0-0.4-0.1-0.7-0.4-0.9s-0.5-0.4-0.9-0.4c-0.3,0-0.6,0.1-0.9,0.4c-0.2,0.2-0.4,0.5-0.4,0.9
			c0,0.1,0,0.2,0,0.3c0,0.1,0.1,0.2,0.1,0.3c0.1,0.1,0.1,0.2,0.2,0.2c0,0.1,0.1,0.1,0.3,0.2c0.1,0.1,0.2,0.2,0.3,0.2
			c0,0,0.2,0.1,0.3,0.2c0.2,0.1,0.3,0.2,0.3,0.2c0.2,0.1,0.5,0.3,0.8,0.5c0.5,0.4,0.8,0.9,0.8,1.6c0,0.5-0.2,0.9-0.5,1.3
			c-0.4,0.3-0.8,0.5-1.3,0.5c-0.5,0-1-0.2-1.4-0.5c-0.4-0.3-0.5-0.8-0.5-1.3v-0.2h0.5v0.2c0,0.4,0.1,0.7,0.4,0.9
			c0.3,0.3,0.6,0.4,1,0.4c0.4,0,0.7-0.1,1-0.4c0.3-0.2,0.4-0.5,0.4-0.9c0-0.4-0.1-0.7-0.3-0.9c-0.2-0.3-0.5-0.5-0.8-0.7
			c0,0-0.2-0.1-0.3-0.2s-0.3-0.2-0.4-0.2c-0.1,0-0.2-0.1-0.3-0.2c-0.2-0.1-0.3-0.2-0.3-0.2c-0.1-0.1-0.2-0.1-0.3-0.3
			s-0.2-0.2-0.2-0.3c0-0.1-0.1-0.2-0.1-0.4c0-0.1-0.1-0.3-0.1-0.5c0-0.5,0.2-0.9,0.5-1.3c0.4-0.3,0.8-0.5,1.3-0.5
			c0.5,0,0.9,0.2,1.3,0.5C912.4,325.2,912.6,325.6,912.6,326.2z"/>
		<path class="st1" d="M915.4,331.7v-7.2h3.2v0.5h-2.7v2.7h2.4v0.5h-2.4v3.1h2.8v0.5H915.4z"/>
		<path class="st1" d="M804.2,378.2l1.3-4.4h1.1l1.3,4.4v2.8h-0.5v-2.5h-2.6v2.5h-0.5V378.2z M804.7,378h2.5l-1.1-3.8h-0.4
			L804.7,378z"/>
		<path class="st1" d="M812.2,377.2l1.3-3.4h0.7v7.2h-0.5v-5.8l0-0.6l0,0l-1.3,3.1h-0.5l-1.3-3.1l0,0l0,0.6v5.8h-0.5v-7.2h0.7
			L812.2,377.2z"/>
		<path class="st1" d="M816.7,373.8h1.7c0.4,0,0.8,0.1,1.1,0.4c0.3,0.3,0.4,0.6,0.4,1.1v0.6c0,0.3-0.1,0.6-0.2,0.8
			c-0.2,0.2-0.3,0.4-0.5,0.5l-0.1,0.1c0,0,0,0,0,0c0,0,0.1,0,0.1,0.1s0.1,0.1,0.1,0.1c0.4,0.3,0.6,0.7,0.6,1.2v0.8
			c0,0.5-0.2,0.9-0.5,1.2c-0.3,0.3-0.7,0.5-1.2,0.5h-1.7V373.8z M818.5,374.3h-1.2v2.7h1.2c0.3,0,0.5-0.1,0.7-0.3
			c0.2-0.2,0.3-0.4,0.3-0.7v-0.6c0-0.3-0.1-0.5-0.3-0.7C819,374.4,818.8,374.3,818.5,374.3z M818.4,377.4h-1.2v3.1h1.2
			c0.3,0,0.6-0.1,0.8-0.3c0.2-0.2,0.3-0.5,0.3-0.8v-0.8c0-0.3-0.1-0.5-0.3-0.8C819.1,377.6,818.8,377.4,818.4,377.4z"/>
		<path class="st1" d="M824.5,381h-0.3v-0.7h0.7v0.8l-0.4,1.2h-0.4L824.5,381z"/>
		<path class="st1" d="M829.6,381h-0.5v-7.2h1.8c0.4,0,0.8,0.1,1.1,0.4c0.3,0.3,0.4,0.6,0.4,1.1v1.6c0,0.4-0.1,0.8-0.4,1.1
			c-0.3,0.3-0.7,0.4-1.1,0.4h-1.3V381z M831.9,376.9v-1.6c0-0.3-0.1-0.5-0.3-0.7c-0.2-0.2-0.4-0.3-0.7-0.3h-1.3v3.6h1.3
			c0.3,0,0.5-0.1,0.7-0.3C831.8,377.4,831.9,377.2,831.9,376.9z"/>
		<path class="st1" d="M838.7,375.5v3.8c0,0.5-0.2,0.9-0.5,1.3c-0.4,0.3-0.8,0.5-1.4,0.5s-1-0.2-1.4-0.5c-0.4-0.3-0.5-0.8-0.5-1.3
			v-3.8c0-0.5,0.2-0.9,0.5-1.3c0.4-0.3,0.8-0.5,1.4-0.5c0.6,0,1,0.2,1.4,0.5C838.5,374.5,838.7,375,838.7,375.5z M838.2,379.3v-3.8
			c0-0.4-0.1-0.7-0.4-0.9c-0.3-0.2-0.6-0.4-1-0.4c-0.4,0-0.7,0.1-1,0.4c-0.3,0.2-0.4,0.6-0.4,0.9v3.8c0,0.4,0.1,0.7,0.4,0.9
			c0.3,0.2,0.6,0.4,1,0.4s0.7-0.1,1-0.4S838.2,379.7,838.2,379.3z"/>
		<path class="st1" d="M841.5,381v-7.2h0.5v6.7h3v0.5H841.5z"/>
		<path class="st1" d="M847.1,373.8h0.6l1.5,3.2l1.5-3.2h0.6l-1.8,3.8v3.4h-0.5v-3.4L847.1,373.8z"/>
		<path class="st1" d="M853.5,378.2l1.3-4.4h1.1l1.3,4.4v2.8h-0.5v-2.5H854v2.5h-0.5V378.2z M854.1,378h2.5l-1.1-3.8h-0.4L854.1,378
			z"/>
		<path class="st1" d="M862.8,379.6v-5.8h0.5v7.2h-0.7l-2.3-5.8l-0.2-0.6l0,0l0,0.7v5.8h-0.5v-7.2h0.7l2.3,5.8l0.2,0.6l0,0
			L862.8,379.6z"/>
		<path class="st1" d="M866,373.8h0.5v3.3l2.5-3.3h0.6l-2.6,3.4l2.7,3.8h-0.6l-2.7-3.8v3.8H866V373.8z"/>
		<path class="st1" d="M872,378.2l1.3-4.4h1.1l1.3,4.4v2.8h-0.5v-2.5h-2.6v2.5H872V378.2z M872.6,378h2.5l-1.1-3.8h-0.4L872.6,378z"
			/>
		<path class="st1" d="M884.3,379.3L884.3,379.3l0.5,0v0.1c0,0.4,0.1,0.7,0.4,0.9c0.3,0.3,0.6,0.4,0.9,0.4c0.4,0,0.7-0.1,0.9-0.4
			c0.2-0.3,0.4-0.6,0.4-1v-1.2c0-0.4-0.1-0.7-0.4-1c-0.2-0.3-0.6-0.4-0.9-0.4c-0.2,0-0.4,0.1-0.6,0.2c-0.2,0.1-0.3,0.2-0.4,0.4
			l-0.5-0.2l0.3-3.3h2.9v0.5h-2.4l-0.2,2.3c0,0,0.1-0.1,0.1-0.1c0.1-0.1,0.2-0.1,0.4-0.2c0.2-0.1,0.4-0.1,0.6-0.1
			c0.5,0,0.9,0.2,1.2,0.5c0.3,0.3,0.5,0.8,0.5,1.3v1.2c0,0.5-0.2,1-0.5,1.3c-0.4,0.4-0.8,0.5-1.3,0.5s-1-0.2-1.3-0.5
			C884.5,380.2,884.3,379.8,884.3,379.3z"/>
		<path class="st1" d="M891.1,375.5h-0.5c0-0.5,0.2-1,0.5-1.3c0.4-0.3,0.8-0.5,1.3-0.5s0.9,0.2,1.3,0.5c0.3,0.3,0.5,0.8,0.5,1.3
			c0,0.3-0.1,0.7-0.2,1c0,0.1-0.1,0.2-0.1,0.2c-0.1,0.1-0.1,0.2-0.2,0.2c-0.1,0.1-0.1,0.1-0.2,0.2c0,0.1-0.1,0.1-0.2,0.2
			c-0.1,0.1-0.2,0.1-0.2,0.2c0,0-0.1,0.1-0.2,0.2s-0.2,0.2-0.2,0.2c-0.3,0.2-0.5,0.5-0.8,0.7c-0.5,0.5-0.8,1-0.8,1.7v0.2h3.2v0.5
			h-3.7v-0.6c0-0.8,0.4-1.6,1.1-2.2c0.1-0.1,0.2-0.2,0.5-0.4c0.2-0.2,0.4-0.3,0.5-0.4c0.1-0.1,0.2-0.2,0.4-0.4
			c0.2-0.2,0.3-0.3,0.4-0.5c0.1-0.1,0.2-0.3,0.2-0.5s0.1-0.4,0.1-0.5c0-0.4-0.1-0.7-0.4-0.9c-0.2-0.2-0.5-0.4-0.9-0.4
			c-0.4,0-0.7,0.1-0.9,0.4C891.2,374.8,891.1,375.1,891.1,375.5z"/>
		<path class="st1" d="M898.5,373.7c0.5,0,0.9,0.2,1.3,0.5c0.3,0.3,0.5,0.7,0.5,1.2v0.1h-0.5c0-0.1,0-0.1,0-0.1
			c0-0.3-0.2-0.6-0.4-0.8c-0.2-0.2-0.5-0.3-0.8-0.3c-0.4,0-0.7,0.1-0.9,0.4c-0.2,0.3-0.4,0.6-0.4,0.9v1.4c0.1-0.1,0.2-0.2,0.2-0.2
			c0.3-0.3,0.7-0.5,1.2-0.5c0.5,0,0.9,0.2,1.3,0.5c0.4,0.3,0.5,0.8,0.5,1.3v1.2c0,0.5-0.2,0.9-0.5,1.3c-0.4,0.4-0.8,0.5-1.3,0.5
			c-0.5,0-1-0.2-1.3-0.5c-0.4-0.4-0.5-0.8-0.5-1.3v-3.8c0-0.5,0.2-0.9,0.5-1.3C897.5,373.9,897.9,373.7,898.5,373.7z M898.5,376.7
			c-0.4,0-0.7,0.1-1,0.4s-0.4,0.6-0.4,1v1.2c0,0.4,0.1,0.7,0.4,0.9c0.2,0.3,0.6,0.4,0.9,0.4c0.4,0,0.7-0.1,0.9-0.4
			c0.3-0.3,0.4-0.6,0.4-0.9V378c0-0.4-0.1-0.7-0.4-1S898.9,376.7,898.5,376.7z"/>
		<path class="st1" d="M904.6,381.1c-0.5,0-1-0.2-1.3-0.5c-0.4-0.4-0.5-0.8-0.5-1.3v0h0.5v0.1c0,0.4,0.1,0.7,0.4,0.9
			c0.3,0.3,0.6,0.4,0.9,0.4s0.7-0.1,0.9-0.4c0.3-0.3,0.4-0.6,0.4-0.9v-1.4c0-0.3-0.1-0.6-0.3-0.8c-0.2-0.2-0.4-0.3-0.8-0.3h-0.6
			v-0.6l1.4-1.9h-2.5v-0.5h3.1v0.6l-1.4,1.9c0.4,0,0.8,0.1,1.1,0.4c0.3,0.3,0.5,0.7,0.5,1.2v1.4c0,0.5-0.2,0.9-0.5,1.3
			C905.6,380.9,905.2,381.1,904.6,381.1z"/>
		<path class="st1" d="M911.6,379.4h-2.8v-0.6l2.3-4.9h0.6l-2.4,5.1h2.2v-2h0.6v2h0.6v0.5h-0.6v1.6h-0.6V379.4z"/>
		<path class="st1" d="M917,378l-1.2,1.6h-0.5l1.2-1.6l-1.2-1.6h0.5L917,378z M918.7,378l-1.2,1.6h-0.5l1.2-1.6l-1.2-1.6h0.5
			L918.7,378z"/>
	</g>
	<g>
		<path class="st1" d="M939.3,312.6h-1.8v-0.5h4.1v0.5h-1.8v6.7h-0.5V312.6z"/>
		<path class="st1" d="M947.6,319.3h-0.6l-1.1-2.7h-1.2v2.7h-0.5v-7.2h1.7c0.5,0,0.9,0.1,1.2,0.4c0.3,0.3,0.4,0.6,0.4,1.1v1.4
			c0,0.3-0.1,0.6-0.3,0.9s-0.4,0.4-0.7,0.5L947.6,319.3z M946.9,315.1v-1.5c0-0.3-0.1-0.5-0.3-0.7c-0.2-0.2-0.5-0.3-0.8-0.3h-1.2
			v3.4h1.3c0.3,0,0.5-0.1,0.7-0.3C946.8,315.6,946.9,315.4,946.9,315.1z"/>
		<path class="st1" d="M956.6,312.8v-0.5l1.2-0.2h0.6v6.7h1.5v0.5h-3.3v-0.5h1.4v-6.2L956.6,312.8z"/>
		<path class="st1" d="M962.7,312.8v-0.5l1.2-0.2h0.6v6.7h1.5v0.5h-3.3v-0.5h1.4v-6.2L962.7,312.8z"/>
		<path class="st1" d="M972.2,313.9v3.8c0,0.5-0.2,0.9-0.5,1.3c-0.3,0.3-0.8,0.5-1.2,0.5c-0.5,0-0.9-0.2-1.3-0.5
			c-0.3-0.4-0.5-0.8-0.5-1.3v-3.8c0-0.5,0.2-0.9,0.5-1.3c0.3-0.4,0.8-0.5,1.3-0.5c0.5,0,0.9,0.2,1.2,0.5
			C972,312.9,972.2,313.4,972.2,313.9z M971.6,317.6v-3.8c0-0.4-0.1-0.7-0.4-0.9c-0.2-0.3-0.5-0.4-0.9-0.4c-0.4,0-0.7,0.1-0.9,0.4
			s-0.4,0.6-0.4,1v3.8c0,0.4,0.1,0.7,0.3,0.9c0.2,0.3,0.5,0.4,0.9,0.4c0.3,0,0.6-0.1,0.9-0.4C971.5,318.3,971.6,318,971.6,317.6z"/>
		<path class="st1" d="M978.3,313.9v3.8c0,0.5-0.2,0.9-0.5,1.3c-0.3,0.3-0.8,0.5-1.2,0.5c-0.5,0-0.9-0.2-1.3-0.5
			c-0.3-0.4-0.5-0.8-0.5-1.3v-3.8c0-0.5,0.2-0.9,0.5-1.3c0.3-0.4,0.8-0.5,1.3-0.5c0.5,0,0.9,0.2,1.2,0.5
			C978.2,312.9,978.3,313.4,978.3,313.9z M977.8,317.6v-3.8c0-0.4-0.1-0.7-0.4-0.9c-0.2-0.3-0.5-0.4-0.9-0.4c-0.4,0-0.7,0.1-0.9,0.4
			s-0.4,0.6-0.4,1v3.8c0,0.4,0.1,0.7,0.3,0.9c0.2,0.3,0.5,0.4,0.9,0.4c0.3,0,0.6-0.1,0.9-0.4C977.7,318.3,977.8,318,977.8,317.6z"/>
		<path class="st1" d="M984.5,313.9v3.8c0,0.5-0.2,0.9-0.5,1.3c-0.3,0.3-0.8,0.5-1.2,0.5c-0.5,0-0.9-0.2-1.3-0.5
			c-0.3-0.4-0.5-0.8-0.5-1.3v-3.8c0-0.5,0.2-0.9,0.5-1.3c0.3-0.4,0.8-0.5,1.3-0.5c0.5,0,0.9,0.2,1.2,0.5
			C984.3,312.9,984.5,313.4,984.5,313.9z M984,317.6v-3.8c0-0.4-0.1-0.7-0.4-0.9c-0.2-0.3-0.5-0.4-0.9-0.4c-0.4,0-0.7,0.1-0.9,0.4
			s-0.4,0.6-0.4,1v3.8c0,0.4,0.1,0.7,0.3,0.9c0.2,0.3,0.5,0.4,0.9,0.4c0.3,0,0.6-0.1,0.9-0.4C983.8,318.3,984,318,984,317.6z"/>
		<path class="st1" d="M939.3,325h-1.8v-0.5h4.1v0.5h-1.8v6.7h-0.5V325z"/>
		<path class="st1" d="M944.2,331.7v-7.2h3.2v0.5h-2.7v2.7h2.4v0.5h-2.4v3.1h2.8v0.5H944.2z"/>
		<path class="st1" d="M950.4,325.2v-0.5l1.2-0.2h0.6v6.7h1.5v0.5h-3.4v-0.5h1.4V325L950.4,325.2z"/>
		<path class="st1" d="M956.8,326.2h-0.5c0-0.5,0.2-1,0.5-1.3c0.4-0.3,0.8-0.5,1.3-0.5c0.5,0,0.9,0.2,1.3,0.5
			c0.3,0.3,0.5,0.8,0.5,1.3c0,0.3-0.1,0.7-0.2,1c0,0.1-0.1,0.2-0.1,0.2c-0.1,0.1-0.1,0.2-0.2,0.2c-0.1,0.1-0.1,0.1-0.2,0.2
			c0,0.1-0.1,0.1-0.2,0.2c-0.1,0.1-0.2,0.1-0.2,0.2c0,0-0.1,0.1-0.2,0.2s-0.2,0.2-0.2,0.2c-0.3,0.2-0.5,0.5-0.8,0.7
			c-0.5,0.5-0.8,1-0.8,1.7v0.2h3.2v0.5h-3.7V331c0-0.8,0.4-1.6,1.1-2.2c0.1-0.1,0.2-0.2,0.5-0.4c0.2-0.2,0.4-0.3,0.5-0.4
			c0.1-0.1,0.2-0.2,0.4-0.4s0.3-0.3,0.4-0.5c0.1-0.1,0.2-0.3,0.2-0.5c0.1-0.2,0.1-0.4,0.1-0.5c0-0.4-0.1-0.7-0.4-0.9
			c-0.2-0.2-0.5-0.4-0.9-0.4c-0.4,0-0.7,0.1-0.9,0.4C957,325.5,956.8,325.8,956.8,326.2z"/>
		<path class="st1" d="M962.4,329.9L962.4,329.9l0.5,0v0.1c0,0.4,0.1,0.7,0.4,0.9c0.3,0.3,0.6,0.4,0.9,0.4c0.4,0,0.7-0.1,0.9-0.4
			c0.2-0.3,0.4-0.6,0.4-1v-1.2c0-0.4-0.1-0.7-0.4-1c-0.2-0.3-0.6-0.4-0.9-0.4c-0.2,0-0.4,0.1-0.6,0.2c-0.2,0.1-0.3,0.2-0.4,0.4
			l-0.5-0.2l0.3-3.3h2.9v0.5h-2.4l-0.2,2.3c0,0,0.1-0.1,0.1-0.1c0.1-0.1,0.2-0.1,0.4-0.2c0.2-0.1,0.4-0.1,0.6-0.1
			c0.5,0,0.9,0.2,1.2,0.5c0.3,0.3,0.5,0.8,0.5,1.3v1.2c0,0.5-0.2,1-0.5,1.3c-0.4,0.4-0.8,0.5-1.3,0.5s-1-0.2-1.3-0.5
			C962.6,330.9,962.4,330.5,962.4,329.9z"/>
		<path class="st1" d="M941.4,338.5h-0.5c0-0.4-0.1-0.7-0.4-0.9s-0.5-0.4-0.9-0.4c-0.3,0-0.6,0.1-0.9,0.4c-0.2,0.2-0.4,0.5-0.4,0.9
			c0,0.1,0,0.2,0,0.3c0,0.1,0.1,0.2,0.1,0.3s0.1,0.2,0.2,0.2s0.1,0.1,0.3,0.2c0.1,0.1,0.2,0.2,0.3,0.2c0,0,0.2,0.1,0.3,0.2
			c0.2,0.1,0.3,0.2,0.3,0.2c0.2,0.1,0.5,0.3,0.8,0.5c0.5,0.4,0.8,0.9,0.8,1.6c0,0.5-0.2,0.9-0.5,1.3c-0.4,0.3-0.8,0.5-1.3,0.5
			c-0.5,0-1-0.2-1.4-0.5c-0.4-0.3-0.5-0.8-0.5-1.3V342h0.5v0.2c0,0.4,0.1,0.7,0.4,0.9c0.3,0.2,0.6,0.4,1,0.4c0.4,0,0.7-0.1,1-0.4
			c0.3-0.2,0.4-0.5,0.4-0.9c0-0.4-0.1-0.7-0.3-0.9c-0.2-0.3-0.5-0.5-0.8-0.7c0,0-0.2-0.1-0.3-0.2c-0.2-0.1-0.3-0.2-0.4-0.2
			c-0.1,0-0.2-0.1-0.3-0.2c-0.2-0.1-0.3-0.2-0.3-0.2s-0.2-0.1-0.3-0.3c-0.1-0.1-0.2-0.2-0.2-0.3s-0.1-0.2-0.1-0.4
			c0-0.1-0.1-0.3-0.1-0.5c0-0.5,0.2-0.9,0.5-1.3c0.4-0.3,0.8-0.5,1.3-0.5c0.5,0,0.9,0.2,1.3,0.5C941.2,337.5,941.4,338,941.4,338.5z
			"/>
		<path class="st1" d="M947.1,342.3h0.5v0c0,0.5-0.2,0.9-0.5,1.3c-0.4,0.3-0.8,0.5-1.3,0.5c-0.5,0-0.9-0.2-1.3-0.5
			c-0.4-0.4-0.5-0.8-0.5-1.3v-3.8c0-0.5,0.2-0.9,0.5-1.3c0.3-0.3,0.8-0.5,1.3-0.5c0.5,0,0.9,0.2,1.3,0.5c0.3,0.3,0.5,0.8,0.5,1.3
			h-0.5c0-0.4-0.1-0.7-0.4-0.9c-0.3-0.3-0.6-0.4-0.9-0.4c-0.4,0-0.7,0.1-0.9,0.4c-0.2,0.3-0.4,0.6-0.4,0.9v3.8
			c0,0.4,0.1,0.7,0.4,0.9c0.3,0.3,0.6,0.4,0.9,0.4c0.4,0,0.7-0.1,0.9-0.4C947,343,947.1,342.7,947.1,342.3L947.1,342.3z"/>
		<path class="st1" d="M956.2,342.3L956.2,342.3l0.5,0v0.1c0,0.4,0.1,0.7,0.4,0.9c0.3,0.3,0.6,0.4,0.9,0.4c0.4,0,0.7-0.1,0.9-0.4
			c0.2-0.3,0.4-0.6,0.4-1v-1.2c0-0.4-0.1-0.7-0.4-1c-0.2-0.3-0.6-0.4-0.9-0.4c-0.2,0-0.4,0.1-0.6,0.2c-0.2,0.1-0.3,0.2-0.4,0.4
			l-0.5-0.2l0.3-3.3h2.9v0.5h-2.4l-0.2,2.3c0,0,0.1-0.1,0.1-0.1c0.1-0.1,0.2-0.1,0.4-0.2s0.4-0.1,0.6-0.1c0.5,0,0.9,0.2,1.2,0.5
			c0.3,0.3,0.5,0.8,0.5,1.3v1.2c0,0.5-0.2,1-0.5,1.3c-0.4,0.4-0.8,0.5-1.3,0.5s-1-0.2-1.3-0.5C956.4,343.2,956.2,342.8,956.2,342.3z
			"/>
		<path class="st1" d="M939.3,349.6h-1.8v-0.5h4.1v0.5h-1.8v6.7h-0.5V349.6z"/>
		<path class="st1" d="M945.5,349.6h-1.6v-0.5h3.7v0.5H946v6.2h1.6v0.5h-3.7v-0.5h1.6V349.6z"/>
		<path class="st1" d="M953.8,356.3h-0.6l-1.1-2.7h-1.2v2.7h-0.5v-7.2h1.7c0.5,0,0.9,0.1,1.2,0.4c0.3,0.3,0.4,0.6,0.4,1.1v1.4
			c0,0.3-0.1,0.6-0.3,0.9s-0.4,0.4-0.7,0.5L953.8,356.3z M953.1,352.1v-1.5c0-0.3-0.1-0.5-0.3-0.7s-0.5-0.3-0.8-0.3h-1.2v3.4h1.3
			c0.3,0,0.5-0.1,0.7-0.3C953,352.6,953.1,352.4,953.1,352.1z"/>
		<path class="st1" d="M956.6,358.2h-0.5l3.5-9.1h0.5L956.6,358.2z"/>
		<path class="st1" d="M964.2,352.5l1.3-3.4h0.7v7.2h-0.5v-5.8l0-0.6l0,0l-1.3,3.1H964l-1.3-3.1l0,0l0,0.6v5.8h-0.5v-7.2h0.7
			L964.2,352.5z"/>
		<path class="st1" d="M941.4,363.2h-0.5c0-0.4-0.1-0.7-0.4-0.9s-0.5-0.4-0.9-0.4c-0.3,0-0.6,0.1-0.9,0.4c-0.2,0.2-0.4,0.5-0.4,0.9
			c0,0.1,0,0.2,0,0.3c0,0.1,0.1,0.2,0.1,0.3s0.1,0.2,0.2,0.2s0.1,0.1,0.3,0.2c0.1,0.1,0.2,0.2,0.3,0.2c0,0,0.2,0.1,0.3,0.2
			c0.2,0.1,0.3,0.2,0.3,0.2c0.2,0.1,0.5,0.3,0.8,0.5c0.5,0.4,0.8,0.9,0.8,1.6c0,0.5-0.2,0.9-0.5,1.3c-0.4,0.3-0.8,0.5-1.3,0.5
			c-0.5,0-1-0.2-1.4-0.5c-0.4-0.3-0.5-0.8-0.5-1.3v-0.2h0.5v0.2c0,0.4,0.1,0.7,0.4,0.9c0.3,0.2,0.6,0.4,1,0.4c0.4,0,0.7-0.1,1-0.4
			c0.3-0.2,0.4-0.5,0.4-0.9c0-0.4-0.1-0.7-0.3-0.9c-0.2-0.3-0.5-0.5-0.8-0.7c0,0-0.2-0.1-0.3-0.2c-0.2-0.1-0.3-0.2-0.4-0.2
			c-0.1,0-0.2-0.1-0.3-0.2c-0.2-0.1-0.3-0.2-0.3-0.2s-0.2-0.1-0.3-0.3c-0.1-0.1-0.2-0.2-0.2-0.3s-0.1-0.2-0.1-0.4
			c0-0.1-0.1-0.3-0.1-0.5c0-0.5,0.2-0.9,0.5-1.3c0.4-0.3,0.8-0.5,1.3-0.5c0.5,0,0.9,0.2,1.3,0.5
			C941.2,362.2,941.4,362.6,941.4,363.2z"/>
		<path class="st1" d="M945.5,362h-1.6v-0.5h3.7v0.5H946v6.2h1.6v0.5h-3.7v-0.5h1.6V362z"/>
		<path class="st1" d="M950.4,362.1v-0.5l1.2-0.2h0.6v6.7h1.5v0.5h-3.4v-0.5h1.4V362L950.4,362.1z"/>
		<path class="st1" d="M959.8,363.2v3.8c0,0.5-0.2,0.9-0.5,1.3c-0.3,0.3-0.8,0.5-1.2,0.5c-0.5,0-0.9-0.2-1.3-0.5
			c-0.3-0.4-0.5-0.8-0.5-1.3v-3.8c0-0.5,0.2-0.9,0.5-1.3c0.3-0.4,0.8-0.5,1.3-0.5c0.5,0,0.9,0.2,1.2,0.5
			C959.7,362.2,959.8,362.7,959.8,363.2z M959.3,366.9v-3.8c0-0.4-0.1-0.7-0.4-0.9c-0.2-0.3-0.5-0.4-0.9-0.4c-0.4,0-0.7,0.1-0.9,0.4
			s-0.4,0.6-0.4,1v3.8c0,0.4,0.1,0.7,0.3,0.9c0.2,0.3,0.5,0.4,0.9,0.4c0.3,0,0.6-0.1,0.9-0.4C959.2,367.6,959.3,367.3,959.3,366.9z"
			/>
	</g>
	<g>
		<g>
			<path class="st1" d="M1138.5,238.3L1138.5,238.3l0.5,0v0.1c0,0.4,0.1,0.7,0.4,0.9c0.3,0.3,0.6,0.4,0.9,0.4c0.4,0,0.7-0.1,0.9-0.4
				c0.2-0.3,0.4-0.6,0.4-1v-1.2c0-0.4-0.1-0.7-0.4-1s-0.6-0.4-0.9-0.4c-0.2,0-0.4,0.1-0.6,0.2c-0.2,0.1-0.3,0.2-0.4,0.4l-0.5-0.2
				l0.3-3.3h2.9v0.5h-2.4l-0.2,2.3c0,0,0.1-0.1,0.1-0.1c0.1-0.1,0.2-0.1,0.4-0.2c0.2-0.1,0.4-0.1,0.6-0.1c0.5,0,0.9,0.2,1.2,0.5
				c0.3,0.3,0.5,0.8,0.5,1.3v1.2c0,0.5-0.2,1-0.5,1.3c-0.4,0.4-0.8,0.5-1.3,0.5c-0.5,0-1-0.2-1.3-0.5
				C1138.7,239.2,1138.5,238.8,1138.5,238.3z"/>
			<path class="st1" d="M1154.3,236.1h-0.5c0-0.3-0.1-0.5-0.3-0.7s-0.5-0.3-0.8-0.3c-0.3,0-0.5,0.1-0.7,0.2
				c-0.2,0.2-0.3,0.4-0.3,0.6c0,0.2,0.1,0.4,0.3,0.6c0.1,0.1,0.2,0.2,0.4,0.2s0.3,0.2,0.6,0.3c0.2,0.1,0.4,0.2,0.5,0.2
				c0.3,0.1,0.5,0.3,0.7,0.5c0.2,0.2,0.3,0.5,0.3,0.8c0,0.4-0.2,0.7-0.5,1c-0.3,0.3-0.7,0.4-1.2,0.4c-0.5,0-0.9-0.2-1.2-0.5
				c-0.3-0.3-0.5-0.7-0.5-1.1h0.5c0,0.3,0.1,0.6,0.3,0.8c0.2,0.2,0.5,0.3,0.9,0.3c0.3,0,0.6-0.1,0.8-0.3c0.2-0.2,0.3-0.4,0.3-0.7
				c0-0.4-0.3-0.8-0.9-1c-0.6-0.2-1-0.4-1.2-0.6c-0.4-0.3-0.5-0.6-0.5-1c0-0.4,0.2-0.7,0.5-1c0.3-0.2,0.7-0.4,1.1-0.4
				c0.5,0,0.8,0.1,1.1,0.4S1154.3,235.8,1154.3,236.1z"/>
			<path class="st1" d="M1156.8,234.9h0.5l0,0.4l0.1-0.1c0.1-0.1,0.2-0.2,0.3-0.2s0.3-0.1,0.5-0.1c0.2,0,0.3,0,0.5,0.1
				s0.2,0.2,0.3,0.3l0.1,0.1c0-0.1,0.1-0.1,0.1-0.1c0.1-0.1,0.2-0.2,0.4-0.2c0.2-0.1,0.3-0.1,0.5-0.1c0.3,0,0.5,0.1,0.7,0.3
				c0.2,0.2,0.3,0.4,0.3,0.8v4.2h-0.5v-4.1c0-0.2-0.1-0.4-0.2-0.5s-0.2-0.2-0.4-0.2c-0.2,0-0.4,0.1-0.5,0.2s-0.2,0.4-0.2,0.6v4h-0.5
				v-4.1c0-0.2-0.1-0.4-0.2-0.5c-0.1-0.1-0.2-0.2-0.4-0.2c-0.2,0-0.4,0.1-0.5,0.3s-0.2,0.4-0.2,0.6v4h-0.5V234.9z"/>
		</g>
	</g>
	<g>
		<line class="st2" x1="1161.4" y1="99.7" x2="1161.4" y2="224.1"/>
		<line class="st2" x1="1161.9" y1="100.3" x2="1151.6" y2="100.3"/>
		<line class="st2" x1="1161.9" y1="103.3" x2="1157.8" y2="103.3"/>
		<line class="st2" x1="1161.9" y1="106.4" x2="1157.8" y2="106.4"/>
		<line class="st2" x1="1161.9" y1="109.5" x2="1157.8" y2="109.5"/>
		<line class="st2" x1="1161.9" y1="112.6" x2="1157.8" y2="112.6"/>
		<line class="st2" x1="1161.9" y1="115.7" x2="1155.8" y2="115.7"/>
		<line class="st2" x1="1161.9" y1="118.7" x2="1157.8" y2="118.7"/>
		<line class="st2" x1="1161.9" y1="121.8" x2="1157.8" y2="121.8"/>
		<line class="st2" x1="1161.9" y1="124.9" x2="1157.8" y2="124.9"/>
		<line class="st2" x1="1161.9" y1="128" x2="1157.8" y2="128"/>
		<line class="st2" x1="1161.9" y1="131.1" x2="1151.6" y2="131.1"/>
		<line class="st2" x1="1161.9" y1="134.2" x2="1157.8" y2="134.2"/>
		<line class="st2" x1="1161.9" y1="137.2" x2="1157.8" y2="137.2"/>
		<line class="st2" x1="1161.9" y1="140.3" x2="1157.8" y2="140.3"/>
		<line class="st2" x1="1161.9" y1="143.4" x2="1157.8" y2="143.4"/>
		<line class="st2" x1="1161.9" y1="146.5" x2="1155.8" y2="146.5"/>
		<line class="st2" x1="1161.9" y1="149.6" x2="1157.8" y2="149.6"/>
		<line class="st2" x1="1161.9" y1="152.7" x2="1157.8" y2="152.7"/>
		<line class="st2" x1="1161.9" y1="155.7" x2="1157.8" y2="155.7"/>
		<line class="st2" x1="1161.9" y1="158.8" x2="1157.8" y2="158.8"/>
		<line class="st2" x1="1161.9" y1="161.9" x2="1151.6" y2="161.9"/>
		<line class="st2" x1="1161.9" y1="165" x2="1157.8" y2="165"/>
		<line class="st2" x1="1161.9" y1="168.1" x2="1157.8" y2="168.1"/>
		<line class="st2" x1="1161.9" y1="171.2" x2="1157.8" y2="171.2"/>
		<line class="st2" x1="1161.9" y1="174.2" x2="1157.8" y2="174.2"/>
		<line class="st2" x1="1161.9" y1="177.3" x2="1155.8" y2="177.3"/>
		<line class="st2" x1="1161.9" y1="180.4" x2="1157.8" y2="180.4"/>
		<line class="st2" x1="1161.9" y1="183.5" x2="1157.8" y2="183.5"/>
		<line class="st2" x1="1161.9" y1="186.6" x2="1157.8" y2="186.6"/>
		<line class="st2" x1="1161.9" y1="189.6" x2="1157.8" y2="189.6"/>
		<line class="st2" x1="1161.9" y1="192.7" x2="1151.6" y2="192.7"/>
		<line class="st2" x1="1161.9" y1="223.6" x2="1151.6" y2="223.6"/>
		<line class="st2" x1="1161.9" y1="195.8" x2="1157.8" y2="195.8"/>
		<line class="st2" x1="1161.9" y1="198.9" x2="1157.8" y2="198.9"/>
		<line class="st2" x1="1161.9" y1="202" x2="1157.8" y2="202"/>
		<line class="st2" x1="1161.9" y1="205.1" x2="1157.8" y2="205.1"/>
		<line class="st2" x1="1161.9" y1="208.1" x2="1155.8" y2="208.1"/>
		<line class="st2" x1="1161.9" y1="211.2" x2="1157.8" y2="211.2"/>
		<line class="st2" x1="1161.9" y1="214.3" x2="1157.8" y2="214.3"/>
		<line class="st2" x1="1161.9" y1="217.4" x2="1157.8" y2="217.4"/>
		<line class="st2" x1="1161.9" y1="220.5" x2="1157.8" y2="220.5"/>
	</g>
	<g>
		<path class="st1" d="M817.9,256.3L817.9,256.3l0.5,0v0.1c0,0.4,0.1,0.7,0.4,0.9c0.3,0.3,0.6,0.4,0.9,0.4c0.4,0,0.7-0.1,0.9-0.4
			c0.2-0.3,0.4-0.6,0.4-1v-1.2c0-0.4-0.1-0.7-0.4-1c-0.2-0.3-0.6-0.4-0.9-0.4c-0.2,0-0.4,0.1-0.6,0.2c-0.2,0.1-0.3,0.2-0.4,0.4
			l-0.5-0.2l0.3-3.3h2.9v0.5H819l-0.2,2.3c0,0,0.1-0.1,0.1-0.1c0.1-0.1,0.2-0.1,0.4-0.2c0.2-0.1,0.4-0.1,0.6-0.1
			c0.5,0,0.9,0.2,1.2,0.5c0.3,0.3,0.5,0.8,0.5,1.3v1.2c0,0.5-0.2,1-0.5,1.3c-0.4,0.4-0.8,0.5-1.3,0.5s-1-0.2-1.3-0.5
			C818.1,257.2,817.9,256.8,817.9,256.3z"/>
		<path class="st1" d="M833.8,254.1h-0.5c0-0.3-0.1-0.5-0.3-0.7c-0.2-0.2-0.5-0.3-0.8-0.3c-0.3,0-0.5,0.1-0.7,0.2
			c-0.2,0.2-0.3,0.4-0.3,0.6c0,0.2,0.1,0.4,0.3,0.6c0.1,0.1,0.2,0.2,0.4,0.2c0.2,0.1,0.3,0.2,0.6,0.3c0.2,0.1,0.4,0.2,0.5,0.2
			c0.3,0.1,0.5,0.3,0.7,0.5c0.2,0.2,0.3,0.5,0.3,0.8c0,0.4-0.2,0.7-0.5,1c-0.3,0.3-0.7,0.4-1.2,0.4c-0.5,0-0.9-0.2-1.2-0.5
			c-0.3-0.3-0.5-0.7-0.5-1.1h0.5c0,0.3,0.1,0.6,0.3,0.8c0.2,0.2,0.5,0.3,0.9,0.3c0.3,0,0.6-0.1,0.8-0.3c0.2-0.2,0.3-0.4,0.3-0.7
			c0-0.4-0.3-0.8-0.9-1c-0.6-0.2-1-0.4-1.2-0.6c-0.4-0.3-0.5-0.6-0.5-1c0-0.4,0.2-0.7,0.5-1c0.3-0.2,0.7-0.4,1.1-0.4
			c0.5,0,0.8,0.1,1.1,0.4C833.6,253.5,833.7,253.8,833.8,254.1z"/>
		<path class="st1" d="M836.2,252.9h0.5l0,0.4l0.1-0.1c0.1-0.1,0.2-0.2,0.3-0.2s0.3-0.1,0.5-0.1c0.2,0,0.3,0,0.5,0.1
			c0.2,0.1,0.2,0.2,0.3,0.3l0.1,0.1c0-0.1,0.1-0.1,0.1-0.1c0.1-0.1,0.2-0.2,0.4-0.2c0.2-0.1,0.3-0.1,0.5-0.1c0.3,0,0.5,0.1,0.7,0.3
			c0.2,0.2,0.3,0.4,0.3,0.8v4.2h-0.5v-4.1c0-0.2-0.1-0.4-0.2-0.5c-0.1-0.1-0.2-0.2-0.4-0.2c-0.2,0-0.4,0.1-0.5,0.2
			c-0.2,0.2-0.2,0.4-0.2,0.6v4h-0.5v-4.1c0-0.2-0.1-0.4-0.2-0.5s-0.2-0.2-0.4-0.2c-0.2,0-0.4,0.1-0.5,0.3c-0.2,0.2-0.2,0.4-0.2,0.6
			v4h-0.5V252.9z"/>
	</g>
	<g>
		<line class="st2" x1="1039.9" y1="99.7" x2="1039.9" y2="224.1"/>
		<line class="st2" x1="1040.4" y1="100.3" x2="1030.2" y2="100.3"/>
		<line class="st2" x1="1040.4" y1="103.3" x2="1036.3" y2="103.3"/>
		<line class="st2" x1="1040.4" y1="106.4" x2="1036.3" y2="106.4"/>
		<line class="st2" x1="1040.4" y1="109.5" x2="1036.3" y2="109.5"/>
		<line class="st2" x1="1040.4" y1="112.6" x2="1036.3" y2="112.6"/>
		<line class="st2" x1="1040.4" y1="115.7" x2="1034.3" y2="115.7"/>
		<line class="st2" x1="1040.4" y1="118.7" x2="1036.3" y2="118.7"/>
		<line class="st2" x1="1040.4" y1="121.8" x2="1036.3" y2="121.8"/>
		<line class="st2" x1="1040.4" y1="124.9" x2="1036.3" y2="124.9"/>
		<line class="st2" x1="1040.4" y1="128" x2="1036.3" y2="128"/>
		<line class="st2" x1="1040.4" y1="131.1" x2="1030.2" y2="131.1"/>
		<line class="st2" x1="1040.4" y1="134.2" x2="1036.3" y2="134.2"/>
		<line class="st2" x1="1040.4" y1="137.2" x2="1036.3" y2="137.2"/>
		<line class="st2" x1="1040.4" y1="140.3" x2="1036.3" y2="140.3"/>
		<line class="st2" x1="1040.4" y1="143.4" x2="1036.3" y2="143.4"/>
		<line class="st2" x1="1040.4" y1="146.5" x2="1034.3" y2="146.5"/>
		<line class="st2" x1="1040.4" y1="149.6" x2="1036.3" y2="149.6"/>
		<line class="st2" x1="1040.4" y1="152.7" x2="1036.3" y2="152.7"/>
		<line class="st2" x1="1040.4" y1="155.7" x2="1036.3" y2="155.7"/>
		<line class="st2" x1="1040.4" y1="158.8" x2="1036.3" y2="158.8"/>
		<line class="st2" x1="1040.4" y1="161.9" x2="1030.2" y2="161.9"/>
		<line class="st2" x1="1040.4" y1="165" x2="1036.3" y2="165"/>
		<line class="st2" x1="1040.4" y1="168.1" x2="1036.3" y2="168.1"/>
		<line class="st2" x1="1040.4" y1="171.2" x2="1036.3" y2="171.2"/>
		<line class="st2" x1="1040.4" y1="174.2" x2="1036.3" y2="174.2"/>
		<line class="st2" x1="1040.4" y1="177.3" x2="1034.3" y2="177.3"/>
		<line class="st2" x1="1040.4" y1="180.4" x2="1036.3" y2="180.4"/>
		<line class="st2" x1="1040.4" y1="183.5" x2="1036.3" y2="183.5"/>
		<line class="st2" x1="1040.4" y1="186.6" x2="1036.3" y2="186.6"/>
		<line class="st2" x1="1040.4" y1="189.6" x2="1036.3" y2="189.6"/>
		<line class="st2" x1="1040.4" y1="192.7" x2="1030.2" y2="192.7"/>
		<line class="st2" x1="1040.4" y1="223.6" x2="1030.2" y2="223.6"/>
		<line class="st2" x1="1040.4" y1="195.8" x2="1036.3" y2="195.8"/>
		<line class="st2" x1="1040.4" y1="198.9" x2="1036.3" y2="198.9"/>
		<line class="st2" x1="1040.4" y1="202" x2="1036.3" y2="202"/>
		<line class="st2" x1="1040.4" y1="205.1" x2="1036.3" y2="205.1"/>
		<line class="st2" x1="1040.4" y1="208.1" x2="1034.3" y2="208.1"/>
		<line class="st2" x1="1040.4" y1="211.2" x2="1036.3" y2="211.2"/>
		<line class="st2" x1="1040.4" y1="214.3" x2="1036.3" y2="214.3"/>
		<line class="st2" x1="1040.4" y1="217.4" x2="1036.3" y2="217.4"/>
		<line class="st2" x1="1040.4" y1="220.5" x2="1036.3" y2="220.5"/>
	</g>
	<g>
		<path class="st1" d="M166.2,178.2L166.2,178.2l0.5,0v0.1c0,0.4,0.1,0.7,0.4,0.9s0.6,0.4,0.9,0.4c0.4,0,0.7-0.1,0.9-0.4
			s0.4-0.6,0.4-1V177c0-0.4-0.1-0.7-0.4-1s-0.6-0.4-0.9-0.4c-0.2,0-0.4,0.1-0.6,0.2c-0.2,0.1-0.3,0.2-0.4,0.4l-0.5-0.2l0.3-3.3h2.9
			v0.5h-2.4l-0.2,2.3c0,0,0.1-0.1,0.1-0.1c0.1-0.1,0.2-0.1,0.4-0.2c0.2-0.1,0.4-0.1,0.6-0.1c0.5,0,0.9,0.2,1.2,0.5
			c0.3,0.3,0.5,0.8,0.5,1.3v1.2c0,0.5-0.2,1-0.5,1.3c-0.4,0.4-0.8,0.5-1.3,0.5s-1-0.2-1.3-0.5C166.3,179.1,166.2,178.7,166.2,178.2z
			"/>
		<path class="st1" d="M182,176h-0.5c0-0.3-0.1-0.5-0.3-0.7c-0.2-0.2-0.5-0.3-0.8-0.3c-0.3,0-0.5,0.1-0.7,0.2
			c-0.2,0.2-0.3,0.4-0.3,0.6s0.1,0.4,0.3,0.6c0.1,0.1,0.2,0.2,0.4,0.2c0.2,0.1,0.3,0.2,0.6,0.3c0.2,0.1,0.4,0.2,0.5,0.2
			c0.3,0.1,0.5,0.3,0.7,0.5s0.3,0.5,0.3,0.8c0,0.4-0.2,0.7-0.5,1s-0.7,0.4-1.2,0.4c-0.5,0-0.9-0.2-1.2-0.5c-0.3-0.3-0.5-0.7-0.5-1.1
			h0.5c0,0.3,0.1,0.6,0.3,0.8c0.2,0.2,0.5,0.3,0.9,0.3c0.3,0,0.6-0.1,0.8-0.3c0.2-0.2,0.3-0.4,0.3-0.7c0-0.4-0.3-0.8-0.9-1
			c-0.6-0.2-1-0.4-1.2-0.6c-0.4-0.3-0.5-0.6-0.5-1c0-0.4,0.2-0.7,0.5-1c0.3-0.2,0.7-0.4,1.1-0.4c0.5,0,0.8,0.1,1.1,0.4
			C181.8,175.4,181.9,175.7,182,176z"/>
		<path class="st1" d="M184.4,174.8h0.5l0,0.4l0.1-0.1c0.1-0.1,0.2-0.2,0.3-0.2c0.2-0.1,0.3-0.1,0.5-0.1c0.2,0,0.3,0,0.5,0.1
			s0.2,0.2,0.3,0.3l0.1,0.1c0-0.1,0.1-0.1,0.1-0.1c0.1-0.1,0.2-0.2,0.4-0.2c0.2-0.1,0.3-0.1,0.5-0.1c0.3,0,0.5,0.1,0.7,0.3
			c0.2,0.2,0.3,0.4,0.3,0.8v4.2h-0.5v-4.1c0-0.2-0.1-0.4-0.2-0.5c-0.1-0.1-0.2-0.2-0.4-0.2c-0.2,0-0.4,0.1-0.5,0.2
			c-0.2,0.2-0.2,0.4-0.2,0.6v4h-0.5v-4.1c0-0.2-0.1-0.4-0.2-0.5c-0.1-0.1-0.2-0.2-0.4-0.2c-0.2,0-0.4,0.1-0.5,0.3s-0.2,0.4-0.2,0.6
			v4h-0.5V174.8z"/>
	</g>
	<g>
		<line class="st2" x1="126.1" y1="96.7" x2="126.1" y2="221"/>
		<line class="st2" x1="126.6" y1="97.2" x2="116.3" y2="97.2"/>
		<line class="st2" x1="126.6" y1="100.3" x2="122.5" y2="100.3"/>
		<line class="st2" x1="126.6" y1="103.3" x2="122.5" y2="103.3"/>
		<line class="st2" x1="126.6" y1="106.4" x2="122.5" y2="106.4"/>
		<line class="st2" x1="126.6" y1="109.5" x2="122.5" y2="109.5"/>
		<line class="st2" x1="126.6" y1="112.6" x2="120.5" y2="112.6"/>
		<line class="st2" x1="126.6" y1="115.7" x2="122.5" y2="115.7"/>
		<line class="st2" x1="126.6" y1="118.7" x2="122.5" y2="118.7"/>
		<line class="st2" x1="126.6" y1="121.8" x2="122.5" y2="121.8"/>
		<line class="st2" x1="126.6" y1="124.9" x2="122.5" y2="124.9"/>
		<line class="st2" x1="126.6" y1="128" x2="116.3" y2="128"/>
		<line class="st2" x1="126.6" y1="131.1" x2="122.5" y2="131.1"/>
		<line class="st2" x1="126.6" y1="134.2" x2="122.5" y2="134.2"/>
		<line class="st2" x1="126.6" y1="137.2" x2="122.5" y2="137.2"/>
		<line class="st2" x1="126.6" y1="140.3" x2="122.5" y2="140.3"/>
		<line class="st2" x1="126.6" y1="143.4" x2="120.5" y2="143.4"/>
		<line class="st2" x1="126.6" y1="146.5" x2="122.5" y2="146.5"/>
		<line class="st2" x1="126.6" y1="149.6" x2="122.5" y2="149.6"/>
		<line class="st2" x1="126.6" y1="152.7" x2="122.5" y2="152.7"/>
		<line class="st2" x1="126.6" y1="155.7" x2="122.5" y2="155.7"/>
		<line class="st2" x1="126.6" y1="158.8" x2="116.3" y2="158.8"/>
		<line class="st2" x1="126.6" y1="161.9" x2="122.5" y2="161.9"/>
		<line class="st2" x1="126.6" y1="165" x2="122.5" y2="165"/>
		<line class="st2" x1="126.6" y1="168.1" x2="122.5" y2="168.1"/>
		<line class="st2" x1="126.6" y1="171.2" x2="122.5" y2="171.2"/>
		<line class="st2" x1="126.6" y1="174.2" x2="120.5" y2="174.2"/>
		<line class="st2" x1="126.6" y1="177.3" x2="122.5" y2="177.3"/>
		<line class="st2" x1="126.6" y1="180.4" x2="122.5" y2="180.4"/>
		<line class="st2" x1="126.6" y1="183.5" x2="122.5" y2="183.5"/>
		<line class="st2" x1="126.6" y1="186.6" x2="122.5" y2="186.6"/>
		<line class="st2" x1="126.6" y1="189.6" x2="116.3" y2="189.6"/>
		<line class="st2" x1="126.6" y1="220.5" x2="116.3" y2="220.5"/>
		<line class="st2" x1="126.6" y1="192.7" x2="122.5" y2="192.7"/>
		<line class="st2" x1="126.6" y1="195.8" x2="122.5" y2="195.8"/>
		<line class="st2" x1="126.6" y1="198.9" x2="122.5" y2="198.9"/>
		<line class="st2" x1="126.6" y1="202" x2="122.5" y2="202"/>
		<line class="st2" x1="126.6" y1="205.1" x2="120.5" y2="205.1"/>
		<line class="st2" x1="126.6" y1="208.1" x2="122.5" y2="208.1"/>
		<line class="st2" x1="126.6" y1="211.2" x2="122.5" y2="211.2"/>
		<line class="st2" x1="126.6" y1="214.3" x2="122.5" y2="214.3"/>
		<line class="st2" x1="126.6" y1="217.4" x2="122.5" y2="217.4"/>
	</g>
</g>
</svg>
