<svg width="21" height="21" viewBox="0 0 21 21" fill="none" xmlns="http://www.w3.org/2000/svg">
<path d="M19.5 5.75H15V1.4375C15 0.646875 14.325 0 13.5 0H10.5V20.125H13.5C14.325 20.125 15 19.4781 15 18.6875V14.375H19.5C20.325 14.375 21 13.7281 21 12.9375V7.1875C21 6.39687 20.325 5.75 19.5 5.75Z" fill="#FE0201"/>
<path d="M7.5 0C6.675 0 6 0.646875 6 1.4375V5.75H1.5C0.675 5.75 0 6.39687 0 7.1875V12.9375C0 13.7281 0.675 14.375 1.5 14.375H6V18.6875C6 19.4781 6.675 20.125 7.5 20.125H10.5V0H7.5Z" fill="#FE0201"/>
</svg>
