<?xml version="1.0" encoding="utf-8"?>
<!-- Generator: Adobe Illustrator 23.1.1, SVG Export Plug-In . SVG Version: 6.00 Build 0)  -->
<svg version="1.1" id="Layer_1" xmlns="http://www.w3.org/2000/svg" xmlns:xlink="http://www.w3.org/1999/xlink" x="0px" y="0px"
	 viewBox="0 0 143.4 83.4" style="enable-background:new 0 0 143.4 83.4;" xml:space="preserve">
<style type="text/css">
	.st0{fill:#0957FF;}
	.st1{fill:#FFFFFF;}
</style>
<g>
	<path class="st0" d="M136.7,37.1c0-10.5-8.5-19-19-19h-92c-10.5,0-19,8.5-19,19s8.5,19,19,19h80.1l17.9,16v-17
		C131.3,52.6,136.7,45.5,136.7,37.1z"/>
	<g>
		<path class="st1" d="M27.4,42.7V32h-3.8v-1.3h9.1V32h-3.8v10.7H27.4z"/>
		<path class="st1" d="M32,38.3c0-2.5,1.8-4.6,4.3-4.6c2.6,0,4.2,2.1,4.2,4.7v0.3h-7c0.1,1.6,1.3,3,3.1,3c1,0,2-0.4,2.7-1.1l0.6,0.9
			c-0.9,0.9-2,1.3-3.5,1.3C33.9,42.9,32,41,32,38.3z M36.3,34.9c-1.9,0-2.8,1.6-2.8,2.9h5.7C39.1,36.5,38.3,34.9,36.3,34.9z"/>
		<path class="st1" d="M48.3,42.7l-2.6-3.6l-2.6,3.6h-1.5l3.3-4.5L41.7,34h1.6l2.4,3.3l2.4-3.3h1.6l-3.2,4.2l3.3,4.5H48.3z"/>
		<path class="st1" d="M61.9,42.7v-7.5h-4.5v7.5h-1.4V34h7.2v8.7H61.9z"/>
		<path class="st1" d="M65.5,38.3c0-2.5,1.7-4.6,4.3-4.6c2.6,0,4.3,2,4.3,4.6c0,2.5-1.7,4.6-4.3,4.6C67.1,42.9,65.5,40.8,65.5,38.3z
			 M72.7,38.3c0-1.8-1-3.3-2.9-3.3s-2.9,1.6-2.9,3.3c0,1.8,1,3.4,2.9,3.4S72.7,40.1,72.7,38.3z"/>
		<path class="st1" d="M83.8,42.7v-6.8L81,42.7h-0.5l-2.8-6.8v6.8h-1.4V34h1.8l2.7,6.4l2.6-6.4h1.8v8.7H83.8z"/>
		<path class="st1" d="M87.4,38.3c0-2.5,1.7-4.6,4.3-4.6c2.6,0,4.3,2,4.3,4.6c0,2.5-1.7,4.6-4.3,4.6C89,42.9,87.4,40.8,87.4,38.3z
			 M94.5,38.3c0-1.8-1-3.3-2.9-3.3s-2.9,1.6-2.9,3.3c0,1.8,1,3.4,2.9,3.4S94.5,40.1,94.5,38.3z"/>
		<path class="st1" d="M109.6,34v7.5h1.1v3.4h-1.4v-2.2H98.2V34h1.4v7.5h3.7V34h1.4v7.5h3.7V34H109.6z"/>
		<path class="st1" d="M113.9,34v3.4h3.3c1.8,0,2.7,1.2,2.7,2.7c0,1.4-1,2.7-2.7,2.7h-4.6V34H113.9z M113.9,38.5v3h3.1
			c1,0,1.5-0.6,1.5-1.5c0-0.8-0.5-1.5-1.5-1.5H113.9z"/>
	</g>
</g>
</svg>
