<?xml version="1.0" encoding="utf-8"?>
<!-- Generator: Adobe Illustrator 23.1.1, SVG Export Plug-In . SVG Version: 6.00 Build 0)  -->
<svg version="1.1" id="Layer_1" xmlns="http://www.w3.org/2000/svg" xmlns:xlink="http://www.w3.org/1999/xlink" x="0px" y="0px"
	 viewBox="0 0 163.4 139.5" style="enable-background:new 0 0 163.4 139.5;" xml:space="preserve">
<style type="text/css">
	.st0{fill:#0957FF;}
</style>
<g>
	<path class="st0" d="M55.2,29.8h51.9c0.7,0,1.3-0.6,1.3-1.3s-0.6-1.3-1.3-1.3H55.2c-0.7,0-1.3,0.6-1.3,1.3S54.5,29.8,55.2,29.8z"/>
	<path class="st0" d="M111.8,66.9c-0.9,0-1.6,0.7-1.6,1.6c0,0.9,0.7,1.6,1.6,1.6c0.9,0,1.6-0.7,1.6-1.6
		C113.4,67.6,112.7,66.9,111.8,66.9z"/>
	<path class="st0" d="M117.2,66.9c-0.9,0-1.6,0.7-1.6,1.6c0,0.9,0.7,1.6,1.6,1.6c0.9,0,1.6-0.7,1.6-1.6
		C118.8,67.6,118.1,66.9,117.2,66.9z"/>
	<path class="st0" d="M122.6,66.9c-0.9,0-1.6,0.7-1.6,1.6c0,0.9,0.7,1.6,1.6,1.6c0.9,0,1.6-0.7,1.6-1.6
		C124.1,67.6,123.4,66.9,122.6,66.9z"/>
	<path class="st0" d="M111.8,86.6c-0.9,0-1.6,0.7-1.6,1.6s0.7,1.6,1.6,1.6c0.9,0,1.6-0.7,1.6-1.6C113.4,87.3,112.7,86.6,111.8,86.6z
		"/>
	<path class="st0" d="M117.2,86.6c-0.9,0-1.6,0.7-1.6,1.6s0.7,1.6,1.6,1.6c0.9,0,1.6-0.7,1.6-1.6S118.1,86.6,117.2,86.6z"/>
	<path class="st0" d="M111.8,107.2c-0.9,0-1.6,0.7-1.6,1.6s0.7,1.6,1.6,1.6c0.9,0,1.6-0.7,1.6-1.6
		C113.4,107.9,112.7,107.2,111.8,107.2z"/>
	<path class="st0" d="M117.2,107.2c-0.9,0-1.6,0.7-1.6,1.6s0.7,1.6,1.6,1.6c0.9,0,1.6-0.7,1.6-1.6S118.1,107.2,117.2,107.2z"/>
	<path class="st0" d="M122.6,107.3c-0.9,0-1.6,0.7-1.6,1.6c0,0.9,0.7,1.6,1.6,1.6c0.9,0,1.6-0.7,1.6-1.6S123.4,107.3,122.6,107.3z"
		/>
	<path class="st0" d="M127.9,66.9c-0.9,0-1.6,0.7-1.6,1.6c0,0.9,0.7,1.6,1.6,1.6c0.9,0,1.6-0.7,1.6-1.6
		C129.5,67.6,128.8,66.9,127.9,66.9z"/>
	<path class="st0" d="M130.5,16.7H31.9c-9.6,0-17.5,7.8-17.5,17.5v68.6c0,9.6,7.8,17.5,17.5,17.5h98.6c9.6,0,17.5-7.8,17.5-17.5
		V34.2C147.9,24.6,140.1,16.7,130.5,16.7z M60.6,97.3V79.9h41.2v17.4H60.6z M101.8,100.1v17c0,0.1,0,0.3,0.1,0.4H60.6v-17.4H101.8z
		 M17.3,59.8h40.6v17.4H17.3V59.8z M60.6,59.8h41.2v17.4H60.6V59.8z M104.4,59.8h40.2c0.2,0,0.3,0,0.4-0.1v17.5h-40.7V59.8z
		 M145.1,57.1c-0.1,0-0.3-0.1-0.4-0.1h-40.2V39.7h40.7V57.1z M101.8,57.1H17.3V39.7h84.5V57.1z M17.3,79.9h40.6v17.4H17.3V79.9z
		 M104.4,79.9h40.7v17.4h-40.7V79.9z M31.9,19.6h98.6c8.1,0,14.6,6.6,14.6,14.6v2.7H17.3v-2.7C17.3,26.1,23.8,19.6,31.9,19.6z
		 M17.3,102.8v-2.7h40.6v17.4h-26C23.8,117.4,17.3,110.9,17.3,102.8z M130.5,117.4h-26.1c0-0.1,0.1-0.2,0.1-0.4v-17h40.7v2.7
		C145.1,110.9,138.5,117.4,130.5,117.4z"/>
	<path class="st0" d="M25.2,50.4h30.4c0.7,0,1.3-0.6,1.3-1.3s-0.6-1.3-1.3-1.3H25.2c-0.7,0-1.3,0.6-1.3,1.3S24.5,50.4,25.2,50.4z"/>
	<path class="st0" d="M31.5,67.4h-6.3c-0.7,0-1.3,0.6-1.3,1.3s0.6,1.3,1.3,1.3h6.3c0.7,0,1.3-0.6,1.3-1.3S32.2,67.4,31.5,67.4z"/>
	<path class="st0" d="M31.5,87.1h-6.3c-0.7,0-1.3,0.6-1.3,1.3s0.6,1.3,1.3,1.3h6.3c0.7,0,1.3-0.6,1.3-1.3S32.2,87.1,31.5,87.1z"/>
	<path class="st0" d="M31.5,107.7h-6.3c-0.7,0-1.3,0.6-1.3,1.3s0.6,1.3,1.3,1.3h6.3c0.7,0,1.3-0.6,1.3-1.3S32.2,107.7,31.5,107.7z"
		/>
	<path class="st0" d="M76.2,67.4h-9.8c-0.7,0-1.3,0.6-1.3,1.3s0.6,1.3,1.3,1.3h9.8c0.7,0,1.3-0.6,1.3-1.3S77,67.4,76.2,67.4z"/>
	<path class="st0" d="M76.2,87.1h-9.8c-0.7,0-1.3,0.6-1.3,1.3s0.6,1.3,1.3,1.3h9.8c0.7,0,1.3-0.6,1.3-1.3S77,87.1,76.2,87.1z"/>
	<path class="st0" d="M66.4,110.3h9.8c0.7,0,1.3-0.6,1.3-1.3s-0.6-1.3-1.3-1.3h-9.8c-0.7,0-1.3,0.6-1.3,1.3S65.7,110.3,66.4,110.3z"
		/>
	<path class="st0" d="M95.9,67.4H84.3c-0.7,0-1.3,0.6-1.3,1.3s0.6,1.3,1.3,1.3h11.6c0.7,0,1.3-0.6,1.3-1.3S96.7,67.4,95.9,67.4z"/>
	<path class="st0" d="M88.8,87.1h-4.5c-0.7,0-1.3,0.6-1.3,1.3s0.6,1.3,1.3,1.3h4.5c0.7,0,1.3-0.6,1.3-1.3S89.5,87.1,88.8,87.1z"/>
	<path class="st0" d="M84.3,110.3h9.8c0.7,0,1.3-0.6,1.3-1.3s-0.6-1.3-1.3-1.3h-9.8c-0.7,0-1.3,0.6-1.3,1.3S83.6,110.3,84.3,110.3z"
		/>
	<path class="st0" d="M64.6,50.4h17c0.7,0,1.3-0.6,1.3-1.3s-0.6-1.3-1.3-1.3h-17c-0.7,0-1.3,0.6-1.3,1.3S63.9,50.4,64.6,50.4z"/>
	<path class="st0" d="M115.6,50.4h17c0.7,0,1.3-0.6,1.3-1.3s-0.6-1.3-1.3-1.3h-17c-0.7,0-1.3,0.6-1.3,1.3S114.9,50.4,115.6,50.4z"/>
</g>
</svg>
