<?xml version="1.0" encoding="utf-8"?>
<!-- Generator: Adobe Illustrator 23.1.1, SVG Export Plug-In . SVG Version: 6.00 Build 0)  -->
<svg version="1.1" id="Layer_1" xmlns="http://www.w3.org/2000/svg" xmlns:xlink="http://www.w3.org/1999/xlink" x="0px" y="0px"
	 viewBox="0 0 163.4 139.5" style="enable-background:new 0 0 163.4 139.5;" xml:space="preserve">
<style type="text/css">
	.st0{fill:#0957FF;}
</style>
<g>
	<path class="st0" d="M105.4,104.7H75c-0.7,0-1.3,0.6-1.3,1.3s0.6,1.3,1.3,1.3h30.4c0.7,0,1.3-0.6,1.3-1.3S106.2,104.7,105.4,104.7z
		"/>
	<path class="st0" d="M120.7,104.7h-8.1c-0.7,0-1.3,0.6-1.3,1.3s0.6,1.3,1.3,1.3h8.1c0.7,0,1.3-0.6,1.3-1.3S121.4,104.7,120.7,104.7
		z"/>
	<path class="st0" d="M123,20.1H40.4c-4.6,0-8.4,3.7-8.4,8.4v82.6c0,4.6,3.7,8.4,8.4,8.4H123c4.6,0,8.4-3.7,8.4-8.4V28.4
		C131.4,23.8,127.6,20.1,123,20.1z M128.7,111.1c0,3.1-2.5,5.7-5.7,5.7H40.4c-3.1,0-5.7-2.5-5.7-5.7V28.4c0-3.1,2.5-5.7,5.7-5.7H123
		c3.1,0,5.7,2.5,5.7,5.7V111.1z"/>
	<path class="st0" d="M121.1,28.6H42.4c-1,0-1.8,0.8-1.8,1.8v63.5c0,1,0.8,1.8,1.8,1.8h78.7c1,0,1.8-0.8,1.8-1.8V30.4
		C122.9,29.4,122.1,28.6,121.1,28.6z M120.2,31.3v29.1H96.9c-0.6,0-1.1,0.4-1.3,0.9l-3.5,9.5l-4.7-17.4c-0.2-0.6-0.7-1-1.3-1
		c-0.6,0-1.1,0.4-1.3,0.9l-3.3,10.7h-4.4c-0.6,0-1.2,0.4-1.3,1l-3.4,14l-2.9-38.9c0-0.7-0.6-1.2-1.2-1.2c-0.7-0.1-1.3,0.4-1.4,1
		l-6.9,25H43.2V31.3H120.2z M43.2,93V67.5h17.9c0.6,0,1.1-0.4,1.3-1L67.5,48l3,39.7c0,0.7,0.6,1.2,1.2,1.2c0,0,0.1,0,0.1,0
		c0.6,0,1.2-0.4,1.3-1l5.1-21.3h4.3c0.6,0,1.1-0.4,1.3-0.9l2.2-7.2l4.6,17c0.2,0.6,0.7,1,1.2,1c0.6,0,1.1-0.3,1.3-0.9l4.6-12.5h22.3
		v30H43.2z"/>
	<path class="st0" d="M43.5,103.4C43.5,103.4,43.5,103.4,43.5,103.4c-0.6,0-1.2,0.2-1.7,0.7c-0.5,0.4-0.7,1-0.7,1.7
		c0,1.3,1,2.4,2.3,2.4c0,0,0,0,0,0c0.6,0,1.2-0.2,1.7-0.7c0.5-0.4,0.7-1,0.7-1.7c0-0.6-0.2-1.2-0.7-1.7
		C44.7,103.7,44.1,103.4,43.5,103.4z"/>
	<path class="st0" d="M48.8,103.5C48.8,103.5,48.8,103.5,48.8,103.5c-1.3,0-2.4,1-2.4,2.3c0,0.6,0.2,1.2,0.7,1.7
		c0.4,0.5,1,0.7,1.7,0.7c0,0,0,0,0,0c0.6,0,1.2-0.2,1.7-0.7c0.5-0.4,0.7-1,0.7-1.7c0-0.6-0.2-1.2-0.7-1.7S49.5,103.5,48.8,103.5z"/>
	<path class="st0" d="M54.2,103.5c-0.7,0-1.2,0.2-1.7,0.7c-0.5,0.4-0.7,1-0.7,1.7c0,0.6,0.2,1.2,0.7,1.7c0.4,0.5,1,0.7,1.7,0.7
		c0,0,0,0,0,0c0.6,0,1.2-0.2,1.7-0.7c0.5-0.4,0.7-1,0.7-1.7C56.6,104.6,55.5,103.5,54.2,103.5z"/>
</g>
</svg>
