<?xml version="1.0" encoding="utf-8"?>
<!-- Generator: Adobe Illustrator 23.1.1, SVG Export Plug-In . SVG Version: 6.00 Build 0)  -->
<svg version="1.1" id="Layer_1" xmlns="http://www.w3.org/2000/svg" xmlns:xlink="http://www.w3.org/1999/xlink" x="0px" y="0px"
	 viewBox="0 0 163.4 139.5" style="enable-background:new 0 0 163.4 139.5;" xml:space="preserve">
<style type="text/css">
	.st0{fill:#0957FF;}
</style>
<g>
	<path class="st0" d="M129.6,45.8c-5.1-3.3-11.2-4.4-17.2-3.2c-6,1.3-11.1,4.8-14.4,9.9L91.9,62l-7.6-35.8c-1.3-6-4.8-11.1-9.9-14.4
		c-5.1-3.3-11.2-4.4-17.2-3.2c-6,1.3-11.1,4.8-14.4,9.9c-3.3,5.1-4.4,11.2-3.2,17.2l10.8,50.8c1.8,8.3,8.1,14.9,16.2,17.2
		c-0.7,3.1-0.7,6.4,0,9.6c1.3,6,4.8,11.1,9.9,14.4c3.7,2.4,8,3.7,12.4,3.7c1.6,0,3.2-0.2,4.8-0.5c6-1.3,11.1-4.8,14.4-9.9l17.5-27
		c0.4-0.6,0.2-1.5-0.4-1.9c-0.6-0.4-1.5-0.2-1.9,0.4l-2.9,4.4L86.6,75.1l13.6-21c2.9-4.5,7.4-7.6,12.7-8.7
		c5.3-1.1,10.6-0.1,15.2,2.8c9.3,6,12,18.5,5.9,27.9l-3.8,5.9c-0.4,0.6-0.2,1.5,0.4,1.9c0.6,0.4,1.5,0.2,1.9-0.4l3.8-5.9
		C143.2,66.9,140.1,52.7,129.6,45.8z M45.1,20c2.9-4.5,7.4-7.6,12.7-8.7c5.3-1.1,10.6-0.1,15.2,2.8c4.5,2.9,7.6,7.4,8.7,12.7
		l5.2,24.5l-39.4,8.4l-5.2-24.5C41.1,29.9,42.1,24.5,45.1,20z M53.1,85.9l-5-23.6l39.4-8.4l2.4,11.3l-20.1,31c-1,1.6-1.8,3.3-2.4,5
		C60.2,99.1,54.6,93.2,53.1,85.9z M119,99.2l-13.2,20.3c-2.9,4.5-7.4,7.6-12.7,8.7c-5.3,1.1-10.6,0.1-15.2-2.8
		c-4.5-2.9-7.6-7.4-8.7-12.7c-1.1-5.3-0.1-10.6,2.8-15.2l13.2-20.3L119,99.2z"/>
	<path class="st0" d="M101.9,58.1l-9.4,14.5c-0.4,0.6-0.2,1.5,0.4,1.9c0.2,0.1,0.5,0.2,0.7,0.2c0.4,0,0.9-0.2,1.1-0.6l9.4-14.5
		c2.4-3.8,6.6-6.1,11-6.3c0.7,0,1.3-0.7,1.3-1.4c0-0.7-0.7-1.3-1.4-1.3C109.8,50.8,104.8,53.6,101.9,58.1z"/>
	<path class="st0" d="M47.9,44.5c0.1,0.6,0.7,1.1,1.3,1.1c0.1,0,0.2,0,0.3,0c0.7-0.2,1.2-0.9,1-1.6l-1.6-7.7
		c-0.9-4.4,0.3-9,3.3-12.3c0.5-0.5,0.5-1.4-0.1-1.9c-0.5-0.5-1.4-0.5-1.9,0.1c-3.6,3.9-5.1,9.4-4,14.6L47.9,44.5z"/>
	<path class="st0" d="M51.8,49.7c-0.2-0.7-0.9-1.2-1.6-1c-0.7,0.2-1.2,0.9-1,1.6l0.7,3.4c0.1,0.6,0.7,1.1,1.3,1.1c0.1,0,0.2,0,0.3,0
		c0.7-0.2,1.2-0.9,1-1.6L51.8,49.7z"/>
</g>
</svg>
