<svg width="164" height="140" viewBox="0 0 164 140" fill="none" xmlns="http://www.w3.org/2000/svg">
<path d="M82.5 23C55.2025 23 33 41.955 33 65.2598C33 74.3441 36.3314 82.9935 42.6217 90.271C42.3082 92.2953 41.6811 94.2193 40.7013 96.0094C39.2512 98.6527 37.4287 100.326 36.0962 101.547C34.6069 102.902 33.0784 104.324 33.921 106.131C34.7637 107.971 37.7031 108.607 41.4264 108.607C45.0909 108.607 49.5 107.988 53.4584 107.252C56.927 106.599 60.3563 105.696 63.6289 104.558C63.7464 104.525 63.8444 104.475 63.9424 104.408C69.8213 106.449 76.0529 107.486 82.4804 107.486C94.9632 107.486 106.878 103.504 116.029 96.2938C116.891 95.6079 116.95 94.4535 116.147 93.7007C115.343 92.9645 113.991 92.9144 113.109 93.6003C104.742 100.192 93.8658 103.822 82.4608 103.822C76.2488 103.822 70.2328 102.768 64.5695 100.677C63.7072 100.359 62.747 100.56 62.1591 101.112C62.1004 101.129 62.0612 101.129 62.0024 101.145C58.9454 102.199 55.7708 103.036 52.5178 103.638C46.1686 104.826 40.5445 105.127 38.4086 104.742C38.6437 104.508 38.9376 104.241 39.212 103.99C40.6621 102.668 42.8373 100.66 44.5618 97.4983C45.8551 95.1562 46.6586 92.5965 46.9721 89.903C47.0309 89.3509 46.7957 88.8323 46.3646 88.4475C46.3254 88.3973 46.3058 88.3304 46.247 88.2802C40.3682 81.5715 37.2524 73.5746 37.2524 65.1761C37.2524 43.8957 57.5344 26.5802 82.4608 26.5802C107.387 26.5802 127.708 43.9793 127.708 65.2598C127.708 72.4704 125.357 79.497 120.928 85.6034C120.301 86.4566 120.615 87.5942 121.614 88.1296C122.613 88.6649 123.946 88.3973 124.573 87.544C129.433 80.8688 132 73.173 132 65.2765C132 41.955 109.798 23 82.5 23Z" fill="#0A57FF"/>
<path d="M100.92 51.3405C100.568 43.5109 93.1211 37.1535 83.9501 36.8524C79.0902 36.6851 74.5047 38.1908 71.0166 41.0516C67.5285 43.9124 65.608 47.777 65.608 51.9093C65.608 52.9131 66.5682 53.7329 67.744 53.7329C68.9198 53.7329 69.88 52.9131 69.88 51.9093C69.88 48.7808 71.3301 45.8531 73.9756 43.6782C76.6211 41.5033 80.0504 40.3824 83.7737 40.4995C90.5932 40.717 96.3545 45.6356 96.6092 51.4576C96.8248 56.4766 92.4744 59.8393 87.7125 62.7336C84.2832 64.8248 81.089 67.3343 81.089 71.5168V81.6384C81.089 82.6422 82.0492 83.462 83.225 83.462C84.4008 83.462 85.361 82.6422 85.361 81.6384V71.5168C85.361 69.3921 86.6152 67.8864 90.1817 65.7283C95.6686 62.4157 101.214 58.1161 100.92 51.3405Z" fill="#0A57FF"/>
<path d="M83.2642 86.9418C80.9322 86.9418 79.0314 88.5646 79.0314 90.5554C79.0314 92.5463 80.9322 94.1691 83.2642 94.1691C85.5961 94.1691 87.4969 92.5463 87.4969 90.5554C87.4969 88.5646 85.5961 86.9418 83.2642 86.9418Z" fill="#0A57FF"/>
</svg>
