<?xml version="1.0" encoding="utf-8"?>
<!-- Generator: Adobe Illustrator 23.1.1, SVG Export Plug-In . SVG Version: 6.00 Build 0)  -->
<svg version="1.1" id="Layer_1" xmlns="http://www.w3.org/2000/svg" xmlns:xlink="http://www.w3.org/1999/xlink" x="0px" y="0px"
	 viewBox="0 0 58 62" style="enable-background:new 0 0 58 62;" xml:space="preserve">
<style type="text/css">
	.st0{fill:#3A446F;}
	.st1{fill:#FFFFFF;}
</style>
<g>
	<g>
		<path class="st0" d="M45.3,54.5H12.7c-1.5,0-2.7-1.2-2.7-2.7V10.2c0-1.5,1.2-2.7,2.7-2.7h24.1c0.7,0,1.4,0.3,1.9,0.8l8.6,8.8
			c0.5,0.5,0.8,1.2,0.8,1.9v32.8C47.9,53.4,46.8,54.5,45.3,54.5z M12.7,9.5c-0.5,0-0.7,0.4-0.7,0.7v41.6c0,0.5,0.4,0.7,0.7,0.7h32.6
			c0.7,0,0.8-0.6,0.8-0.8l0-32.7c0-0.2-0.1-0.4-0.2-0.5l-8.6-8.8c-0.1-0.1-0.3-0.2-0.5-0.2H12.7z"/>
	</g>
	<path class="st0" d="M35.8,22.5H16.2c-1.2,0-2.2-1-2.2-2.2v-5.7c0-1.2,1-2.2,2.2-2.2h19.7c1.2,0,2.2,1,2.2,2.2v5.7
		C38,21.5,37,22.5,35.8,22.5z"/>
	<g>
		<path class="st1" d="M20.3,19.6v-3.2h-1.2v-0.9h3.4v0.9h-1.2v3.2H20.3z"/>
		<path class="st1" d="M26.3,19.6l-0.9-1.4l-0.9,1.4h-1.3l1.4-2.1l-1.4-2h1.3l0.8,1.3l0.8-1.3h1.3l-1.3,2l1.4,2.1H26.3z"/>
		<path class="st1" d="M29.4,19.6v-3.2h-1.2v-0.9h3.4v0.9h-1.2v3.2H29.4z"/>
	</g>
	<g>
		<path class="st0" d="M40,48.5H16c-0.6,0-1-0.4-1-1s0.4-1,1-1h24c0.6,0,1,0.4,1,1S40.6,48.5,40,48.5z"/>
	</g>
	<g>
		<path class="st0" d="M40,41.8H16c-0.6,0-1-0.4-1-1s0.4-1,1-1h24c0.6,0,1,0.4,1,1S40.6,41.8,40,41.8z"/>
	</g>
	<g>
		<path class="st0" d="M40,35.2H16c-0.6,0-1-0.4-1-1s0.4-1,1-1h24c0.6,0,1,0.4,1,1S40.6,35.2,40,35.2z"/>
	</g>
	<g>
		<path class="st0" d="M40,28.5H16c-0.6,0-1-0.4-1-1s0.4-1,1-1h24c0.6,0,1,0.4,1,1S40.6,28.5,40,28.5z"/>
	</g>
</g>
</svg>
