<?xml version="1.0" encoding="utf-8"?>
<!-- Generator: Adobe Illustrator 23.1.1, SVG Export Plug-In . SVG Version: 6.00 Build 0)  -->
<svg version="1.1" id="Layer_1" xmlns="http://www.w3.org/2000/svg" xmlns:xlink="http://www.w3.org/1999/xlink" x="0px" y="0px"
	 viewBox="0 0 58 62" style="enable-background:new 0 0 58 62;" xml:space="preserve">
<style type="text/css">
	.st0{fill:#3A446F;}
	.st1{fill:#FFFFFF;}
</style>
<g>
	<g>
		<path class="st0" d="M35.8,22.5H16.2c-1.2,0-2.2-1-2.2-2.2v-5.7c0-1.2,1-2.2,2.2-2.2h19.7c1.2,0,2.2,1,2.2,2.2v5.7
			C38,21.5,37,22.5,35.8,22.5z"/>
	</g>
	<g>
		<g>
			<path class="st1" d="M22.2,19.6l-0.9-1.4l-0.9,1.4h-1.3l1.4-2.1l-1.4-2h1.3l0.8,1.3l0.8-1.3h1.3l-1.3,2l1.4,2.1H22.2z"/>
		</g>
		<g>
			<path class="st1" d="M24.4,19.6v-4.1h1.1v3.2h1.7v0.9H24.4z"/>
		</g>
		<g>
			<path class="st1" d="M28,19l0.6-0.8c0.3,0.3,0.8,0.5,1.3,0.5c0.4,0,0.6-0.1,0.6-0.3c0-0.6-2.3-0.1-2.3-1.7c0-0.7,0.6-1.3,1.7-1.3
				c0.7,0,1.2,0.2,1.7,0.6l-0.6,0.8c-0.3-0.3-0.8-0.4-1.2-0.4c-0.3,0-0.4,0.1-0.4,0.3c0,0.5,2.3,0.1,2.3,1.7c0,0.8-0.6,1.4-1.7,1.4
				C29,19.7,28.4,19.4,28,19z"/>
		</g>
	</g>
	<g>
		<path class="st0" d="M47.2,17.1l-8.6-8.8c-0.5-0.5-1.2-0.8-1.9-0.8H12.7c-1.5,0-2.7,1.2-2.7,2.7v41.7c0,1.5,1.2,2.7,2.7,2.7h32.7
			c1.5,0,2.7-1.2,2.7-2.7V19C48,18.3,47.7,17.6,47.2,17.1z M46,51.8c0,0.4-0.3,0.7-0.7,0.7H12.7c-0.4,0-0.7-0.3-0.7-0.7V10.2
			c0-0.4,0.3-0.7,0.7-0.7h24.1c0.2,0,0.4,0.1,0.5,0.2l8.6,8.8c0.1,0.1,0.2,0.3,0.2,0.5V51.8z"/>
		<path class="st0" d="M38.4,26.5H17.6c-1.4,0-2.6,1.1-2.6,2.6v16.9c0,1.4,1.1,2.6,2.6,2.6h20.9c1.4,0,2.6-1.1,2.6-2.6V29.1
			C41,27.6,39.9,26.5,38.4,26.5z M17,35.2h10v4.7H17V35.2z M29,35.2h10v4.7H29V35.2z M39,29.1v4.1H29v-4.7h9.4
			C38.8,28.5,39,28.7,39,29.1z M17.6,28.5H27v4.7H17v-4.1C17,28.7,17.2,28.5,17.6,28.5z M17,45.9v-4.1h10v4.7h-9.4
			C17.2,46.5,17,46.3,17,45.9z M38.4,46.5H29v-4.7h10v4.1C39,46.3,38.8,46.5,38.4,46.5z"/>
	</g>
</g>
</svg>
