<?xml version="1.0" encoding="utf-8"?>
<!-- Generator: Adobe Illustrator 23.1.1, SVG Export Plug-In . SVG Version: 6.00 Build 0)  -->
<svg version="1.1" id="Layer_1" xmlns="http://www.w3.org/2000/svg" xmlns:xlink="http://www.w3.org/1999/xlink" x="0px" y="0px"
	 viewBox="0 0 58 62" style="enable-background:new 0 0 58 62;" xml:space="preserve">
<style type="text/css">
	.st0{fill:#3A446F;}
	.st1{fill:#FFFFFF;}
</style>
<g>
	<g>
		<path class="st0" d="M45.3,54.5H12.7c-1.5,0-2.7-1.2-2.7-2.7V10.2c0-1.5,1.2-2.7,2.7-2.7h24.1c0.7,0,1.4,0.3,1.9,0.8l8.6,8.8
			c0.5,0.5,0.8,1.2,0.8,1.9v32.8C47.9,53.4,46.8,54.5,45.3,54.5z M12.7,9.5c-0.5,0-0.7,0.4-0.7,0.7v41.6c0,0.5,0.4,0.7,0.7,0.7h32.6
			c0.7,0,0.8-0.6,0.8-0.8l0-32.7c0-0.2-0.1-0.4-0.2-0.5l-8.6-8.8c-0.1-0.1-0.3-0.2-0.5-0.2H12.7z"/>
	</g>
	<path class="st0" d="M35.8,22.5H16.2c-1.2,0-2.2-1-2.2-2.2v-5.7c0-1.2,1-2.2,2.2-2.2h19.7c1.2,0,2.2,1,2.2,2.2v5.7
		C38,21.5,37,22.5,35.8,22.5z"/>
	<g>
		<path class="st1" d="M18.4,19.6v-4.1h1.7c1.3,0,2.2,0.8,2.2,2.1s-0.9,2.1-2.2,2.1h-1.7V19.6z M21.3,17.5c0-0.6-0.4-1.1-1.1-1.1
			h-0.7v2.3h0.7C20.8,18.7,21.3,18.2,21.3,17.5z"/>
		<path class="st1" d="M23.3,17.6c0-1.3,1-2.1,2.2-2.1c1.3,0,2.2,0.9,2.2,2.1s-0.9,2.1-2.2,2.1C24.2,19.7,23.3,18.8,23.3,17.6z
			 M26.6,17.6c0-0.7-0.4-1.2-1.1-1.2s-1.1,0.5-1.1,1.2s0.4,1.2,1.1,1.2C26.2,18.8,26.6,18.2,26.6,17.6z"/>
		<path class="st1" d="M28.7,17.6c0-1.3,1-2.1,2.2-2.1c1,0,1.5,0.6,1.8,1.1L31.8,17c-0.1-0.3-0.5-0.6-0.9-0.6
			c-0.7,0-1.2,0.5-1.2,1.2s0.5,1.2,1.2,1.2c0.4,0,0.8-0.3,0.9-0.6l0.9,0.4c-0.3,0.5-0.8,1.1-1.8,1.1C29.6,19.7,28.7,18.8,28.7,17.6z
			"/>
	</g>
	<g>
		<path class="st0" d="M40,48.5H16c-0.6,0-1-0.4-1-1s0.4-1,1-1h24c0.6,0,1,0.4,1,1S40.6,48.5,40,48.5z"/>
	</g>
	<g>
		<path class="st0" d="M40,41.8H16c-0.6,0-1-0.4-1-1s0.4-1,1-1h24c0.6,0,1,0.4,1,1S40.6,41.8,40,41.8z"/>
	</g>
	<g>
		<path class="st0" d="M40,35.2H29c-0.6,0-1-0.4-1-1s0.4-1,1-1h11c0.6,0,1,0.4,1,1S40.6,35.2,40,35.2z"/>
	</g>
	<g>
		<path class="st0" d="M40,28.5H29c-0.6,0-1-0.4-1-1s0.4-1,1-1h11c0.6,0,1,0.4,1,1S40.6,28.5,40,28.5z"/>
	</g>
	<g>
		<path class="st0" d="M21.7,35.2h-4.5c-1.2,0-2.3-1.1-2.3-2.3v-4.1c0-1.2,1.1-2.3,2.3-2.3h4.5c1.2,0,2.3,1.1,2.3,2.3v4.1
			C24,34.1,22.9,35.2,21.7,35.2z M17.2,28.5c-0.1,0-0.3,0.2-0.3,0.3v4.1c0,0.1,0.2,0.3,0.3,0.3h4.5c0.1,0,0.3-0.2,0.3-0.3v-4.1
			c0-0.1-0.2-0.3-0.3-0.3H17.2z"/>
	</g>
</g>
</svg>
