<?xml version="1.0" encoding="utf-8"?>
<!-- Generator: Adobe Illustrator 23.1.1, SVG Export Plug-In . SVG Version: 6.00 Build 0)  -->
<svg version="1.1" id="Layer_1" xmlns="http://www.w3.org/2000/svg" xmlns:xlink="http://www.w3.org/1999/xlink" x="0px" y="0px"
	 viewBox="0 0 46.9 61.9" style="enable-background:new 0 0 46.9 61.9;" xml:space="preserve">
<style type="text/css">
	.st0{fill:#3A446F;}
	.st1{fill:#FFFFFF;}
</style>
<g>
	<g>
		<path class="st0" d="M40,56H7.3c-1.5,0-2.7-1.2-2.7-2.7V11.7C4.6,10.2,5.8,9,7.3,9h24.1c0.7,0,1.4,0.3,1.9,0.8l8.6,8.8
			c0.5,0.5,0.8,1.2,0.8,1.9v32.8C42.7,54.9,41.5,56,40,56z M7.3,11c-0.5,0-0.7,0.4-0.7,0.7v41.6c0,0.5,0.4,0.7,0.7,0.7H40
			c0.4,0,0.7-0.3,0.7-0.7V20.5c0-0.2-0.1-0.4-0.2-0.5l-8.6-8.8c-0.1-0.1-0.3-0.2-0.5-0.2H7.3z"/>
	</g>
	<g>
		<path class="st0" d="M30.5,24H10.8c-1.2,0-2.2-1-2.2-2.2v-5.7c0-1.2,1-2.2,2.2-2.2h19.7c1.2,0,2.2,1,2.2,2.2v5.7
			C32.7,23,31.7,24,30.5,24z"/>
	</g>
	<g>
		<g>
			<path class="st1" d="M13.8,21.1V17h2.1c0.9,0,1.4,0.6,1.4,1.4c0,0.7-0.5,1.4-1.4,1.4h-1v1.4L13.8,21.1L13.8,21.1z M16.2,18.4
				c0-0.3-0.2-0.4-0.5-0.4h-0.9v0.9h0.9C16,18.8,16.2,18.6,16.2,18.4z"/>
		</g>
		<g>
			<path class="st1" d="M18.4,21.1V17h1.7c1.3,0,2.2,0.8,2.2,2.1c0,1.3-0.9,2.1-2.2,2.1h-1.7V21.1z M21.3,19c0-0.6-0.4-1.1-1.1-1.1
				h-0.7v2.3h0.7C20.9,20.2,21.3,19.7,21.3,19z"/>
		</g>
		<g>
			<path class="st1" d="M23.5,21.1V17h3v0.9h-2v0.6h1.9v0.9h-1.9V21h-1V21.1z"/>
		</g>
	</g>
	<g>
		<path class="st0" d="M16.1,49.9c-0.6-0.1-1.3-0.2-2.1-0.8c-0.8-0.7-0.8-1.4-0.7-1.8c0.1-0.5,0.3-0.9,0.8-1.4
			c0.3-0.3,0.7-0.7,1.3-1c0.9-0.6,2-1.2,3.4-1.8c0.4-0.2,0.7-0.3,1.1-0.4c0.3-0.6,1-2.3,1.8-4.3c0.1-0.2,0.2-0.5,0.3-0.7
			c-0.8-1-1.3-2.1-1.7-3c-0.4-1.2-0.4-2.4-0.1-3.6c0.2-0.7,0.5-1.2,1-1.6s1-0.5,1.6-0.5c0.3,0,0.7,0.1,1,0.3
			c0.3,0.2,0.6,0.4,0.8,0.7c0.2,0.3,0.4,0.6,0.5,0.9c0.1,0.4,0.2,0.7,0.2,1.1c0,0.7-0.1,1.8-0.6,3.2c-0.2,0.6-0.4,1.3-0.7,2.1
			c1,1.2,2.2,2.2,3.2,3.1c0,0,0,0,0.1,0c1.2-0.2,2.2-0.3,3-0.2c0.5,0,1,0.1,1.4,0.3c0.5,0.2,0.9,0.5,1.1,0.9
			c0.3,0.4,0.4,0.9,0.3,1.4c-0.1,0.4-0.3,0.9-0.7,1.2c-0.5,0.4-1.1,0.6-1.8,0.6c-0.1,0-0.2,0-0.3,0c-0.9-0.1-1.7-0.5-2.4-1.1
			c-0.3-0.3-0.7-0.6-1.1-1c-1.4,0.3-3.9,1.1-5.5,1.7c-0.2,0.5-0.5,1.3-0.9,2c-0.4,0.9-0.9,1.6-1.3,2.2c-0.6,0.8-1.3,1.3-2,1.5
			C16.8,50,16.4,49.9,16.1,49.9z M16.4,48c0.4-0.1,0.7-0.4,1.1-0.9s0.7-1.1,1.1-1.8c0-0.1,0.1-0.1,0.1-0.2c-1,0.5-1.8,0.9-2.4,1.3
			c-0.4,0.3-0.7,0.5-1,0.8C14.8,47.7,15.4,48.3,16.4,48z M29,42c1,0.9,1.9,0.9,2.1,0.4c0.1-0.3-0.2-0.5-1-0.5
			C29.7,41.8,29.4,41.9,29,42z M23.2,39.3c-0.4,0.9-0.7,1.8-1,2.5c0.7-0.3,1.8-0.6,2.7-0.8C24.4,40.4,23.8,39.8,23.2,39.3z
			 M22.4,30.8c-0.3,0-0.5,0.4-0.6,0.7c-0.4,1.3,0,2.7,0.8,4c0.7-2,0.7-3,0.7-3.4C23.3,31.3,22.8,30.9,22.4,30.8L22.4,30.8z"/>
	</g>
</g>
</svg>
