<?xml version="1.0" encoding="utf-8"?>
<!-- Generator: Adobe Illustrator 23.1.1, SVG Export Plug-In . SVG Version: 6.00 Build 0)  -->
<svg version="1.1" id="Layer_1" xmlns="http://www.w3.org/2000/svg" xmlns:xlink="http://www.w3.org/1999/xlink" x="0px" y="0px"
	 viewBox="0 0 163.4 139.5" style="enable-background:new 0 0 163.4 139.5;" xml:space="preserve">
<style type="text/css">
	.st0{fill:#0957FF;}
</style>
<g>
	<path class="st0" d="M75,30.5h15.2c0.7,0,1.3-0.6,1.3-1.3s-0.6-1.3-1.3-1.3H75c-0.7,0-1.3,0.6-1.3,1.3S74.3,30.5,75,30.5z"/>
	<path class="st0" d="M75,25.1h15.2c0.7,0,1.3-0.6,1.3-1.3s-0.6-1.3-1.3-1.3H75c-0.7,0-1.3,0.6-1.3,1.3S74.3,25.1,75,25.1z"/>
	<path class="st0" d="M39.4,61.4c-0.9,0-1.6,0.7-1.6,1.6c0,0.9,0.7,1.6,1.6,1.6c0.9,0,1.6-0.7,1.6-1.6C41,62.1,40.3,61.4,39.4,61.4z
		"/>
	<path class="st0" d="M44.8,61.4c-0.9,0-1.6,0.7-1.6,1.6c0,0.9,0.7,1.6,1.6,1.6c0.9,0,1.6-0.7,1.6-1.6
		C46.4,62.1,45.7,61.4,44.8,61.4z"/>
	<path class="st0" d="M39.4,66.7c-0.9,0-1.6,0.7-1.6,1.6c0,0.9,0.7,1.6,1.6,1.6c0.9,0,1.6-0.7,1.6-1.6C41,67.4,40.3,66.7,39.4,66.7z
		"/>
	<path class="st0" d="M44.8,66.7c-0.9,0-1.6,0.7-1.6,1.6c0,0.9,0.7,1.6,1.6,1.6c0.9,0,1.6-0.7,1.6-1.6
		C46.4,67.4,45.7,66.7,44.8,66.7z"/>
	<path class="st0" d="M131.4,63.9c-0.5-26.9-22.6-48.7-49.7-48.7S32.6,37,32.1,63.9c0,0,0,0.1,0,0.1v50.1c0,0.7,0.6,1.3,1.3,1.3
		h16.1c0.7,0,1.3-0.6,1.3-1.3s-0.6-1.3-1.3-1.3H34.7V81.1c2.9,8.5,8.1,16.1,15.2,22c0.6,0.5,1.4,0.4,1.9-0.2
		c0.5-0.6,0.4-1.4-0.2-1.9c-10.8-9-16.9-22.1-16.9-36.1c0-25.9,21.1-47,47-47c25.9,0,47,21.1,47,47c0,14-6.2,27.1-16.9,36.1
		c-0.6,0.5-0.6,1.3-0.2,1.9c0.3,0.3,0.6,0.5,1,0.5c0.3,0,0.6-0.1,0.9-0.3c7.1-5.9,12.3-13.5,15.2-22v31.8h-14.8
		c-0.7,0-1.3,0.6-1.3,1.3s0.6,1.3,1.3,1.3h17.5V64.1C131.4,64,131.4,64,131.4,63.9z"/>
	<path class="st0" d="M109,105.2L109,105.2C109,105.2,109,105.2,109,105.2c0-0.2,0-0.3-0.1-0.4c0,0,0-0.1,0-0.1c0,0,0-0.1,0-0.1
		l-8.1-14.2c8-6,12.8-15.4,12.8-25.5c0-17.5-14.3-31.8-31.8-31.8c-17.5,0-31.8,14.3-31.8,31.8c0,9.7,4.5,19,12.2,25l-8.4,14.7
		c0,0,0,0.1,0,0.1c0,0,0,0.1,0,0.1c-0.1,0.1-0.1,0.3-0.1,0.4c0,0,0,0,0,0v0c0,0,0,0,0,0v8.9c0,0.7,0.6,1.3,1.3,1.3H60v7.7
		c0,0.6,0.5,1.1,1.1,1.1h40.3c0.6,0,1.1-0.5,1.1-1.1v-7.7h5.1c0.7,0,1.3-0.6,1.3-1.3V105.2C109,105.2,109,105.2,109,105.2z
		 M93.7,78.8h-0.4H69.7c-4-3.5-6.3-8.5-6.3-13.9c0-10.1,8.2-18.3,18.3-18.3s18.3,8.2,18.3,18.3C100.1,70.3,97.8,75.3,93.7,78.8z
		 M52.6,65c0-16,13-29.1,29.1-29.1c16,0,29.1,13,29.1,29.1c0,9.1-4.2,17.6-11.4,23.1l-4-7.1c4.7-4,7.4-9.8,7.4-16
		c0-11.6-9.4-21-21-21c-11.6,0-21,9.4-21,21c0,5.9,2.5,11.5,6.8,15.5l-4.1,7.1C56.6,82.1,52.6,73.7,52.6,65z M64.7,90.5
		c0.1-0.1,0.2-0.2,0.2-0.3l5-8.7h22.6l5.2,9.2c0,0.1,0.1,0.1,0.2,0.2l7.5,13.1H57.1L64.7,90.5z M100.3,122h-38v-6.5h38V122z
		 M106.4,112.9H56.1v-6.4h50.2V112.9z"/>
</g>
</svg>
