<svg id="Layer_1" data-name="Layer 1" xmlns="http://www.w3.org/2000/svg" viewBox="0 0 1000.42 340.66"><defs><style>.cls-1{fill:#0957ff;}</style></defs><title>docassistan</title><path class="cls-1" d="M595,126l-13.68,36.47h6.86l3.28-9.22H606.9l3.38,9.22h7L603.47,126Zm-1.4,21.35,5.53-15.5,5.63,15.5Z"/><path class="cls-1" d="M637.69,142l-6.81-1.24c-4.29-.69-5.9-2-5.9-4.66,0-2.85,2.68-5.05,7.46-5.05,5.25,0,7.34,2.63,8,5.69L647,135.6c-1.07-6.27-5.47-10.19-14.43-10.19-8.52,0-14.16,4.13-14.16,10.89,0,6.38,3.76,9.12,10.52,10.3l6.33,1.13c4,.69,5.36,2,5.36,4.61,0,3-2.74,5-8,5-5.53,0-8-2.26-8.91-5.9l-6.59,1.12c1.28,7,6.54,10.41,15.34,10.41,9,0,14.75-3.86,14.75-10.89C647.19,146.12,643.86,143.11,637.69,142Z"/><path class="cls-1" d="M669.5,142l-6.81-1.24c-4.29-.69-5.9-2-5.9-4.66,0-2.85,2.68-5.05,7.46-5.05,5.25,0,7.34,2.63,8,5.69l6.54-1.13c-1.07-6.27-5.47-10.19-14.43-10.19-8.53,0-14.16,4.13-14.16,10.89,0,6.38,3.76,9.12,10.52,10.3l6.32,1.13c4,.69,5.37,2,5.37,4.61,0,3-2.74,5-8,5-5.53,0-8-2.26-8.91-5.9l-6.59,1.12c1.28,7,6.54,10.41,15.34,10.41,9,0,14.75-3.86,14.75-10.89C679,146.12,675.67,143.11,669.5,142Z"/><rect class="cls-1" x="682.38" y="125.95" width="6.54" height="36.47"/><path class="cls-1" d="M712.9,142l-6.81-1.24c-4.3-.69-5.9-2-5.9-4.66,0-2.85,2.68-5.05,7.45-5.05,5.26,0,7.35,2.63,8,5.69l6.55-1.13c-1.08-6.27-5.47-10.19-14.43-10.19-8.53,0-14.16,4.13-14.16,10.89,0,6.38,3.75,9.12,10.51,10.3l6.33,1.13c4,.69,5.36,2,5.36,4.61,0,3-2.73,5-8,5-5.52,0-8-2.26-8.9-5.9l-6.6,1.12c1.29,7,6.54,10.41,15.34,10.41,9,0,14.75-3.86,14.75-10.89C722.39,146.12,719.06,143.11,712.9,142Z"/><polygon class="cls-1" points="750.9 125.95 722.55 125.95 722.55 132.06 733.48 132.06 733.48 162.42 740.02 162.42 740.02 132.06 750.9 132.06 750.9 125.95"/><path class="cls-1" d="M759,126l-13.68,36.47h6.87l3.27-9.22h15.45l3.37,9.22h7L767.47,126Zm-1.4,21.35,5.53-15.5,5.63,15.5Z"/><polygon class="cls-1" points="808.88 153.3 790.49 125.95 783.19 125.95 783.19 162.42 789.58 162.42 789.58 135.6 807.65 162.42 815.21 162.42 815.21 125.95 808.88 125.95 808.88 153.3"/><polygon class="cls-1" points="817.04 125.95 817.04 132.06 827.97 132.06 827.97 162.42 834.51 162.42 834.51 132.06 845.38 132.06 845.38 125.95 817.04 125.95"/><path class="cls-1" d="M278.37,246.66c0-3.09-1.79-4.44-4.8-4.44h-5.92v13.84h2.48v-5h3.05l2.95,5H279l-3.25-5.31A3.91,3.91,0,0,0,278.37,246.66Zm-5.07,2.28h-3.17V244.4h3.17c1.84,0,2.57.67,2.57,2.28S275.14,248.94,273.3,248.94Z"/><path class="cls-1" d="M273.1,237.22A11.9,11.9,0,1,0,285,249.11,11.91,11.91,0,0,0,273.1,237.22Zm0,21.87a10,10,0,1,1,10-10A10,10,0,0,1,273.1,259.09Z"/><path class="cls-1" d="M517.21,125.94l-24.68,24.68-24.69-24.68H402.66L378,150.62h0l-24.69-24.68H293.77v20.67h55a8.51,8.51,0,0,1,8.5,8.51v64.81a8.51,8.51,0,0,1-8.5,8.51h-55v20.67h59.52L378,224.43h0l24.68,24.68h65.18l24.69-24.68,24.68,24.68h59.52V228.44h-55a8.51,8.51,0,0,1-8.51-8.51V155.12a8.51,8.51,0,0,1,8.51-8.51h55V125.94H517.21Zm-45.36,94a8.51,8.51,0,0,1-8.51,8.51H407.16a8.51,8.51,0,0,1-8.51-8.51V155.12a8.51,8.51,0,0,1,8.51-8.51h56.18a8.51,8.51,0,0,1,8.51,8.51Z"/><rect class="cls-1" x="273.1" y="146.61" width="20.68" height="81.82"/></svg>