<svg width="292" height="292" viewBox="0 0 292 292" fill="none" xmlns="http://www.w3.org/2000/svg">
<path d="M146 286.625C223.665 286.625 286.625 223.665 286.625 146C286.625 68.335 223.665 5.375 146 5.375C68.335 5.375 5.375 68.335 5.375 146C5.375 223.665 68.335 286.625 146 286.625Z" stroke="#0A57FF" stroke-width="10" stroke-miterlimit="10" stroke-linejoin="round"/>
<path d="M239.75 249.125C239.75 197.347 197.778 155.375 146 155.375C94.2219 155.375 52.25 197.347 52.25 249.125" stroke="#0A57FF" stroke-width="10" stroke-miterlimit="10" stroke-linejoin="round"/>
<path d="M146 155.375C177.066 155.375 202.25 130.191 202.25 99.125C202.25 68.059 177.066 42.875 146 42.875C114.934 42.875 89.75 68.059 89.75 99.125C89.75 130.191 114.934 155.375 146 155.375Z" stroke="#0A57FF" stroke-width="10" stroke-miterlimit="10" stroke-linejoin="round"/>
</svg>
