<svg width="332" height="306" viewBox="0 0 332 306" fill="none" xmlns="http://www.w3.org/2000/svg">
<path d="M222.5 55H109.5C106.5 55 104 52.5 104 49.5V5.5C104 2.5 106.5 0 109.5 0H222C225 0 227.5 2.5 227.5 5.5V49.5C228 52.5 225.5 55 222.5 55Z" fill="#0A57FF"/>
<path d="M313.528 301H18.9714C11.2659 301 5 294.737 5 286.959V94.0412C5 86.2625 11.2659 80 18.9714 80H313.029C320.734 80 327 86.2625 327 94.0412V286.959C327 294.914 321.061 301 313.528 301Z" fill="white" stroke="#0389F7" stroke-width="10"/>
<path d="M191.5 84H139.5C131.451 84 127 85.4118 127 81V55H204.973V81C205.476 85.4118 199.549 84 191.5 84Z" fill="#0389F7"/>
<path d="M131 264V216C131 199.5 117.5 186 101 186H63.5C47 186 33.5 199.5 33.5 216V264H131Z" fill="#0A57FF"/>
<path d="M82.5 186C66 186 53 173 53 156.5V136C53 119.5 66 106.5 82.5 106.5C99 106.5 112 119.5 112 136V156.5C112 172.5 98.5 186 82.5 186Z" fill="#0A57FF"/>
<path d="M289 246H192C187 246 183 250 183 255C183 260 187 264 192 264H289C294 264 298 260 298 255C298 250 294 246 289 246Z" fill="#FE7678"/>
<path d="M289 205H192C187 205 183 209 183 214C183 219 187 223 192 223H289C294 223 298 219 298 214C298 209 294 205 289 205Z" fill="#FE7678"/>
<path d="M246 163.5H192C187 163.5 183 167.5 183 172.5C183 177.5 187 181.5 192 181.5H246C251 181.5 255 177.5 255 172.5C255 167.5 251 163.5 246 163.5Z" fill="#FE7678"/>
<path d="M69.5 186V212.5C69.5 219.5 75 225 82 225C89 225 94.5 219.5 94.5 212.5V186H69.5Z" fill="#0A57FF"/>
</svg>
